SeanSlab_0.ufo
<glyph name="numbersign" format="1">
  <advance width="694"/>
  <unicode hex="0023"/>
  <outline>
    <contour>
      <point x="49" y="247" type="line"/>
      <point x="561" y="247" type="line"/>
      <point x="567" y="269" type="line"/>
      <point x="56" y="269" type="line"/>
    </contour>
    <contour>
      <point x="125" y="492" type="line"/>
      <point x="637" y="492" type="line"/>
      <point x="643" y="513" type="line"/>
      <point x="132" y="513" type="line"/>
    </contour>
    <contour>
      <point x="398" y="39" type="line"/>
      <point x="624" y="722" type="line"/>
      <point x="600" y="722" type="line"/>
      <point x="374" y="39" type="line"/>
    </contour>
    <contour>
      <point x="115" y="46" type="line"/>
      <point x="337" y="722" type="line"/>
      <point x="313" y="722" type="line"/>
      <point x="92" y="46" type="line"/>
    </contour>
  </outline>
</glyph>
<glyph name="percent" format="1">
  <advance width="1068"/>
  <unicode hex="0025"/>
  <outline>
    <contour>
      <point x="342" y="-93" type="line"/>
      <point x="788" y="757" type="line"/>
      <point x="760" y="757" type="line"/>
      <point x="315" y="-93" type="line"/>
    </contour>
    <contour>
      <point x="65" y="554" type="curve"/>
      <point x="65" y="664"/>
      <point x="113" y="740"/>
      <point x="217" y="740" type="curve"/>
      <point x="321" y="741"/>
      <point x="368" y="665"/>
      <point x="368" y="555" type="curve"/>
      <point x="368" y="446"/>
      <point x="323" y="367"/>
      <point x="219" y="367" type="curve"/>
      <point x="113" y="367"/>
      <point x="65" y="444"/>
      <point x="65" y="554" type="curve"/>
      <point x="56" y="554"/>
      <point x="51" y="554"/>
      <point x="42" y="554" type="curve"/>
      <point x="42" y="431"/>
      <point x="100" y="346"/>
      <point x="218" y="346" type="curve"/>
      <point x="335" y="346"/>
      <point x="392" y="432"/>
      <point x="392" y="556" type="curve"/>
      <point x="392" y="678"/>
      <point x="335" y="762"/>
      <point x="218" y="762" type="curve"/>
      <point x="100" y="762"/>
      <point x="42" y="677"/>
      <point x="42" y="554" type="curve"/>
      <point x="51" y="554"/>
      <point x="56" y="554"/>
    </contour>
    <contour>
      <point x="699" y="108" type="curve"/>
      <point x="699" y="218"/>
      <point x="747" y="294"/>
      <point x="851" y="294" type="curve"/>
      <point x="955" y="295"/>
      <point x="1002" y="219"/>
      <point x="1002" y="109" type="curve"/>
      <point x="1002" y="0"/>
      <point x="957" y="-79"/>
      <point x="853" y="-79" type="curve"/>
      <point x="747" y="-79"/>
      <point x="699" y="-2"/>
      <point x="699" y="108" type="curve"/>
      <point x="690" y="108"/>
      <point x="685" y="108"/>
      <point x="676" y="108" type="curve"/>
      <point x="676" y="-15"/>
      <point x="734" y="-100"/>
      <point x="852" y="-100" type="curve"/>
      <point x="969" y="-100"/>
      <point x="1026" y="-14"/>
      <point x="1026" y="110" type="curve"/>
      <point x="1026" y="232"/>
      <point x="969" y="316"/>
      <point x="852" y="316" type="curve"/>
      <point x="734" y="316"/>
      <point x="676" y="231"/>
      <point x="676" y="108" type="curve"/>
      <point x="685" y="108"/>
      <point x="690" y="108"/>
    </contour>
  </outline>
</glyph>
<glyph name="ampersand" format="1">
  <advance width="682"/>
  <unicode hex="0026"/>
  <outline>
    <contour>
      <point x="659" y="8" type="line"/>
      <point x="540" y="123"/>
      <point x="429" y="233"/>
      <point x="310" y="349" type="curve"/>
      <point x="243" y="421"/>
      <point x="160" y="475"/>
      <point x="160" y="577" type="curve"/>
      <point x="160" y="653"/>
      <point x="208" y="705"/>
      <point x="283" y="705" type="curve"/>
      <point x="363" y="705"/>
      <point x="418" y="658"/>
      <point x="418" y="579" type="curve"/>
      <point x="418" y="480"/>
      <point x="338" y="437"/>
      <point x="250" y="388" type="curve"/>
      <point x="152" y="332"/>
      <point x="65" y="287"/>
      <point x="65" y="177" type="curve"/>
      <point x="65" y="60"/>
      <point x="154" y="-5"/>
      <point x="276" y="-5" type="curve"/>
      <point x="465" y="-5"/>
      <point x="561" y="133"/>
      <point x="622" y="318" type="curve"/>
      <point x="601" y="323"/>
      <point x="622" y="318"/>
      <point x="601" y="323" type="curve"/>
      <point x="543" y="148"/>
      <point x="450" y="17"/>
      <point x="277" y="17" type="curve"/>
      <point x="169" y="17"/>
      <point x="89" y="73"/>
      <point x="89" y="177" type="curve"/>
      <point x="89" y="279"/>
      <point x="172" y="319"/>
      <point x="261" y="370" type="curve"/>
      <point x="356" y="424"/>
      <point x="441" y="472"/>
      <point x="442" y="579" type="curve"/>
      <point x="442" y="672"/>
      <point x="377" y="726"/>
      <point x="284" y="726" type="curve"/>
      <point x="193" y="726"/>
      <point x="136" y="667"/>
      <point x="136" y="577" type="curve"/>
      <point x="136" y="470"/>
      <point x="220" y="411"/>
      <point x="293" y="336" type="curve"/>
      <point x="409" y="223"/>
      <point x="527" y="107"/>
      <point x="643" y="-6" type="curve"/>
    </contour>
  </outline>
</glyph>
<glyph name="parenright" format="1">
  <advance width="359"/>
  <unicode hex="0029"/>
  <outline>
    <contour>
      <point x="30" y="-267" type="curve"/>
      <point x="207" y="-89"/>
      <point x="300" y="73"/>
      <point x="300" y="327" type="curve"/>
      <point x="300" y="575"/>
      <point x="214" y="735"/>
      <point x="34" y="903" type="curve"/>
      <point x="19" y="888"/>
      <point x="34" y="903"/>
      <point x="19" y="888" type="curve"/>
      <point x="192" y="722"/>
      <point x="274" y="566"/>
      <point x="274" y="326" type="curve"/>
      <point x="274" y="80"/>
      <point x="182" y="-76"/>
      <point x="14" y="-252" type="curve"/>
      <point x="30" y="-267"/>
      <point x="14" y="-252"/>
    </contour>
  </outline>
</glyph>
<glyph name="period" format="1">
  <advance width="209"/>
  <unicode hex="002E"/>
  <outline>
    <contour>
      <point x="123" y="12" type="curve"/>
      <point x="123" y="23"/>
      <point x="115" y="30"/>
      <point x="104" y="30" type="curve"/>
      <point x="93" y="30"/>
      <point x="86" y="23"/>
      <point x="86" y="12" type="curve"/>
      <point x="110" y="12"/>
      <point x="99" y="12"/>
      <point x="123" y="12" type="curve"/>
      <point x="123" y="1"/>
      <point x="115" y="-6"/>
      <point x="104" y="-6" type="curve"/>
      <point x="93" y="-6"/>
      <point x="86" y="1"/>
      <point x="86" y="12" type="curve"/>
      <point x="110" y="12"/>
      <point x="99" y="12"/>
    </contour>
  </outline>
</glyph>
<glyph name="five" format="1">
  <advance width="533"/>
  <unicode hex="0035"/>
  <outline>
    <contour>
      <point x="109" y="722" type="curve"/>
      <point x="109" y="619"/>
      <point x="109" y="510"/>
      <point x="109" y="403" type="curve"/>
      <point x="132" y="396"/>
      <point x="109" y="403"/>
      <point x="132" y="396" type="curve"/>
      <point x="132" y="498"/>
      <point x="132" y="599"/>
      <point x="132" y="700" type="curve"/>
      <point x="109" y="722"/>
      <point x="132" y="700"/>
    </contour>
    <contour>
      <point x="132" y="396" type="curve"/>
      <point x="158" y="409"/>
      <point x="213" y="422"/>
      <point x="253" y="422" type="curve"/>
      <point x="373" y="422"/>
      <point x="447" y="343"/>
      <point x="447" y="224" type="curve"/>
      <point x="447" y="103"/>
      <point x="364" y="20"/>
      <point x="241" y="20" type="curve"/>
      <point x="177" y="20"/>
      <point x="129" y="36"/>
      <point x="70" y="65" type="curve"/>
      <point x="58" y="44"/>
      <point x="70" y="65"/>
      <point x="58" y="44" type="curve"/>
      <point x="115" y="12"/>
      <point x="172" y="-5"/>
      <point x="240" y="-5" type="curve"/>
      <point x="378" y="-5"/>
      <point x="472" y="87"/>
      <point x="472" y="224" type="curve"/>
      <point x="472" y="356"/>
      <point x="388" y="446"/>
      <point x="254" y="446" type="curve"/>
      <point x="204" y="446"/>
      <point x="142" y="431"/>
      <point x="109" y="409" type="curve"/>
      <point x="132" y="396"/>
      <point x="109" y="409"/>
    </contour>
    <contour>
      <point x="452" y="722" type="curve"/>
      <point x="333" y="722"/>
      <point x="228" y="722"/>
      <point x="109" y="722" type="curve"/>
      <point x="132" y="700"/>
      <point x="109" y="722"/>
      <point x="132" y="700" type="curve"/>
      <point x="243" y="700"/>
      <point x="341" y="700"/>
      <point x="452" y="700" type="curve"/>
      <point x="452" y="722"/>
      <point x="452" y="700"/>
    </contour>
  </outline>
</glyph>
<glyph name="G" format="1">
  <advance width="788"/>
  <unicode hex="0047"/>
  <outline>
    <contour>
      <point x="409" y="825" type="move" name="top"/>
    </contour>
    <contour>
      <point x="427" y="-35" type="move" name="bottom"/>
    </contour>
    <contour>
      <point x="677" y="642" type="curve"/>
      <point x="677" y="522"/>
      <point x="677" y="647"/>
      <point x="677" y="527" type="curve"/>
      <point x="698" y="527"/>
      <point x="677" y="527"/>
      <point x="698" y="527" type="curve"/>
      <point x="698" y="647"/>
      <point x="698" y="522"/>
      <point x="698" y="642" type="curve"/>
      <point x="677" y="642"/>
      <point x="698" y="642"/>
    </contour>
    <contour>
      <point x="707" y="319" type="curve"/>
      <point x="631" y="319"/>
      <point x="554" y="319"/>
      <point x="478" y="319" type="curve"/>
      <point x="478" y="297"/>
      <point x="478" y="319"/>
      <point x="478" y="297" type="curve"/>
      <point x="554" y="297"/>
      <point x="631" y="297"/>
      <point x="707" y="297" type="curve"/>
      <point x="707" y="319"/>
      <point x="707" y="297"/>
    </contour>
    <contour>
      <point x="716" y="77" type="curve"/>
      <point x="716" y="158"/>
      <point x="716" y="238"/>
      <point x="716" y="319" type="curve"/>
      <point x="694" y="319"/>
      <point x="716" y="319"/>
      <point x="694" y="319" type="curve"/>
      <point x="694" y="238"/>
      <point x="694" y="158"/>
      <point x="694" y="77" type="curve"/>
      <point x="716" y="77"/>
      <point x="694" y="77"/>
    </contour>
    <contour>
      <point x="698" y="642" type="curve"/>
      <point x="605" y="700"/>
      <point x="520" y="727"/>
      <point x="409" y="727" type="curve"/>
      <point x="187" y="727"/>
      <point x="66" y="592"/>
      <point x="66" y="365" type="curve"/>
      <point x="66" y="132"/>
      <point x="192" y="-5"/>
      <point x="421" y="-5" type="curve"/>
      <point x="539" y="-5"/>
      <point x="614" y="21"/>
      <point x="716" y="77" type="curve"/>
      <point x="702" y="95"/>
      <point x="716" y="77"/>
      <point x="702" y="95" type="curve"/>
      <point x="613" y="46"/>
      <point x="532" y="20"/>
      <point x="422" y="20" type="curve"/>
      <point x="207" y="20"/>
      <point x="91" y="149"/>
      <point x="91" y="367" type="curve"/>
      <point x="91" y="576"/>
      <point x="204" y="704"/>
      <point x="410" y="704" type="curve"/>
      <point x="515" y="704"/>
      <point x="597" y="678"/>
      <point x="686" y="624" type="curve"/>
      <point x="698" y="642"/>
      <point x="686" y="624"/>
    </contour>
  </outline>
</glyph>
<glyph name="W" format="1">
  <advance width="1059"/>
  <unicode hex="0057"/>
  <outline>
    <contour>
      <point x="134" y="700" type="curve"/>
      <point x="281" y="700"/>
      <point x="130" y="700"/>
      <point x="277" y="700" type="curve"/>
      <point x="277" y="722"/>
      <point x="277" y="700"/>
      <point x="277" y="722" type="curve"/>
      <point x="228" y="722"/>
      <point x="183" y="722"/>
      <point x="134" y="722" type="curve"/>
      <point x="134" y="700"/>
      <point x="134" y="722"/>
    </contour>
    <contour>
      <point x="134" y="722" type="curve"/>
      <point x="86" y="722"/>
      <point x="40" y="722"/>
      <point x="-8" y="722" type="curve"/>
      <point x="-8" y="700"/>
      <point x="-8" y="722"/>
      <point x="-8" y="700" type="curve"/>
      <point x="138" y="700"/>
      <point x="-12" y="700"/>
      <point x="134" y="700" type="curve"/>
      <point x="134" y="722"/>
      <point x="134" y="700"/>
    </contour>
    <contour>
      <point x="904" y="722" type="curve"/>
      <point x="855" y="722"/>
      <point x="810" y="722"/>
      <point x="761" y="722" type="curve"/>
      <point x="761" y="700"/>
      <point x="761" y="722"/>
      <point x="761" y="700" type="curve"/>
      <point x="908" y="700"/>
      <point x="757" y="700"/>
      <point x="904" y="700" type="curve"/>
      <point x="904" y="722"/>
      <point x="904" y="700"/>
    </contour>
    <contour>
      <point x="904" y="700" type="curve"/>
      <point x="1050" y="700"/>
      <point x="899" y="700"/>
      <point x="1046" y="700" type="curve"/>
      <point x="1046" y="722"/>
      <point x="1046" y="700"/>
      <point x="1046" y="722" type="curve"/>
      <point x="997" y="722"/>
      <point x="952" y="722"/>
      <point x="904" y="722" type="curve"/>
      <point x="904" y="700"/>
      <point x="904" y="722"/>
    </contour>
    <contour>
      <point x="323" y="0" type="curve"/>
      <point x="393" y="241"/>
      <point x="463" y="481"/>
      <point x="532" y="722" type="curve"/>
      <point x="509" y="722"/>
      <point x="533" y="722"/>
      <point x="510" y="722" type="curve"/>
      <point x="441" y="481"/>
      <point x="371" y="241"/>
      <point x="302" y="0" type="curve"/>
      <point x="319" y="0"/>
      <point x="306" y="0"/>
    </contour>
    <contour>
      <point x="518" y="722" type="curve"/>
      <point x="581" y="481"/>
      <point x="643" y="241"/>
      <point x="707" y="0" type="curve"/>
      <point x="725" y="0"/>
      <point x="710" y="0"/>
      <point x="728" y="0" type="curve"/>
      <point x="666" y="241"/>
      <point x="603" y="481"/>
      <point x="540" y="722" type="curve"/>
      <point x="517" y="722"/>
      <point x="541" y="722"/>
    </contour>
    <contour>
      <point x="109" y="722" type="curve"/>
      <point x="172" y="481"/>
      <point x="236" y="241"/>
      <point x="299" y="0" type="curve"/>
      <point x="317" y="0"/>
      <point x="303" y="0"/>
      <point x="321" y="0" type="curve"/>
      <point x="259" y="240"/>
      <point x="196" y="482"/>
      <point x="134" y="722" type="curve"/>
      <point x="109" y="722"/>
      <point x="134" y="722"/>
    </contour>
    <contour>
      <point x="904" y="722" type="curve"/>
      <point x="839" y="481"/>
      <point x="773" y="241"/>
      <point x="710" y="0" type="curve"/>
      <point x="728" y="0"/>
      <point x="713" y="0"/>
      <point x="731" y="0" type="curve"/>
      <point x="797" y="241"/>
      <point x="863" y="481"/>
      <point x="929" y="722" type="curve"/>
      <point x="904" y="722"/>
      <point x="929" y="722"/>
    </contour>
  </outline>
</glyph>
<glyph name="backslash" format="1">
  <advance width="519"/>
  <unicode hex="005C"/>
  <outline>
    <contour>
      <point x="477" y="-68" type="curve"/>
      <point x="341" y="236"/>
      <point x="204" y="540"/>
      <point x="68" y="844" type="curve"/>
      <point x="42" y="844"/>
      <point x="68" y="844"/>
      <point x="42" y="844" type="curve"/>
      <point x="179" y="540"/>
      <point x="315" y="236"/>
      <point x="452" y="-68" type="curve"/>
      <point x="477" y="-68"/>
      <point x="452" y="-68"/>
    </contour>
  </outline>
</glyph>
<glyph name="grave" format="1">
  <advance width="420"/>
  <unicode hex="0060"/>
  <outline>
    <contour>
      <point x="209" y="591" type="move" name="_top"/>
    </contour>
    <contour>
      <point x="225" y="591" type="line"/>
      <point x="94" y="757" type="line"/>
      <point x="59" y="757" type="line"/>
      <point x="198" y="591" type="line"/>
    </contour>
  </outline>
</glyph>
<glyph name="b" format="1">
  <advance width="665"/>
  <unicode hex="0062"/>
  <outline>
    <contour>
      <point x="149" y="800" type="curve"/>
      <point x="101" y="800"/>
      <point x="56" y="800"/>
      <point x="7" y="800" type="curve"/>
      <point x="7" y="778"/>
      <point x="7" y="800"/>
      <point x="7" y="778" type="curve"/>
      <point x="153" y="778"/>
      <point x="3" y="778"/>
      <point x="149" y="778" type="curve"/>
      <point x="149" y="800"/>
      <point x="149" y="778"/>
    </contour>
    <contour>
      <point x="154" y="407" type="curve"/>
      <point x="193" y="457"/>
      <point x="272" y="516"/>
      <point x="367" y="516" type="curve"/>
      <point x="501" y="516"/>
      <point x="575" y="410"/>
      <point x="575" y="266" type="curve"/>
      <point x="575" y="127"/>
      <point x="497" y="16"/>
      <point x="366" y="17" type="curve"/>
      <point x="281" y="17"/>
      <point x="214" y="55"/>
      <point x="156" y="122" type="curve"/>
      <point x="139" y="109"/>
      <point x="157" y="120"/>
      <point x="141" y="106" type="curve"/>
      <point x="203" y="34"/>
      <point x="272" y="-5"/>
      <point x="367" y="-5" type="curve"/>
      <point x="516" y="-5"/>
      <point x="599" y="109"/>
      <point x="599" y="267" type="curve"/>
      <point x="599" y="423"/>
      <point x="518" y="538"/>
      <point x="369" y="538" type="curve"/>
      <point x="266" y="538"/>
      <point x="183" y="481"/>
      <point x="142" y="426" type="curve"/>
      <point x="154" y="410"/>
      <point x="142" y="423"/>
    </contour>
    <contour>
      <point x="159" y="0" type="curve"/>
      <point x="159" y="267"/>
      <point x="159" y="533"/>
      <point x="159" y="800" type="curve"/>
      <point x="135" y="800"/>
      <point x="159" y="800"/>
      <point x="135" y="800" type="curve"/>
      <point x="135" y="533"/>
      <point x="135" y="267"/>
      <point x="135" y="0" type="curve"/>
      <point x="159" y="0"/>
      <point x="135" y="0"/>
    </contour>
    <contour>
      <point x="149" y="22" type="curve"/>
      <point x="3" y="22"/>
      <point x="153" y="22"/>
      <point x="7" y="22" type="curve"/>
      <point x="7" y="0"/>
      <point x="7" y="22"/>
      <point x="7" y="0" type="curve"/>
      <point x="56" y="0"/>
      <point x="101" y="0"/>
      <point x="149" y="0" type="curve"/>
      <point x="149" y="22"/>
      <point x="149" y="0"/>
    </contour>
  </outline>
</glyph>
<glyph name="d" format="1">
  <advance width="669"/>
  <unicode hex="0064"/>
  <outline>
    <contour>
      <point x="518" y="800" type="curve"/>
      <point x="468" y="800"/>
      <point x="427" y="800"/>
      <point x="376" y="800" type="curve"/>
      <point x="376" y="778"/>
      <point x="376" y="800"/>
      <point x="376" y="778" type="curve"/>
      <point x="528" y="778"/>
      <point x="367" y="778"/>
      <point x="518" y="778" type="curve"/>
      <point x="518" y="800"/>
      <point x="518" y="778"/>
    </contour>
    <contour>
      <point x="520" y="0" type="curve"/>
      <point x="570" y="0"/>
      <point x="611" y="0"/>
      <point x="662" y="0" type="curve"/>
      <point x="662" y="22"/>
      <point x="662" y="0"/>
      <point x="662" y="22" type="curve"/>
      <point x="511" y="22"/>
      <point x="672" y="22"/>
      <point x="520" y="22" type="curve"/>
      <point x="520" y="0"/>
      <point x="520" y="22"/>
    </contour>
    <contour>
      <point x="526" y="443" type="curve"/>
      <point x="475" y="503"/>
      <point x="405" y="538"/>
      <point x="317" y="538" type="curve"/>
      <point x="158" y="538"/>
      <point x="63" y="426"/>
      <point x="63" y="264" type="curve"/>
      <point x="63" y="103"/>
      <point x="161" y="-5"/>
      <point x="320" y="-5" type="curve"/>
      <point x="413" y="-5"/>
      <point x="476" y="41"/>
      <point x="526" y="124" type="curve"/>
      <point x="512" y="139"/>
      <point x="526" y="124"/>
      <point x="512" y="139" type="curve"/>
      <point x="462" y="61"/>
      <point x="404" y="17"/>
      <point x="319" y="17" type="curve"/>
      <point x="175" y="17"/>
      <point x="87" y="117"/>
      <point x="87" y="265" type="curve"/>
      <point x="87" y="414"/>
      <point x="174" y="516"/>
      <point x="318" y="516" type="curve"/>
      <point x="396" y="516"/>
      <point x="465" y="484"/>
      <point x="512" y="427" type="curve"/>
      <point x="526" y="443"/>
      <point x="512" y="427"/>
    </contour>
    <contour>
      <point x="532" y="0" type="curve"/>
      <point x="532" y="267"/>
      <point x="532" y="533"/>
      <point x="532" y="800" type="curve"/>
      <point x="506" y="800"/>
      <point x="532" y="800"/>
      <point x="506" y="800" type="curve"/>
      <point x="506" y="533"/>
      <point x="506" y="267"/>
      <point x="506" y="0" type="curve"/>
      <point x="532" y="0"/>
      <point x="506" y="0"/>
    </contour>
  </outline>
</glyph>
<glyph name="h" format="1">
  <advance width="684"/>
  <unicode hex="0068"/>
  <outline>
    <contour>
      <point x="537" y="0" type="curve"/>
      <point x="585" y="0"/>
      <point x="631" y="0"/>
      <point x="679" y="0" type="curve"/>
      <point x="679" y="22"/>
      <point x="679" y="0"/>
      <point x="679" y="22" type="curve"/>
      <point x="533" y="22"/>
      <point x="683" y="22"/>
      <point x="537" y="22" type="curve"/>
      <point x="537" y="0"/>
      <point x="537" y="22"/>
    </contour>
    <contour>
      <point x="149" y="0" type="curve"/>
      <point x="193" y="0"/>
      <point x="145" y="0"/>
      <point x="277" y="0" type="curve"/>
      <point x="277" y="22"/>
      <point x="277" y="0"/>
      <point x="277" y="22" type="curve"/>
      <point x="145" y="22"/>
      <point x="280" y="22"/>
      <point x="149" y="22" type="curve"/>
      <point x="149" y="0"/>
      <point x="149" y="22"/>
    </contour>
    <contour>
      <point x="149" y="800" type="curve"/>
      <point x="101" y="800"/>
      <point x="55" y="800"/>
      <point x="7" y="800" type="curve"/>
      <point x="7" y="778"/>
      <point x="7" y="800"/>
      <point x="7" y="778" type="curve"/>
      <point x="153" y="778"/>
      <point x="3" y="778"/>
      <point x="149" y="778" type="curve"/>
      <point x="149" y="800"/>
      <point x="149" y="778"/>
    </contour>
    <contour>
      <point x="149" y="22" type="curve"/>
      <point x="3" y="22"/>
      <point x="153" y="22"/>
      <point x="7" y="22" type="curve"/>
      <point x="7" y="0"/>
      <point x="7" y="22"/>
      <point x="7" y="0" type="curve"/>
      <point x="55" y="0"/>
      <point x="101" y="0"/>
      <point x="149" y="0" type="curve"/>
      <point x="149" y="22"/>
      <point x="149" y="0"/>
    </contour>
    <contour>
      <point x="156" y="354" type="curve"/>
      <point x="189" y="443"/>
      <point x="272" y="516"/>
      <point x="369" y="516" type="curve"/>
      <point x="476" y="516"/>
      <point x="526" y="450"/>
      <point x="526" y="341" type="curve"/>
      <point x="526" y="228"/>
      <point x="526" y="114"/>
      <point x="526" y="0" type="curve"/>
      <point x="550" y="0"/>
      <point x="526" y="0"/>
      <point x="550" y="0" type="curve"/>
      <point x="550" y="115"/>
      <point x="550" y="229"/>
      <point x="550" y="344" type="curve"/>
      <point x="550" y="466"/>
      <point x="491" y="538"/>
      <point x="372" y="538" type="curve"/>
      <point x="266" y="538"/>
      <point x="173" y="467"/>
      <point x="144" y="367" type="curve"/>
      <point x="157" y="355"/>
      <point x="142" y="366"/>
    </contour>
    <contour>
      <point x="161" y="0" type="curve"/>
      <point x="161" y="267"/>
      <point x="161" y="533"/>
      <point x="161" y="800" type="curve"/>
      <point x="137" y="800"/>
      <point x="161" y="800"/>
      <point x="137" y="800" type="curve"/>
      <point x="137" y="533"/>
      <point x="137" y="267"/>
      <point x="137" y="0" type="curve"/>
      <point x="161" y="0"/>
      <point x="137" y="0"/>
    </contour>
  </outline>
</glyph>
<glyph name="p" format="1">
  <advance width="674"/>
  <unicode hex="0070"/>
  <outline>
    <contour>
      <point x="154" y="-278" type="curve"/>
      <point x="2" y="-278"/>
      <point x="158" y="-278"/>
      <point x="6" y="-278" type="curve"/>
      <point x="6" y="-299"/>
      <point x="6" y="-278"/>
      <point x="6" y="-299" type="curve"/>
      <point x="57" y="-299"/>
      <point x="103" y="-299"/>
      <point x="154" y="-299" type="curve"/>
      <point x="154" y="-278"/>
      <point x="154" y="-299"/>
    </contour>
    <contour>
      <point x="154" y="-300" type="curve"/>
      <point x="201" y="-300"/>
      <point x="244" y="-300"/>
      <point x="291" y="-300" type="curve"/>
      <point x="291" y="-278"/>
      <point x="291" y="-300"/>
      <point x="291" y="-278" type="curve"/>
      <point x="149" y="-279"/>
      <point x="295" y="-278"/>
      <point x="154" y="-279" type="curve"/>
      <point x="154" y="-300"/>
      <point x="154" y="-279"/>
    </contour>
    <contour>
      <point x="155" y="533" type="curve"/>
      <point x="104" y="533"/>
      <point x="58" y="533"/>
      <point x="8" y="533" type="curve"/>
      <point x="8" y="511"/>
      <point x="8" y="533"/>
      <point x="8" y="511" type="curve"/>
      <point x="159" y="512"/>
      <point x="3" y="511"/>
      <point x="155" y="512" type="curve"/>
      <point x="155" y="533"/>
      <point x="155" y="512"/>
    </contour>
    <contour>
      <point x="160" y="415" type="curve"/>
      <point x="198" y="465"/>
      <point x="281" y="516"/>
      <point x="374" y="516" type="curve"/>
      <point x="511" y="516"/>
      <point x="584" y="416"/>
      <point x="584" y="276" type="curve"/>
      <point x="587" y="127"/>
      <point x="513" y="16"/>
      <point x="375" y="17" type="curve"/>
      <point x="284" y="17"/>
      <point x="223" y="59"/>
      <point x="162" y="122" type="curve"/>
      <point x="146" y="111"/>
      <point x="162" y="122"/>
      <point x="146" y="111" type="curve"/>
      <point x="210" y="38"/>
      <point x="277" y="-5"/>
      <point x="375" y="-5" type="curve"/>
      <point x="531" y="-5"/>
      <point x="608" y="116"/>
      <point x="608" y="277" type="curve"/>
      <point x="608" y="429"/>
      <point x="525" y="538"/>
      <point x="375" y="538" type="curve"/>
      <point x="274" y="538"/>
      <point x="190" y="487"/>
      <point x="148" y="433" type="curve"/>
      <point x="161" y="416"/>
      <point x="146" y="431"/>
    </contour>
    <contour>
      <point x="166" y="-300" type="curve"/>
      <point x="166" y="-22"/>
      <point x="166" y="255"/>
      <point x="166" y="533" type="curve"/>
      <point x="142" y="533"/>
      <point x="166" y="533"/>
      <point x="142" y="533" type="curve"/>
      <point x="142" y="255"/>
      <point x="142" y="-22"/>
      <point x="142" y="-300" type="curve"/>
      <point x="166" y="-300"/>
      <point x="142" y="-300"/>
    </contour>
  </outline>
</glyph>
<glyph name="r" format="1">
  <advance width="469"/>
  <unicode hex="0072"/>
  <outline>
    <contour>
      <point x="181" y="671" type="move" name="top"/>
    </contour>
    <contour>
      <point x="198" y="-36" type="move" name="bottom"/>
    </contour>
    <contour>
      <point x="178" y="0" type="curve"/>
      <point x="223" y="0"/>
      <point x="265" y="0"/>
      <point x="310" y="0" type="curve"/>
      <point x="310" y="22"/>
      <point x="310" y="0"/>
      <point x="310" y="22" type="curve"/>
      <point x="174" y="22"/>
      <point x="314" y="22"/>
      <point x="178" y="22" type="curve"/>
      <point x="178" y="0"/>
      <point x="178" y="22"/>
    </contour>
    <contour>
      <point x="178" y="22" type="curve"/>
      <point x="31" y="22"/>
      <point x="182" y="22"/>
      <point x="36" y="22" type="curve"/>
      <point x="36" y="0"/>
      <point x="36" y="22"/>
      <point x="36" y="0" type="curve"/>
      <point x="84" y="0"/>
      <point x="129" y="0"/>
      <point x="178" y="0" type="curve"/>
      <point x="178" y="22"/>
      <point x="178" y="0"/>
    </contour>
    <contour>
      <point x="177" y="533" type="curve"/>
      <point x="128" y="533"/>
      <point x="84" y="533"/>
      <point x="35" y="533" type="curve"/>
      <point x="35" y="511"/>
      <point x="35" y="533"/>
      <point x="35" y="511" type="curve"/>
      <point x="182" y="511"/>
      <point x="31" y="511"/>
      <point x="177" y="511" type="curve"/>
      <point x="177" y="533"/>
      <point x="177" y="511"/>
    </contour>
    <contour>
      <point x="190" y="0" type="curve"/>
      <point x="190" y="178"/>
      <point x="190" y="355"/>
      <point x="190" y="533" type="curve"/>
      <point x="166" y="533"/>
      <point x="190" y="533"/>
      <point x="166" y="533" type="curve"/>
      <point x="166" y="355"/>
      <point x="166" y="178"/>
      <point x="166" y="0" type="curve"/>
      <point x="190" y="0"/>
      <point x="166" y="0"/>
    </contour>
    <contour>
      <point x="184" y="361" type="curve"/>
      <point x="229" y="469"/>
      <point x="331" y="516"/>
      <point x="438" y="516" type="curve"/>
      <point x="438" y="540"/>
      <point x="438" y="514"/>
      <point x="438" y="538" type="curve"/>
      <point x="324" y="538"/>
      <point x="213" y="487"/>
      <point x="174" y="383" type="curve"/>
      <point x="187" y="368"/>
      <point x="173" y="375"/>
    </contour>
  </outline>
</glyph>
<glyph name="s" format="1">
  <advance width="494"/>
  <unicode hex="0073"/>
  <outline>
    <contour>
      <point x="244" y="671" type="move" name="top"/>
    </contour>
    <contour>
      <point x="270" y="-38" type="move" name="bottom"/>
    </contour>
    <contour>
      <point x="65" y="50" type="curve"/>
      <point x="128" y="18"/>
      <point x="189" y="-5"/>
      <point x="258" y="-5" type="curve"/>
      <point x="362" y="-5"/>
      <point x="429" y="39"/>
      <point x="429" y="136" type="curve"/>
      <point x="428" y="235"/>
      <point x="349" y="258"/>
      <point x="252" y="288" type="curve" smooth="yes"/>
      <point x="173" y="312"/>
      <point x="114" y="341"/>
      <point x="114" y="417" type="curve"/>
      <point x="114" y="486"/>
      <point x="165" y="516"/>
      <point x="240" y="516" type="curve"/>
      <point x="293" y="516"/>
      <point x="349" y="497"/>
      <point x="387" y="472" type="curve"/>
      <point x="394" y="485"/>
      <point x="390" y="478"/>
      <point x="398" y="491" type="curve"/>
      <point x="357" y="517"/>
      <point x="298" y="538"/>
      <point x="241" y="538" type="curve"/>
      <point x="153" y="538"/>
      <point x="92" y="500"/>
      <point x="92" y="417" type="curve"/>
      <point x="92" y="328"/>
      <point x="155" y="295"/>
      <point x="244" y="267" type="curve" smooth="yes"/>
      <point x="330" y="239"/>
      <point x="406" y="222"/>
      <point x="406" y="136" type="curve"/>
      <point x="406" y="54"/>
      <point x="347" y="17"/>
      <point x="262" y="17" type="curve"/>
      <point x="195" y="17"/>
      <point x="138" y="40"/>
      <point x="76" y="70" type="curve"/>
      <point x="64" y="51"/>
      <point x="77" y="70"/>
    </contour>
    <contour>
      <point x="376" y="491" type="curve"/>
      <point x="376" y="371"/>
      <point x="376" y="496"/>
      <point x="376" y="376" type="curve"/>
      <point x="398" y="376"/>
      <point x="376" y="376"/>
      <point x="398" y="376" type="curve"/>
      <point x="398" y="496"/>
      <point x="398" y="371"/>
      <point x="398" y="491" type="curve"/>
      <point x="382" y="491"/>
      <point x="391" y="491"/>
    </contour>
    <contour>
      <point x="85" y="50" type="curve"/>
      <point x="85" y="170"/>
      <point x="85" y="45"/>
      <point x="85" y="165" type="curve"/>
      <point x="64" y="165"/>
      <point x="85" y="165"/>
      <point x="64" y="165" type="curve"/>
      <point x="64" y="45"/>
      <point x="64" y="170"/>
      <point x="64" y="50" type="curve"/>
      <point x="85" y="50"/>
      <point x="64" y="50"/>
    </contour>
  </outline>
</glyph>
<glyph name="braceleft" format="1">
  <advance width="330"/>
  <unicode hex="007B"/>
  <outline>
    <contour>
      <point x="282" y="-102" type="curve"/>
      <point x="207" y="-102"/>
      <point x="171" y="-50"/>
      <point x="171" y="26" type="curve"/>
      <point x="171" y="85"/>
      <point x="171" y="144"/>
      <point x="171" y="203" type="curve"/>
      <point x="171" y="290"/>
      <point x="125" y="350"/>
      <point x="40" y="350" type="curve"/>
      <point x="40" y="328"/>
      <point x="40" y="350"/>
      <point x="40" y="328" type="curve"/>
      <point x="111" y="328"/>
      <point x="150" y="279"/>
      <point x="150" y="205" type="curve"/>
      <point x="150" y="146"/>
      <point x="150" y="86"/>
      <point x="150" y="27" type="curve"/>
      <point x="150" y="-63"/>
      <point x="195" y="-123"/>
      <point x="282" y="-123" type="curve"/>
      <point x="282" y="-102"/>
      <point x="282" y="-123"/>
    </contour>
    <contour>
      <point x="282" y="800" type="curve"/>
      <point x="194" y="800"/>
      <point x="149" y="740"/>
      <point x="149" y="650" type="curve"/>
      <point x="149" y="590"/>
      <point x="149" y="530"/>
      <point x="149" y="470" type="curve"/>
      <point x="149" y="397"/>
      <point x="111" y="350"/>
      <point x="40" y="350" type="curve"/>
      <point x="40" y="328"/>
      <point x="40" y="350"/>
      <point x="40" y="328" type="curve"/>
      <point x="125" y="328"/>
      <point x="171" y="385"/>
      <point x="171" y="473" type="curve"/>
      <point x="171" y="532"/>
      <point x="171" y="591"/>
      <point x="171" y="650" type="curve"/>
      <point x="171" y="726"/>
      <point x="207" y="779"/>
      <point x="282" y="779" type="curve"/>
      <point x="282" y="800"/>
      <point x="282" y="779"/>
    </contour>
  </outline>
</glyph>
<glyph name="exclamdown" format="1">
  <advance width="221"/>
  <unicode hex="00A1"/>
  <outline>
    <contour>
      <point x="98" y="307" type="line"/>
      <point x="94" y="-186" type="line"/>
      <point x="126" y="-186" type="line"/>
      <point x="122" y="307" type="line"/>
    </contour>
    <contour>
      <point x="91" y="524" type="curve"/>
      <point x="91" y="513"/>
      <point x="99" y="507"/>
      <point x="110" y="507" type="curve"/>
      <point x="121" y="507"/>
      <point x="128" y="514"/>
      <point x="128" y="524" type="curve"/>
      <point x="104" y="524"/>
      <point x="115" y="524"/>
      <point x="91" y="524" type="curve"/>
      <point x="91" y="535"/>
      <point x="99" y="542"/>
      <point x="110" y="542" type="curve"/>
      <point x="121" y="542"/>
      <point x="128" y="535"/>
      <point x="128" y="524" type="curve"/>
      <point x="104" y="524"/>
      <point x="115" y="524"/>
    </contour>
  </outline>
</glyph>
<glyph name="sterling" format="1">
  <advance width="538"/>
  <unicode hex="00A3"/>
  <outline>
    <contour>
      <point x="468" y="22" type="curve"/>
      <point x="326" y="22"/>
      <point x="187" y="22"/>
      <point x="47" y="22" type="curve"/>
      <point x="47" y="1"/>
      <point x="47" y="22"/>
      <point x="47" y="1" type="curve"/>
      <point x="187" y="1"/>
      <point x="327" y="1"/>
      <point x="468" y="1" type="curve"/>
      <point x="468" y="22"/>
      <point x="468" y="1"/>
    </contour>
    <contour>
      <point x="418" y="388" type="curve"/>
      <point x="307" y="388"/>
      <point x="195" y="388"/>
      <point x="84" y="388" type="curve"/>
      <point x="84" y="367"/>
      <point x="84" y="388"/>
      <point x="84" y="367" type="curve"/>
      <point x="195" y="367"/>
      <point x="307" y="367"/>
      <point x="418" y="367" type="curve"/>
      <point x="418" y="388"/>
      <point x="418" y="367"/>
    </contour>
    <contour>
      <point x="479" y="675" type="curve"/>
      <point x="432" y="707"/>
      <point x="395" y="724"/>
      <point x="338" y="724" type="curve"/>
      <point x="181" y="724"/>
      <point x="142" y="564"/>
      <point x="182" y="375" type="curve"/>
      <point x="222" y="188"/>
      <point x="198" y="22"/>
      <point x="47" y="22" type="curve"/>
      <point x="47" y="1"/>
      <point x="47" y="22"/>
      <point x="47" y="1" type="curve"/>
      <point x="221" y="1"/>
      <point x="248" y="177"/>
      <point x="206" y="379" type="curve"/>
      <point x="170" y="551"/>
      <point x="205" y="702"/>
      <point x="337" y="702" type="curve"/>
      <point x="389" y="702"/>
      <point x="424" y="688"/>
      <point x="466" y="659" type="curve"/>
      <point x="479" y="675"/>
      <point x="466" y="659"/>
    </contour>
  </outline>
</glyph>
<glyph name="guillemotleft" format="1">
  <advance width="656"/>
  <unicode hex="00AB"/>
  <outline>
    <contour>
      <point x="321" y="398" type="curve"/>
      <point x="77" y="288" type="line"/>
      <point x="77" y="265"/>
      <point x="77" y="288"/>
      <point x="77" y="265" type="curve"/>
      <point x="321" y="375" type="line"/>
      <point x="321" y="398"/>
      <point x="321" y="375"/>
    </contour>
    <contour>
      <point x="322" y="178" type="curve"/>
      <point x="77" y="288" type="line"/>
      <point x="77" y="265"/>
      <point x="77" y="288"/>
      <point x="77" y="265" type="curve"/>
      <point x="322" y="155" type="line"/>
      <point x="322" y="178"/>
      <point x="322" y="155"/>
    </contour>
    <contour>
      <point x="558" y="398" type="curve"/>
      <point x="314" y="288" type="line"/>
      <point x="314" y="265"/>
      <point x="314" y="288"/>
      <point x="314" y="265" type="curve"/>
      <point x="558" y="375" type="line"/>
      <point x="558" y="398"/>
      <point x="558" y="375"/>
    </contour>
    <contour>
      <point x="558" y="178" type="curve"/>
      <point x="314" y="288" type="line"/>
      <point x="314" y="265"/>
      <point x="314" y="288"/>
      <point x="314" y="265" type="curve"/>
      <point x="558" y="155" type="line"/>
      <point x="558" y="178"/>
      <point x="558" y="155"/>
    </contour>
  </outline>
</glyph>
<glyph name="logicalnot" format="1">
  <advance width="738"/>
  <unicode hex="00AC"/>
  <outline>
    <contour>
      <point x="113" y="297" type="curve"/>
      <point x="647" y="297" type="line"/>
      <point x="647" y="321"/>
      <point x="647" y="297"/>
      <point x="647" y="321" type="curve"/>
      <point x="113" y="321" type="line"/>
      <point x="113" y="297"/>
      <point x="113" y="321"/>
    </contour>
    <contour>
      <point x="647" y="153" type="curve"/>
      <point x="647" y="321" type="line"/>
      <point x="623" y="321"/>
      <point x="647" y="321"/>
      <point x="623" y="321" type="curve"/>
      <point x="623" y="153" type="line"/>
      <point x="647" y="153"/>
      <point x="623" y="153"/>
    </contour>
  </outline>
</glyph>
<glyph name="periodcentered" format="1">
  <advance width="213"/>
  <unicode hex="00B7"/>
  <outline>
    <contour>
      <point x="125" y="440" type="curve"/>
      <point x="125" y="451"/>
      <point x="117" y="458"/>
      <point x="106" y="458" type="curve"/>
      <point x="95" y="458"/>
      <point x="88" y="451"/>
      <point x="88" y="440" type="curve"/>
      <point x="112" y="440"/>
      <point x="101" y="440"/>
      <point x="125" y="440" type="curve"/>
      <point x="125" y="429"/>
      <point x="117" y="422"/>
      <point x="106" y="422" type="curve"/>
      <point x="95" y="422"/>
      <point x="88" y="429"/>
      <point x="88" y="440" type="curve"/>
      <point x="112" y="440"/>
      <point x="101" y="440"/>
    </contour>
  </outline>
</glyph>
<glyph name="onequarter" format="1">
  <advance width="1001"/>
  <unicode hex="00BC"/>
  <outline>
    <contour>
      <point x="314" y="-93" type="line"/>
      <point x="759" y="757" type="line"/>
      <point x="731" y="757" type="line"/>
      <point x="287" y="-93" type="line"/>
    </contour>
    <contour>
      <point x="184" y="354" type="curve"/>
      <point x="223" y="354"/>
      <point x="248" y="354"/>
      <point x="287" y="354" type="curve"/>
      <point x="287" y="376"/>
      <point x="287" y="354"/>
      <point x="287" y="376" type="curve"/>
      <point x="255" y="376"/>
      <point x="238" y="376"/>
      <point x="207" y="376" type="curve"/>
      <point x="184" y="354"/>
      <point x="207" y="376"/>
    </contour>
    <contour>
      <point x="208" y="376" type="curve"/>
      <point x="168" y="376"/>
      <point x="141" y="376"/>
      <point x="101" y="376" type="curve"/>
      <point x="101" y="354"/>
      <point x="101" y="376"/>
      <point x="101" y="354" type="curve"/>
      <point x="133" y="354"/>
      <point x="152" y="354"/>
      <point x="185" y="354" type="curve"/>
      <point x="208" y="376"/>
      <point x="185" y="354"/>
    </contour>
    <contour>
      <point x="60" y="634" type="line"/>
      <point x="207" y="752" type="line"/>
      <point x="185" y="761" type="line"/>
      <point x="46" y="651" type="line"/>
    </contour>
    <contour>
      <point x="208" y="376" type="curve"/>
      <point x="208" y="761" type="line"/>
      <point x="185" y="761" type="line"/>
      <point x="185" y="354" type="line"/>
      <point x="208" y="376"/>
      <point x="185" y="354"/>
    </contour>
    <contour>
      <point x="977" y="38" type="line"/>
      <point x="594" y="38" type="line"/>
      <point x="594" y="18" type="line"/>
      <point x="977" y="18" type="line"/>
    </contour>
    <contour>
      <point x="608" y="19" type="line"/>
      <point x="865" y="324" type="line"/>
      <point x="842" y="333" type="line"/>
      <point x="594" y="38" type="line"/>
    </contour>
    <contour>
      <point x="865" y="-100" type="line"/>
      <point x="865" y="333" type="line"/>
      <point x="842" y="333" type="line"/>
      <point x="842" y="-100" type="line"/>
    </contour>
    <contour>
      <point x="853" y="-79" type="line"/>
      <point x="754" y="-79" type="line"/>
      <point x="754" y="-100" type="line"/>
      <point x="853" y="-100" type="line"/>
    </contour>
    <contour>
      <point x="853" y="-100" type="line"/>
      <point x="948" y="-100" type="line"/>
      <point x="948" y="-79" type="line"/>
      <point x="853" y="-79" type="line"/>
    </contour>
  </outline>
</glyph>
<glyph name="onehalf" format="1">
  <advance width="1054"/>
  <unicode hex="00BD"/>
  <outline>
    <contour>
      <point x="316" y="-93" type="line"/>
      <point x="761" y="757" type="line"/>
      <point x="734" y="757" type="line"/>
      <point x="289" y="-93" type="line"/>
    </contour>
    <contour>
      <point x="181" y="354" type="curve"/>
      <point x="220" y="354"/>
      <point x="245" y="354"/>
      <point x="284" y="354" type="curve"/>
      <point x="284" y="376"/>
      <point x="284" y="354"/>
      <point x="284" y="376" type="curve"/>
      <point x="252" y="376"/>
      <point x="235" y="376"/>
      <point x="204" y="376" type="curve"/>
      <point x="181" y="354"/>
      <point x="204" y="376"/>
    </contour>
    <contour>
      <point x="205" y="376" type="curve"/>
      <point x="165" y="376"/>
      <point x="138" y="376"/>
      <point x="98" y="376" type="curve"/>
      <point x="98" y="354"/>
      <point x="98" y="376"/>
      <point x="98" y="354" type="curve"/>
      <point x="130" y="354"/>
      <point x="149" y="354"/>
      <point x="182" y="354" type="curve"/>
      <point x="205" y="376"/>
      <point x="182" y="354"/>
    </contour>
    <contour>
      <point x="57" y="634" type="line"/>
      <point x="204" y="752" type="line"/>
      <point x="182" y="761" type="line"/>
      <point x="43" y="651" type="line"/>
    </contour>
    <contour>
      <point x="205" y="376" type="curve"/>
      <point x="205" y="761" type="line"/>
      <point x="182" y="761" type="line"/>
      <point x="182" y="354" type="line"/>
      <point x="205" y="376"/>
      <point x="182" y="354"/>
    </contour>
    <contour>
      <point x="1010" y="-95" type="curve"/>
      <point x="1010" y="-60"/>
      <point x="1010" y="-39"/>
      <point x="1010" y="-4" type="curve"/>
      <point x="988" y="-4"/>
      <point x="1010" y="-4"/>
      <point x="988" y="-4" type="curve"/>
      <point x="988" y="-32"/>
      <point x="988" y="-46"/>
      <point x="988" y="-74" type="curve"/>
      <point x="1010" y="-95"/>
      <point x="988" y="-74"/>
    </contour>
    <contour>
      <point x="681" y="-95" type="curve"/>
      <point x="795" y="-95"/>
      <point x="902" y="-95"/>
      <point x="1010" y="-95" type="curve"/>
      <point x="988" y="-74"/>
      <point x="1010" y="-95"/>
      <point x="988" y="-74" type="curve"/>
      <point x="886" y="-74"/>
      <point x="784" y="-74"/>
      <point x="681" y="-74" type="curve"/>
      <point x="681" y="-95"/>
      <point x="681" y="-74"/>
    </contour>
    <contour>
      <point x="730" y="223" type="curve"/>
      <point x="760" y="270"/>
      <point x="796" y="298"/>
      <point x="855" y="298" type="curve"/>
      <point x="922" y="298"/>
      <point x="966" y="264"/>
      <point x="966" y="200" type="curve"/>
      <point x="966" y="143"/>
      <point x="928" y="117"/>
      <point x="885" y="80" type="curve"/>
      <point x="817" y="29"/>
      <point x="748" y="-23"/>
      <point x="681" y="-74" type="curve"/>
      <point x="691" y="-95"/>
      <point x="681" y="-74"/>
      <point x="691" y="-95" type="curve"/>
      <point x="761" y="-42"/>
      <point x="831" y="10"/>
      <point x="900" y="63" type="curve"/>
      <point x="948" y="105"/>
      <point x="989" y="136"/>
      <point x="989" y="201" type="curve"/>
      <point x="989" y="277"/>
      <point x="935" y="319"/>
      <point x="856" y="319" type="curve"/>
      <point x="789" y="319"/>
      <point x="743" y="292"/>
      <point x="712" y="233" type="curve"/>
      <point x="730" y="223"/>
      <point x="712" y="233"/>
    </contour>
  </outline>
</glyph>
<glyph name="threequarters" format="1">
  <advance width="1002"/>
  <unicode hex="00BE"/>
  <outline>
    <contour>
      <point x="315" y="-93" type="line"/>
      <point x="760" y="757" type="line"/>
      <point x="732" y="757" type="line"/>
      <point x="288" y="-93" type="line"/>
    </contour>
    <contour>
      <point x="72" y="693" type="curve"/>
      <point x="101" y="719"/>
      <point x="134" y="738"/>
      <point x="175" y="738" type="curve"/>
      <point x="241" y="738"/>
      <point x="289" y="715"/>
      <point x="289" y="652" type="curve"/>
      <point x="289" y="581"/>
      <point x="210" y="569"/>
      <point x="129" y="563" type="curve"/>
      <point x="129" y="545"/>
      <point x="129" y="563"/>
      <point x="129" y="545" type="curve"/>
      <point x="227" y="547"/>
      <point x="313" y="567"/>
      <point x="313" y="654" type="curve"/>
      <point x="313" y="728"/>
      <point x="256" y="759"/>
      <point x="178" y="759" type="curve"/>
      <point x="130" y="759"/>
      <point x="87" y="738"/>
      <point x="57" y="706" type="curve"/>
      <point x="72" y="693"/>
      <point x="57" y="706"/>
    </contour>
    <contour>
      <point x="50" y="373" type="curve"/>
      <point x="87" y="351"/>
      <point x="125" y="340"/>
      <point x="167" y="340" type="curve"/>
      <point x="260" y="337"/>
      <point x="331" y="368"/>
      <point x="329" y="452" type="curve"/>
      <point x="329" y="546"/>
      <point x="234" y="554"/>
      <point x="129" y="556" type="curve"/>
      <point x="129" y="541"/>
      <point x="129" y="556"/>
      <point x="129" y="541" type="curve"/>
      <point x="224" y="536"/>
      <point x="305" y="527"/>
      <point x="305" y="451" type="curve"/>
      <point x="305" y="382"/>
      <point x="247" y="359"/>
      <point x="170" y="361" type="curve"/>
      <point x="131" y="361"/>
      <point x="96" y="370"/>
      <point x="62" y="389" type="curve"/>
      <point x="50" y="373"/>
      <point x="62" y="389"/>
    </contour>
    <contour>
      <point x="978" y="38" type="line"/>
      <point x="595" y="38" type="line"/>
      <point x="595" y="18" type="line"/>
      <point x="978" y="18" type="line"/>
    </contour>
    <contour>
      <point x="609" y="19" type="line"/>
      <point x="866" y="324" type="line"/>
      <point x="843" y="333" type="line"/>
      <point x="595" y="38" type="line"/>
    </contour>
    <contour>
      <point x="866" y="-100" type="line"/>
      <point x="866" y="333" type="line"/>
      <point x="843" y="333" type="line"/>
      <point x="843" y="-100" type="line"/>
    </contour>
    <contour>
      <point x="854" y="-79" type="line"/>
      <point x="755" y="-79" type="line"/>
      <point x="755" y="-100" type="line"/>
      <point x="854" y="-100" type="line"/>
    </contour>
    <contour>
      <point x="854" y="-100" type="line"/>
      <point x="949" y="-100" type="line"/>
      <point x="949" y="-79" type="line"/>
      <point x="854" y="-79" type="line"/>
    </contour>
  </outline>
</glyph>
<glyph name="questiondown" format="1">
  <advance width="496"/>
  <unicode hex="00BF"/>
  <outline>
    <contour>
      <point x="294" y="374" type="curve"/>
      <point x="294" y="411"/>
      <point x="294" y="449"/>
      <point x="294" y="486" type="curve"/>
      <point x="269" y="486"/>
      <point x="294" y="486"/>
      <point x="269" y="486" type="curve"/>
      <point x="269" y="449"/>
      <point x="269" y="411"/>
      <point x="269" y="374" type="curve"/>
      <point x="294" y="374"/>
      <point x="269" y="374"/>
    </contour>
    <contour>
      <point x="414" y="82" type="line"/>
      <point x="382" y="48"/>
      <point x="333" y="20"/>
      <point x="271" y="20" type="curve"/>
      <point x="163" y="20"/>
      <point x="91" y="82"/>
      <point x="91" y="189" type="curve"/>
      <point x="91" y="306"/>
      <point x="171" y="374"/>
      <point x="291" y="374" type="curve"/>
      <point x="291" y="389"/>
      <point x="291" y="382"/>
      <point x="291" y="397" type="curve"/>
      <point x="157" y="397"/>
      <point x="67" y="319"/>
      <point x="67" y="189" type="curve"/>
      <point x="67" y="70"/>
      <point x="149" y="-2"/>
      <point x="269" y="-2" type="curve"/>
      <point x="341" y="-2"/>
      <point x="393" y="28"/>
      <point x="430" y="67" type="curve"/>
    </contour>
    <contour>
      <point x="266" y="697" type="curve"/>
      <point x="266" y="687"/>
      <point x="272" y="681"/>
      <point x="282" y="681" type="curve"/>
      <point x="292" y="681"/>
      <point x="297" y="688"/>
      <point x="297" y="697" type="curve"/>
      <point x="266" y="697"/>
      <point x="297" y="697"/>
      <point x="266" y="697" type="curve"/>
      <point x="266" y="706"/>
      <point x="272" y="711"/>
      <point x="282" y="711" type="curve"/>
      <point x="292" y="711"/>
      <point x="297" y="706"/>
      <point x="297" y="697" type="curve"/>
      <point x="266" y="697"/>
      <point x="297" y="697"/>
    </contour>
  </outline>
</glyph>
<glyph name="Igrave" format="1">
  <advance width="378"/>
  <unicode hex="00CC"/>
  <outline>
    <contour>
      <point x="195" y="722" type="curve"/>
      <point x="144" y="722"/>
      <point x="103" y="722"/>
      <point x="53" y="722" type="curve"/>
      <point x="53" y="700"/>
      <point x="53" y="722"/>
      <point x="53" y="700" type="curve"/>
      <point x="204" y="700"/>
      <point x="43" y="700"/>
      <point x="195" y="700" type="curve"/>
      <point x="195" y="722"/>
      <point x="195" y="700"/>
    </contour>
    <contour>
      <point x="195" y="700" type="curve"/>
      <point x="347" y="700"/>
      <point x="186" y="700"/>
      <point x="338" y="700" type="curve"/>
      <point x="338" y="722"/>
      <point x="338" y="700"/>
      <point x="338" y="722" type="curve"/>
      <point x="286" y="722"/>
      <point x="245" y="722"/>
      <point x="195" y="722" type="curve"/>
      <point x="195" y="700"/>
      <point x="195" y="722"/>
    </contour>
    <contour>
      <point x="195" y="0" type="curve"/>
      <point x="245" y="0"/>
      <point x="286" y="0"/>
      <point x="338" y="0" type="curve"/>
      <point x="338" y="22"/>
      <point x="338" y="0"/>
      <point x="338" y="22" type="curve"/>
      <point x="186" y="22"/>
      <point x="347" y="22"/>
      <point x="195" y="22" type="curve"/>
      <point x="195" y="0"/>
      <point x="195" y="22"/>
    </contour>
    <contour>
      <point x="195" y="22" type="curve"/>
      <point x="43" y="22"/>
      <point x="204" y="22"/>
      <point x="53" y="22" type="curve"/>
      <point x="53" y="0"/>
      <point x="53" y="22"/>
      <point x="53" y="0" type="curve"/>
      <point x="103" y="0"/>
      <point x="144" y="0"/>
      <point x="195" y="0" type="curve"/>
      <point x="195" y="22"/>
      <point x="195" y="0"/>
    </contour>
    <contour>
      <point x="206" y="0" type="curve"/>
      <point x="206" y="241"/>
      <point x="206" y="481"/>
      <point x="206" y="722" type="curve"/>
      <point x="182" y="722"/>
      <point x="206" y="722"/>
      <point x="182" y="722" type="curve"/>
      <point x="182" y="481"/>
      <point x="182" y="241"/>
      <point x="182" y="0" type="curve"/>
      <point x="206" y="0"/>
      <point x="182" y="0"/>
    </contour>
    <contour>
      <point x="211" y="825" type="line"/>
      <point x="80" y="991" type="line"/>
      <point x="45" y="991" type="line"/>
      <point x="184" y="825" type="line"/>
    </contour>
  </outline>
</glyph>
<glyph name="Idieresis" format="1">
  <advance width="366"/>
  <unicode hex="00CF"/>
  <outline>
    <contour>
      <point x="183" y="722" type="curve"/>
      <point x="132" y="722"/>
      <point x="91" y="722"/>
      <point x="41" y="722" type="curve"/>
      <point x="41" y="700"/>
      <point x="41" y="722"/>
      <point x="41" y="700" type="curve"/>
      <point x="193" y="700"/>
      <point x="32" y="700"/>
      <point x="183" y="700" type="curve"/>
      <point x="183" y="722"/>
      <point x="183" y="700"/>
    </contour>
    <contour>
      <point x="183" y="700" type="curve"/>
      <point x="335" y="700"/>
      <point x="174" y="700"/>
      <point x="326" y="700" type="curve"/>
      <point x="326" y="722"/>
      <point x="326" y="700"/>
      <point x="326" y="722" type="curve"/>
      <point x="275" y="722"/>
      <point x="234" y="722"/>
      <point x="183" y="722" type="curve"/>
      <point x="183" y="700"/>
      <point x="183" y="722"/>
    </contour>
    <contour>
      <point x="183" y="0" type="curve"/>
      <point x="234" y="0"/>
      <point x="275" y="0"/>
      <point x="326" y="0" type="curve"/>
      <point x="326" y="22"/>
      <point x="326" y="0"/>
      <point x="326" y="22" type="curve"/>
      <point x="174" y="22"/>
      <point x="335" y="22"/>
      <point x="183" y="22" type="curve"/>
      <point x="183" y="0"/>
      <point x="183" y="22"/>
    </contour>
    <contour>
      <point x="183" y="22" type="curve"/>
      <point x="32" y="22"/>
      <point x="193" y="22"/>
      <point x="41" y="22" type="curve"/>
      <point x="41" y="0"/>
      <point x="41" y="22"/>
      <point x="41" y="0" type="curve"/>
      <point x="91" y="0"/>
      <point x="132" y="0"/>
      <point x="183" y="0" type="curve"/>
      <point x="183" y="22"/>
      <point x="183" y="0"/>
    </contour>
    <contour>
      <point x="194" y="0" type="curve"/>
      <point x="194" y="241"/>
      <point x="194" y="481"/>
      <point x="194" y="722" type="curve"/>
      <point x="170" y="722"/>
      <point x="194" y="722"/>
      <point x="170" y="722" type="curve"/>
      <point x="170" y="481"/>
      <point x="170" y="241"/>
      <point x="170" y="0" type="curve"/>
      <point x="194" y="0"/>
      <point x="170" y="0"/>
    </contour>
    <contour>
      <point x="138" y="841" type="curve"/>
      <point x="138" y="852"/>
      <point x="131" y="859"/>
      <point x="119" y="859" type="curve"/>
      <point x="108" y="859"/>
      <point x="101" y="852"/>
      <point x="101" y="841" type="curve"/>
      <point x="125" y="841"/>
      <point x="114" y="841"/>
      <point x="138" y="841" type="curve"/>
      <point x="138" y="830"/>
      <point x="131" y="824"/>
      <point x="119" y="824" type="curve"/>
      <point x="108" y="824"/>
      <point x="101" y="830"/>
      <point x="101" y="841" type="curve"/>
      <point x="125" y="841"/>
      <point x="114" y="841"/>
    </contour>
    <contour>
      <point x="263" y="841" type="curve"/>
      <point x="263" y="852"/>
      <point x="256" y="859"/>
      <point x="244" y="859" type="curve"/>
      <point x="233" y="859"/>
      <point x="227" y="852"/>
      <point x="227" y="841" type="curve"/>
      <point x="251" y="841"/>
      <point x="240" y="841"/>
      <point x="263" y="841" type="curve"/>
      <point x="263" y="830"/>
      <point x="256" y="824"/>
      <point x="244" y="824" type="curve"/>
      <point x="233" y="824"/>
      <point x="227" y="830"/>
      <point x="227" y="841" type="curve"/>
      <point x="251" y="841"/>
      <point x="240" y="841"/>
    </contour>
  </outline>
</glyph>
<glyph name="Ntilde" format="1">
  <advance width="915"/>
  <unicode hex="00D1"/>
  <outline>
    <contour>
      <point x="185" y="722" type="curve"/>
      <point x="134" y="722"/>
      <point x="93" y="722"/>
      <point x="43" y="722" type="curve"/>
      <point x="43" y="700"/>
      <point x="43" y="722"/>
      <point x="43" y="700" type="curve"/>
      <point x="194" y="700"/>
      <point x="33" y="700"/>
      <point x="185" y="700" type="curve"/>
      <point x="185" y="722"/>
      <point x="185" y="700"/>
    </contour>
    <contour>
      <point x="749" y="700" type="curve"/>
      <point x="900" y="700"/>
      <point x="739" y="700"/>
      <point x="891" y="700" type="curve"/>
      <point x="891" y="722"/>
      <point x="891" y="700"/>
      <point x="891" y="722" type="curve"/>
      <point x="841" y="722"/>
      <point x="799" y="722"/>
      <point x="749" y="722" type="curve"/>
      <point x="749" y="700"/>
      <point x="749" y="722"/>
    </contour>
    <contour>
      <point x="749" y="722" type="curve"/>
      <point x="698" y="722"/>
      <point x="657" y="722"/>
      <point x="607" y="722" type="curve"/>
      <point x="607" y="700"/>
      <point x="607" y="722"/>
      <point x="607" y="700" type="curve"/>
      <point x="758" y="700"/>
      <point x="597" y="700"/>
      <point x="749" y="700" type="curve"/>
      <point x="749" y="722"/>
      <point x="749" y="700"/>
    </contour>
    <contour>
      <point x="184" y="22" type="curve"/>
      <point x="32" y="22"/>
      <point x="193" y="22"/>
      <point x="42" y="22" type="curve"/>
      <point x="41" y="0"/>
      <point x="42" y="22"/>
      <point x="41" y="0" type="curve"/>
      <point x="92" y="0"/>
      <point x="133" y="0"/>
      <point x="184" y="0" type="curve"/>
      <point x="184" y="22"/>
      <point x="184" y="0"/>
    </contour>
    <contour>
      <point x="184" y="0" type="curve"/>
      <point x="234" y="0"/>
      <point x="174" y="0"/>
      <point x="326" y="0" type="curve"/>
      <point x="326" y="22"/>
      <point x="326" y="0"/>
      <point x="326" y="22" type="curve"/>
      <point x="174" y="22"/>
      <point x="335" y="22"/>
      <point x="184" y="22" type="curve"/>
      <point x="184" y="0"/>
      <point x="184" y="22"/>
    </contour>
    <contour>
      <point x="759" y="0" type="curve"/>
      <point x="573" y="241"/>
      <point x="386" y="481"/>
      <point x="200" y="722" type="curve"/>
      <point x="171" y="722"/>
      <point x="199" y="722"/>
      <point x="169" y="722" type="curve"/>
      <point x="356" y="481"/>
      <point x="542" y="241"/>
      <point x="729" y="0" type="curve"/>
      <point x="758" y="0"/>
      <point x="730" y="0"/>
    </contour>
    <contour>
      <point x="735" y="722" type="curve"/>
      <point x="735" y="481"/>
      <point x="735" y="241"/>
      <point x="735" y="0" type="curve"/>
      <point x="760" y="0"/>
      <point x="735" y="0"/>
      <point x="760" y="0" type="curve"/>
      <point x="760" y="241"/>
      <point x="760" y="481"/>
      <point x="760" y="722" type="curve"/>
      <point x="735" y="722"/>
      <point x="760" y="722"/>
    </contour>
    <contour>
      <point x="196" y="0" type="curve"/>
      <point x="196" y="241"/>
      <point x="196" y="481"/>
      <point x="196" y="722" type="curve"/>
      <point x="171" y="722"/>
      <point x="196" y="722"/>
      <point x="171" y="722" type="curve"/>
      <point x="171" y="481"/>
      <point x="171" y="241"/>
      <point x="171" y="0" type="curve"/>
      <point x="196" y="0"/>
      <point x="171" y="0"/>
    </contour>
    <contour>
      <point x="642" y="948" type="curve"/>
      <point x="628" y="895"/>
      <point x="612" y="845"/>
      <point x="565" y="845" type="curve"/>
      <point x="525" y="845"/>
      <point x="501" y="864"/>
      <point x="473" y="894" type="curve"/>
      <point x="443" y="927"/>
      <point x="419" y="949"/>
      <point x="375" y="949" type="curve"/>
      <point x="309" y="949"/>
      <point x="283" y="899"/>
      <point x="269" y="830" type="curve"/>
      <point x="289" y="824"/>
      <point x="269" y="830"/>
      <point x="289" y="824" type="curve"/>
      <point x="302" y="883"/>
      <point x="322" y="928"/>
      <point x="375" y="928" type="curve"/>
      <point x="412" y="928"/>
      <point x="431" y="908"/>
      <point x="456" y="880" type="curve"/>
      <point x="488" y="846"/>
      <point x="516" y="824"/>
      <point x="563" y="824" type="curve"/>
      <point x="627" y="824"/>
      <point x="645" y="880"/>
      <point x="662" y="944" type="curve"/>
      <point x="642" y="948"/>
      <point x="662" y="944"/>
    </contour>
  </outline>
</glyph>
<glyph name="Odieresis" format="1">
  <advance width="766"/>
  <unicode hex="00D6"/>
  <outline>
    <contour>
      <point x="93" y="360" type="curve"/>
      <point x="93" y="560"/>
      <point x="189" y="705"/>
      <point x="381" y="705" type="curve"/>
      <point x="574" y="705"/>
      <point x="672" y="562"/>
      <point x="672" y="363" type="curve"/>
      <point x="672" y="164"/>
      <point x="577" y="18"/>
      <point x="384" y="18" type="curve"/>
      <point x="190" y="18"/>
      <point x="93" y="160"/>
      <point x="93" y="360" type="curve"/>
      <point x="69" y="360"/>
      <point x="93" y="360"/>
      <point x="69" y="360" type="curve"/>
      <point x="69" y="145"/>
      <point x="176" y="-5"/>
      <point x="383" y="-5" type="curve"/>
      <point x="590" y="-5"/>
      <point x="697" y="147"/>
      <point x="697" y="363" type="curve"/>
      <point x="697" y="577"/>
      <point x="590" y="727"/>
      <point x="383" y="727" type="curve"/>
      <point x="175" y="727"/>
      <point x="69" y="575"/>
      <point x="69" y="360" type="curve"/>
      <point x="93" y="360"/>
      <point x="69" y="360"/>
    </contour>
    <contour>
      <point x="337" y="841" type="curve"/>
      <point x="337" y="852"/>
      <point x="329" y="859"/>
      <point x="318" y="859" type="curve"/>
      <point x="307" y="859"/>
      <point x="300" y="852"/>
      <point x="300" y="841" type="curve"/>
      <point x="324" y="841"/>
      <point x="313" y="841"/>
      <point x="337" y="841" type="curve"/>
      <point x="337" y="830"/>
      <point x="329" y="824"/>
      <point x="318" y="824" type="curve"/>
      <point x="307" y="824"/>
      <point x="300" y="830"/>
      <point x="300" y="841" type="curve"/>
      <point x="324" y="841"/>
      <point x="313" y="841"/>
    </contour>
    <contour>
      <point x="462" y="841" type="curve"/>
      <point x="462" y="852"/>
      <point x="454" y="859"/>
      <point x="443" y="859" type="curve"/>
      <point x="432" y="859"/>
      <point x="425" y="852"/>
      <point x="425" y="841" type="curve"/>
      <point x="449" y="841"/>
      <point x="438" y="841"/>
      <point x="462" y="841" type="curve"/>
      <point x="462" y="830"/>
      <point x="454" y="824"/>
      <point x="443" y="824" type="curve"/>
      <point x="432" y="824"/>
      <point x="425" y="830"/>
      <point x="425" y="841" type="curve"/>
      <point x="449" y="841"/>
      <point x="438" y="841"/>
    </contour>
  </outline>
</glyph>
<glyph name="multiply" format="1">
  <advance width="547"/>
  <unicode hex="00D7"/>
  <outline>
    <contour>
      <point x="98" y="117" type="line"/>
      <point x="463" y="482" type="line"/>
      <point x="446" y="499" type="line"/>
      <point x="81" y="134" type="line"/>
    </contour>
    <contour>
      <point x="466" y="132" type="line"/>
      <point x="99" y="501" type="line"/>
      <point x="82" y="484" type="line"/>
      <point x="449" y="115" type="line"/>
    </contour>
  </outline>
</glyph>
<glyph name="Oslash" format="1">
  <advance width="766"/>
  <unicode hex="00D8"/>
  <outline>
    <contour>
      <point x="175" y="-74" type="line"/>
      <point x="616" y="768" type="line"/>
      <point x="595" y="778" type="line"/>
      <point x="154" y="-63" type="line"/>
    </contour>
    <contour>
      <point x="93" y="360" type="curve"/>
      <point x="93" y="560"/>
      <point x="189" y="705"/>
      <point x="381" y="705" type="curve"/>
      <point x="574" y="705"/>
      <point x="672" y="562"/>
      <point x="672" y="363" type="curve"/>
      <point x="672" y="164"/>
      <point x="577" y="18"/>
      <point x="384" y="18" type="curve"/>
      <point x="190" y="18"/>
      <point x="93" y="160"/>
      <point x="93" y="360" type="curve"/>
      <point x="69" y="360"/>
      <point x="93" y="360"/>
      <point x="69" y="360" type="curve"/>
      <point x="69" y="145"/>
      <point x="176" y="-5"/>
      <point x="383" y="-5" type="curve"/>
      <point x="590" y="-5"/>
      <point x="697" y="147"/>
      <point x="697" y="363" type="curve"/>
      <point x="697" y="577"/>
      <point x="590" y="727"/>
      <point x="383" y="727" type="curve"/>
      <point x="175" y="727"/>
      <point x="69" y="575"/>
      <point x="69" y="360" type="curve"/>
      <point x="93" y="360"/>
      <point x="69" y="360"/>
    </contour>
  </outline>
</glyph>
<glyph name="ae" format="1">
  <advance width="922"/>
  <unicode hex="00E6"/>
  <outline>
    <contour>
      <point x="82" y="464" type="curve"/>
      <point x="82" y="344"/>
      <point x="82" y="483"/>
      <point x="82" y="363" type="curve"/>
      <point x="103" y="363"/>
      <point x="82" y="363"/>
      <point x="103" y="363" type="curve"/>
      <point x="103" y="483"/>
      <point x="103" y="344"/>
      <point x="103" y="464" type="curve"/>
      <point x="82" y="464"/>
      <point x="103" y="464"/>
    </contour>
    <contour>
      <point x="454" y="282" type="curve"/>
      <point x="454" y="412"/>
      <point x="454" y="260"/>
      <point x="454" y="390" type="curve"/>
      <point x="454" y="500"/>
      <point x="391" y="538"/>
      <point x="281" y="538" type="curve"/>
      <point x="193" y="538"/>
      <point x="130" y="505"/>
      <point x="82" y="464" type="curve"/>
      <point x="92" y="446"/>
      <point x="86" y="465"/>
      <point x="96" y="447" type="curve"/>
      <point x="141" y="483"/>
      <point x="195" y="516"/>
      <point x="278" y="516" type="curve"/>
      <point x="376" y="516"/>
      <point x="431" y="483"/>
      <point x="431" y="383" type="curve"/>
      <point x="431" y="255"/>
      <point x="431" y="410"/>
      <point x="431" y="282" type="curve"/>
      <point x="455" y="282"/>
      <point x="430" y="282"/>
    </contour>
    <contour>
      <point x="444" y="294" type="curve"/>
      <point x="360" y="294"/>
      <point x="314" y="296"/>
      <point x="229" y="286" type="curve"/>
      <point x="132" y="272"/>
      <point x="65" y="241"/>
      <point x="65" y="145" type="curve"/>
      <point x="65" y="48"/>
      <point x="119" y="-5"/>
      <point x="219" y="-5" type="curve"/>
      <point x="334" y="-5"/>
      <point x="402" y="55"/>
      <point x="468" y="145" type="curve"/>
      <point x="456" y="157"/>
      <point x="464" y="148"/>
      <point x="452" y="160" type="curve"/>
      <point x="388" y="77"/>
      <point x="326" y="17"/>
      <point x="224" y="17" type="curve"/>
      <point x="138" y="17"/>
      <point x="89" y="61"/>
      <point x="89" y="147" type="curve"/>
      <point x="89" y="222"/>
      <point x="149" y="254"/>
      <point x="230" y="266" type="curve"/>
      <point x="316" y="275"/>
      <point x="362" y="272"/>
      <point x="444" y="272" type="curve"/>
      <point x="443" y="291"/>
      <point x="445" y="275"/>
    </contour>
    <contour>
      <point x="443" y="272" type="curve"/>
      <point x="579" y="272"/>
      <point x="716" y="272"/>
      <point x="852" y="272" type="curve"/>
      <point x="854" y="272"/>
      <point x="852" y="272"/>
      <point x="854" y="272" type="curve"/>
      <point x="854" y="275"/>
      <point x="854" y="272"/>
      <point x="854" y="275" type="curve"/>
      <point x="854" y="284"/>
      <point x="854" y="293"/>
      <point x="854" y="302" type="curve"/>
      <point x="854" y="448"/>
      <point x="787" y="537"/>
      <point x="649" y="537" type="curve"/>
      <point x="500" y="537"/>
      <point x="430" y="438"/>
      <point x="430" y="280" type="curve"/>
      <point x="430" y="106"/>
      <point x="508" y="-6"/>
      <point x="672" y="-6" type="curve"/>
      <point x="748" y="-6"/>
      <point x="797" y="21"/>
      <point x="853" y="74" type="curve"/>
      <point x="837" y="89"/>
      <point x="853" y="74"/>
      <point x="837" y="89" type="curve"/>
      <point x="786" y="42"/>
      <point x="740" y="16"/>
      <point x="672" y="16" type="curve"/>
      <point x="525" y="16"/>
      <point x="455" y="120"/>
      <point x="455" y="280" type="curve"/>
      <point x="455" y="423"/>
      <point x="516" y="515"/>
      <point x="647" y="515" type="curve"/>
      <point x="771" y="515"/>
      <point x="831" y="435"/>
      <point x="831" y="304" type="curve"/>
      <point x="831" y="294"/>
      <point x="831" y="285"/>
      <point x="831" y="275" type="curve"/>
      <point x="835" y="278"/>
      <point x="839" y="281"/>
      <point x="842" y="284" type="curve"/>
      <point x="846" y="288"/>
      <point x="849" y="291"/>
      <point x="852" y="294" type="curve"/>
      <point x="716" y="294"/>
      <point x="579" y="294"/>
      <point x="443" y="294" type="curve"/>
      <point x="443" y="272"/>
      <point x="443" y="294"/>
    </contour>
  </outline>
</glyph>
<glyph name="ccedilla" format="1">
  <advance width="547"/>
  <unicode hex="00E7"/>
  <outline>
    <contour>
      <point x="458" y="473" type="curve"/>
      <point x="458" y="353"/>
      <point x="458" y="478"/>
      <point x="458" y="358" type="curve"/>
      <point x="480" y="358"/>
      <point x="458" y="358"/>
      <point x="480" y="358" type="curve"/>
      <point x="480" y="478"/>
      <point x="480" y="353"/>
      <point x="480" y="473" type="curve"/>
      <point x="458" y="473"/>
      <point x="480" y="473"/>
    </contour>
    <contour>
      <point x="480" y="473" type="curve"/>
      <point x="433" y="509"/>
      <point x="374" y="538"/>
      <point x="311" y="538" type="curve"/>
      <point x="149" y="538"/>
      <point x="66" y="437"/>
      <point x="66" y="267" type="curve"/>
      <point x="66" y="97"/>
      <point x="146" y="-5"/>
      <point x="309" y="-5" type="curve"/>
      <point x="380" y="-5"/>
      <point x="446" y="30"/>
      <point x="492" y="85" type="curve"/>
      <point x="474" y="98"/>
      <point x="492" y="85"/>
      <point x="474" y="98" type="curve"/>
      <point x="433" y="52"/>
      <point x="374" y="17"/>
      <point x="310" y="17" type="curve"/>
      <point x="164" y="17"/>
      <point x="90" y="112"/>
      <point x="90" y="267" type="curve"/>
      <point x="90" y="422"/>
      <point x="166" y="516"/>
      <point x="310" y="516" type="curve"/>
      <point x="367" y="516"/>
      <point x="421" y="491"/>
      <point x="466" y="458" type="curve"/>
      <point x="480" y="473"/>
      <point x="466" y="458"/>
    </contour>
    <contour>
      <point x="298" y="11" type="curve"/>
      <point x="282" y="-16"/>
      <point x="267" y="-42"/>
      <point x="251" y="-69" type="curve"/>
      <point x="268" y="-86"/>
      <point x="251" y="-69"/>
      <point x="268" y="-86" type="curve"/>
      <point x="283" y="-58"/>
      <point x="300" y="-31"/>
      <point x="315" y="-3" type="curve"/>
      <point x="298" y="11"/>
      <point x="315" y="-3"/>
    </contour>
    <contour>
      <point x="268" y="-87" type="curve"/>
      <point x="284" y="-77"/>
      <point x="297" y="-74"/>
      <point x="316" y="-74" type="curve"/>
      <point x="351" y="-74"/>
      <point x="371" y="-95"/>
      <point x="371" y="-131" type="curve"/>
      <point x="371" y="-169"/>
      <point x="343" y="-186"/>
      <point x="302" y="-186" type="curve"/>
      <point x="274" y="-186"/>
      <point x="253" y="-183"/>
      <point x="229" y="-169" type="curve"/>
      <point x="220" y="-186"/>
      <point x="229" y="-169"/>
      <point x="220" y="-186" type="curve"/>
      <point x="247" y="-201"/>
      <point x="270" y="-207"/>
      <point x="301" y="-207" type="curve"/>
      <point x="356" y="-207"/>
      <point x="395" y="-183"/>
      <point x="395" y="-131" type="curve"/>
      <point x="395" y="-83"/>
      <point x="365" y="-52"/>
      <point x="318" y="-52" type="curve"/>
      <point x="293" y="-52"/>
      <point x="275" y="-58"/>
      <point x="252" y="-69" type="curve"/>
      <point x="268" y="-87"/>
      <point x="252" y="-69"/>
    </contour>
  </outline>
</glyph>
<glyph name="eacute" format="1">
  <advance width="561"/>
  <unicode hex="00E9"/>
  <outline>
    <contour>
      <point x="82" y="273" type="curve"/>
      <point x="218" y="273"/>
      <point x="355" y="273"/>
      <point x="491" y="273" type="curve"/>
      <point x="493" y="273"/>
      <point x="491" y="273"/>
      <point x="493" y="273" type="curve"/>
      <point x="493" y="276"/>
      <point x="493" y="273"/>
      <point x="493" y="276" type="curve"/>
      <point x="493" y="285"/>
      <point x="493" y="294"/>
      <point x="493" y="303" type="curve"/>
      <point x="493" y="449"/>
      <point x="425" y="538"/>
      <point x="287" y="538" type="curve"/>
      <point x="139" y="538"/>
      <point x="69" y="439"/>
      <point x="69" y="281" type="curve"/>
      <point x="69" y="106"/>
      <point x="147" y="-5"/>
      <point x="311" y="-5" type="curve"/>
      <point x="387" y="-5"/>
      <point x="435" y="21"/>
      <point x="492" y="75" type="curve"/>
      <point x="476" y="90"/>
      <point x="492" y="75"/>
      <point x="476" y="90" type="curve"/>
      <point x="424" y="43"/>
      <point x="378" y="17"/>
      <point x="311" y="17" type="curve"/>
      <point x="164" y="17"/>
      <point x="94" y="121"/>
      <point x="94" y="281" type="curve"/>
      <point x="94" y="424"/>
      <point x="154" y="516"/>
      <point x="285" y="516" type="curve"/>
      <point x="409" y="516"/>
      <point x="470" y="436"/>
      <point x="470" y="305" type="curve"/>
      <point x="470" y="295"/>
      <point x="470" y="286"/>
      <point x="470" y="276" type="curve"/>
      <point x="474" y="279"/>
      <point x="478" y="282"/>
      <point x="481" y="285" type="curve"/>
      <point x="484" y="288"/>
      <point x="487" y="292"/>
      <point x="491" y="295" type="curve"/>
      <point x="355" y="295"/>
      <point x="218" y="295"/>
      <point x="82" y="295" type="curve"/>
      <point x="82" y="273"/>
      <point x="82" y="295"/>
    </contour>
    <contour>
      <point x="300" y="671" type="line"/>
      <point x="439" y="837" type="line"/>
      <point x="403" y="837" type="line"/>
      <point x="272" y="671" type="line"/>
    </contour>
  </outline>
</glyph>
<glyph name="igrave" format="1">
  <advance width="324"/>
  <unicode hex="00EC"/>
  <outline>
    <contour>
      <point x="183" y="22" type="curve"/>
      <point x="36" y="22"/>
      <point x="187" y="22"/>
      <point x="40" y="22" type="curve"/>
      <point x="40" y="0"/>
      <point x="40" y="22"/>
      <point x="40" y="0" type="curve"/>
      <point x="89" y="0"/>
      <point x="134" y="0"/>
      <point x="183" y="0" type="curve"/>
      <point x="183" y="22"/>
      <point x="183" y="0"/>
    </contour>
    <contour>
      <point x="183" y="0" type="curve"/>
      <point x="228" y="0"/>
      <point x="269" y="0"/>
      <point x="315" y="0" type="curve"/>
      <point x="315" y="22"/>
      <point x="315" y="0"/>
      <point x="315" y="22" type="curve"/>
      <point x="178" y="22"/>
      <point x="319" y="22"/>
      <point x="183" y="22" type="curve"/>
      <point x="183" y="0"/>
      <point x="183" y="22"/>
    </contour>
    <contour>
      <point x="183" y="533" type="curve"/>
      <point x="134" y="533"/>
      <point x="89" y="533"/>
      <point x="40" y="533" type="curve"/>
      <point x="40" y="511"/>
      <point x="40" y="533"/>
      <point x="40" y="511" type="curve"/>
      <point x="187" y="511"/>
      <point x="36" y="511"/>
      <point x="183" y="511" type="curve"/>
      <point x="183" y="533"/>
      <point x="183" y="511"/>
    </contour>
    <contour>
      <point x="196" y="0" type="curve"/>
      <point x="196" y="178"/>
      <point x="196" y="355"/>
      <point x="196" y="533" type="curve"/>
      <point x="170" y="533"/>
      <point x="196" y="533"/>
      <point x="170" y="533" type="curve"/>
      <point x="170" y="355"/>
      <point x="170" y="178"/>
      <point x="170" y="0" type="curve"/>
      <point x="196" y="0"/>
      <point x="170" y="0"/>
    </contour>
    <contour>
      <point x="197" y="671" type="line"/>
      <point x="66" y="837" type="line"/>
      <point x="30" y="837" type="line"/>
      <point x="170" y="671" type="line"/>
    </contour>
  </outline>
</glyph>
<glyph name="divide" format="1">
  <advance width="739"/>
  <unicode hex="00F7"/>
  <outline>
    <contour>
      <point x="90" y="297" type="line"/>
      <point x="648" y="297" type="line"/>
      <point x="648" y="321" type="line"/>
      <point x="90" y="321" type="line"/>
    </contour>
    <contour>
      <point x="386" y="504" type="curve"/>
      <point x="386" y="515"/>
      <point x="378" y="521"/>
      <point x="367" y="521" type="curve"/>
      <point x="356" y="521"/>
      <point x="349" y="514"/>
      <point x="349" y="504" type="curve"/>
      <point x="373" y="504"/>
      <point x="362" y="504"/>
      <point x="386" y="504" type="curve"/>
      <point x="386" y="493"/>
      <point x="378" y="486"/>
      <point x="367" y="486" type="curve"/>
      <point x="356" y="486"/>
      <point x="349" y="493"/>
      <point x="349" y="504" type="curve"/>
      <point x="373" y="504"/>
      <point x="362" y="504"/>
    </contour>
    <contour>
      <point x="386" y="96" type="curve"/>
      <point x="386" y="107"/>
      <point x="378" y="114"/>
      <point x="367" y="114" type="curve"/>
      <point x="356" y="114"/>
      <point x="349" y="107"/>
      <point x="349" y="96" type="curve"/>
      <point x="373" y="96"/>
      <point x="362" y="96"/>
      <point x="386" y="96" type="curve"/>
      <point x="386" y="85"/>
      <point x="378" y="79"/>
      <point x="367" y="79" type="curve"/>
      <point x="356" y="79"/>
      <point x="349" y="85"/>
      <point x="349" y="96" type="curve"/>
      <point x="373" y="96"/>
      <point x="362" y="96"/>
    </contour>
  </outline>
</glyph>
<glyph name="ugrave" format="1">
  <advance width="670"/>
  <unicode hex="00F9"/>
  <outline>
    <contour>
      <point x="530" y="533" type="curve"/>
      <point x="481" y="533"/>
      <point x="436" y="533"/>
      <point x="388" y="533" type="curve"/>
      <point x="388" y="511"/>
      <point x="388" y="533"/>
      <point x="388" y="511" type="curve"/>
      <point x="534" y="511"/>
      <point x="383" y="511"/>
      <point x="530" y="511" type="curve"/>
      <point x="530" y="533"/>
      <point x="530" y="511"/>
    </contour>
    <contour>
      <point x="148" y="533" type="curve"/>
      <point x="100" y="533"/>
      <point x="54" y="533"/>
      <point x="6" y="533" type="curve"/>
      <point x="6" y="511"/>
      <point x="6" y="533"/>
      <point x="6" y="511" type="curve"/>
      <point x="152" y="511"/>
      <point x="2" y="511"/>
      <point x="148" y="511" type="curve"/>
      <point x="148" y="533"/>
      <point x="148" y="511"/>
    </contour>
    <contour>
      <point x="530" y="0" type="curve"/>
      <point x="575" y="0"/>
      <point x="616" y="0"/>
      <point x="661" y="0" type="curve"/>
      <point x="661" y="22"/>
      <point x="661" y="0"/>
      <point x="661" y="22" type="curve"/>
      <point x="526" y="22"/>
      <point x="666" y="22"/>
      <point x="530" y="22" type="curve"/>
      <point x="530" y="0"/>
      <point x="530" y="22"/>
    </contour>
    <contour>
      <point x="542" y="0" type="curve"/>
      <point x="542" y="178"/>
      <point x="542" y="355"/>
      <point x="542" y="533" type="curve"/>
      <point x="518" y="533"/>
      <point x="542" y="533"/>
      <point x="518" y="533" type="curve"/>
      <point x="518" y="355"/>
      <point x="518" y="178"/>
      <point x="518" y="0" type="curve"/>
      <point x="542" y="0"/>
      <point x="518" y="0"/>
    </contour>
    <contour>
      <point x="521" y="167" type="curve"/>
      <point x="483" y="88"/>
      <point x="409" y="17"/>
      <point x="328" y="17" type="curve"/>
      <point x="218" y="17"/>
      <point x="160" y="77"/>
      <point x="160" y="187" type="curve"/>
      <point x="160" y="302"/>
      <point x="160" y="418"/>
      <point x="160" y="533" type="curve"/>
      <point x="136" y="533"/>
      <point x="160" y="533"/>
      <point x="136" y="533" type="curve"/>
      <point x="136" y="417"/>
      <point x="136" y="301"/>
      <point x="136" y="185" type="curve"/>
      <point x="136" y="61"/>
      <point x="202" y="-5"/>
      <point x="326" y="-5" type="curve"/>
      <point x="421" y="-5"/>
      <point x="497" y="69"/>
      <point x="537" y="156" type="curve"/>
      <point x="521" y="167"/>
      <point x="538" y="156"/>
    </contour>
    <contour>
      <point x="340" y="671" type="line"/>
      <point x="209" y="837" type="line"/>
      <point x="173" y="837" type="line"/>
      <point x="313" y="671" type="line"/>
    </contour>
  </outline>
</glyph>
<glyph name="udieresis" format="1">
  <advance width="670"/>
  <unicode hex="00FC"/>
  <outline>
    <contour>
      <point x="530" y="533" type="curve"/>
      <point x="481" y="533"/>
      <point x="436" y="533"/>
      <point x="388" y="533" type="curve"/>
      <point x="388" y="511"/>
      <point x="388" y="533"/>
      <point x="388" y="511" type="curve"/>
      <point x="534" y="511"/>
      <point x="383" y="511"/>
      <point x="530" y="511" type="curve"/>
      <point x="530" y="533"/>
      <point x="530" y="511"/>
    </contour>
    <contour>
      <point x="148" y="533" type="curve"/>
      <point x="100" y="533"/>
      <point x="54" y="533"/>
      <point x="6" y="533" type="curve"/>
      <point x="6" y="511"/>
      <point x="6" y="533"/>
      <point x="6" y="511" type="curve"/>
      <point x="152" y="511"/>
      <point x="2" y="511"/>
      <point x="148" y="511" type="curve"/>
      <point x="148" y="533"/>
      <point x="148" y="511"/>
    </contour>
    <contour>
      <point x="530" y="0" type="curve"/>
      <point x="575" y="0"/>
      <point x="616" y="0"/>
      <point x="661" y="0" type="curve"/>
      <point x="661" y="22"/>
      <point x="661" y="0"/>
      <point x="661" y="22" type="curve"/>
      <point x="526" y="22"/>
      <point x="666" y="22"/>
      <point x="530" y="22" type="curve"/>
      <point x="530" y="0"/>
      <point x="530" y="22"/>
    </contour>
    <contour>
      <point x="542" y="0" type="curve"/>
      <point x="542" y="178"/>
      <point x="542" y="355"/>
      <point x="542" y="533" type="curve"/>
      <point x="518" y="533"/>
      <point x="542" y="533"/>
      <point x="518" y="533" type="curve"/>
      <point x="518" y="355"/>
      <point x="518" y="178"/>
      <point x="518" y="0" type="curve"/>
      <point x="542" y="0"/>
      <point x="518" y="0"/>
    </contour>
    <contour>
      <point x="521" y="167" type="curve"/>
      <point x="483" y="88"/>
      <point x="409" y="17"/>
      <point x="328" y="17" type="curve"/>
      <point x="218" y="17"/>
      <point x="160" y="77"/>
      <point x="160" y="187" type="curve"/>
      <point x="160" y="302"/>
      <point x="160" y="418"/>
      <point x="160" y="533" type="curve"/>
      <point x="136" y="533"/>
      <point x="160" y="533"/>
      <point x="136" y="533" type="curve"/>
      <point x="136" y="417"/>
      <point x="136" y="301"/>
      <point x="136" y="185" type="curve"/>
      <point x="136" y="61"/>
      <point x="202" y="-5"/>
      <point x="326" y="-5" type="curve"/>
      <point x="421" y="-5"/>
      <point x="497" y="69"/>
      <point x="537" y="156" type="curve"/>
      <point x="521" y="167"/>
      <point x="538" y="156"/>
    </contour>
    <contour>
      <point x="279" y="687" type="curve"/>
      <point x="279" y="698"/>
      <point x="271" y="705"/>
      <point x="259" y="705" type="curve"/>
      <point x="248" y="705"/>
      <point x="242" y="698"/>
      <point x="242" y="687" type="curve"/>
      <point x="266" y="687"/>
      <point x="255" y="687"/>
      <point x="279" y="687" type="curve"/>
      <point x="279" y="676"/>
      <point x="271" y="670"/>
      <point x="259" y="670" type="curve"/>
      <point x="248" y="670"/>
      <point x="242" y="676"/>
      <point x="242" y="687" type="curve"/>
      <point x="266" y="687"/>
      <point x="255" y="687"/>
    </contour>
    <contour>
      <point x="404" y="687" type="curve"/>
      <point x="404" y="698"/>
      <point x="396" y="705"/>
      <point x="385" y="705" type="curve"/>
      <point x="374" y="705"/>
      <point x="367" y="698"/>
      <point x="367" y="687" type="curve"/>
      <point x="391" y="687"/>
      <point x="380" y="687"/>
      <point x="404" y="687" type="curve"/>
      <point x="404" y="676"/>
      <point x="396" y="670"/>
      <point x="385" y="670" type="curve"/>
      <point x="374" y="670"/>
      <point x="367" y="676"/>
      <point x="367" y="687" type="curve"/>
      <point x="391" y="687"/>
      <point x="380" y="687"/>
    </contour>
  </outline>
</glyph>
<glyph name="abreve" format="1">
  <advance width="574"/>
  <unicode hex="0103"/>
  <outline>
    <contour>
      <point x="77" y="464" type="curve"/>
      <point x="77" y="344"/>
      <point x="77" y="469"/>
      <point x="77" y="349" type="curve"/>
      <point x="99" y="349"/>
      <point x="77" y="349"/>
      <point x="99" y="349" type="curve"/>
      <point x="99" y="469"/>
      <point x="99" y="344"/>
      <point x="99" y="464" type="curve"/>
      <point x="77" y="464"/>
      <point x="99" y="464"/>
    </contour>
    <contour>
      <point x="451" y="0" type="curve"/>
      <point x="451" y="130"/>
      <point x="451" y="260"/>
      <point x="451" y="390" type="curve"/>
      <point x="451" y="500"/>
      <point x="387" y="538"/>
      <point x="277" y="538" type="curve"/>
      <point x="189" y="538"/>
      <point x="126" y="505"/>
      <point x="77" y="464" type="curve"/>
      <point x="89" y="446"/>
      <point x="77" y="464"/>
      <point x="89" y="446" type="curve"/>
      <point x="133" y="480"/>
      <point x="193" y="516"/>
      <point x="274" y="516" type="curve"/>
      <point x="372" y="516"/>
      <point x="427" y="483"/>
      <point x="427" y="383" type="curve"/>
      <point x="427" y="255"/>
      <point x="427" y="128"/>
      <point x="427" y="0" type="curve"/>
      <point x="451" y="0"/>
      <point x="427" y="0"/>
    </contour>
    <contour>
      <point x="441" y="0" type="curve"/>
      <point x="486" y="0"/>
      <point x="528" y="0"/>
      <point x="573" y="0" type="curve"/>
      <point x="573" y="22"/>
      <point x="573" y="0"/>
      <point x="573" y="22" type="curve"/>
      <point x="436" y="22"/>
      <point x="577" y="22"/>
      <point x="441" y="22" type="curve"/>
      <point x="441" y="0"/>
      <point x="441" y="22"/>
    </contour>
    <contour>
      <point x="437" y="320" type="curve"/>
      <point x="356" y="309"/>
      <point x="311" y="304"/>
      <point x="229" y="293" type="curve"/>
      <point x="132" y="280"/>
      <point x="66" y="241"/>
      <point x="66" y="140" type="curve"/>
      <point x="66" y="47"/>
      <point x="120" y="-5"/>
      <point x="220" y="-5" type="curve"/>
      <point x="333" y="-5"/>
      <point x="385" y="62"/>
      <point x="446" y="150" type="curve"/>
      <point x="432" y="164"/>
      <point x="447" y="151"/>
      <point x="433" y="165" type="curve"/>
      <point x="380" y="87"/>
      <point x="325" y="17"/>
      <point x="225" y="17" type="curve"/>
      <point x="136" y="17"/>
      <point x="90" y="61"/>
      <point x="90" y="142" type="curve"/>
      <point x="90" y="229"/>
      <point x="147" y="262"/>
      <point x="228" y="273" type="curve"/>
      <point x="311" y="284"/>
      <point x="356" y="290"/>
      <point x="439" y="301" type="curve"/>
      <point x="437" y="320"/>
      <point x="439" y="301"/>
    </contour>
    <contour>
      <point x="401" y="794" type="curve"/>
      <point x="401" y="726"/>
      <point x="352" y="692"/>
      <point x="280" y="692" type="curve"/>
      <point x="210" y="692"/>
      <point x="165" y="728"/>
      <point x="165" y="795" type="curve"/>
      <point x="142" y="795"/>
      <point x="165" y="795"/>
      <point x="142" y="795" type="curve"/>
      <point x="142" y="714"/>
      <point x="194" y="671"/>
      <point x="278" y="671" type="curve"/>
      <point x="366" y="671"/>
      <point x="423" y="711"/>
      <point x="423" y="794" type="curve"/>
      <point x="401" y="794"/>
      <point x="423" y="794"/>
    </contour>
  </outline>
</glyph>
<glyph name="Aogonek" format="1">
  <advance width="836"/>
  <unicode hex="0104"/>
  <outline>
    <contour>
      <point x="113" y="22" type="curve"/>
      <point x="-33" y="22"/>
      <point x="123" y="22"/>
      <point x="-24" y="22" type="curve"/>
      <point x="-24" y="0"/>
      <point x="-24" y="22"/>
      <point x="-24" y="0" type="curve"/>
      <point x="25" y="0"/>
      <point x="65" y="0"/>
      <point x="113" y="0" type="curve"/>
      <point x="113" y="22"/>
      <point x="113" y="0"/>
    </contour>
    <contour>
      <point x="113" y="0" type="curve"/>
      <point x="164" y="0"/>
      <point x="104" y="0"/>
      <point x="255" y="0" type="curve"/>
      <point x="255" y="22"/>
      <point x="255" y="0"/>
      <point x="255" y="22" type="curve"/>
      <point x="104" y="22"/>
      <point x="265" y="22"/>
      <point x="113" y="22" type="curve"/>
      <point x="113" y="0"/>
      <point x="113" y="22"/>
    </contour>
    <contour>
      <point x="685" y="0" type="curve"/>
      <point x="733" y="0"/>
      <point x="773" y="0"/>
      <point x="821" y="0" type="curve"/>
      <point x="821" y="22"/>
      <point x="821" y="0"/>
      <point x="821" y="22" type="curve"/>
      <point x="675" y="22"/>
      <point x="831" y="22"/>
      <point x="685" y="22" type="curve"/>
      <point x="685" y="0"/>
      <point x="685" y="22"/>
    </contour>
    <contour>
      <point x="685" y="22" type="curve"/>
      <point x="533" y="22"/>
      <point x="694" y="22"/>
      <point x="542" y="22" type="curve"/>
      <point x="542" y="0"/>
      <point x="542" y="22"/>
      <point x="542" y="0" type="curve"/>
      <point x="593" y="0"/>
      <point x="634" y="0"/>
      <point x="685" y="0" type="curve"/>
      <point x="685" y="22"/>
      <point x="685" y="0"/>
    </contour>
    <contour>
      <point x="590" y="277" type="curve"/>
      <point x="468" y="277"/>
      <point x="346" y="277"/>
      <point x="224" y="277" type="curve"/>
      <point x="214" y="254"/>
      <point x="224" y="277"/>
      <point x="214" y="254" type="curve"/>
      <point x="342" y="254"/>
      <point x="470" y="254"/>
      <point x="598" y="254" type="curve"/>
      <point x="590" y="277"/>
      <point x="598" y="254"/>
    </contour>
    <contour>
      <point x="709" y="0" type="curve"/>
      <point x="615" y="241"/>
      <point x="521" y="481"/>
      <point x="427" y="722" type="curve"/>
      <point x="405" y="722"/>
      <point x="427" y="722"/>
      <point x="405" y="722" type="curve"/>
      <point x="498" y="481"/>
      <point x="591" y="241"/>
      <point x="684" y="0" type="curve"/>
      <point x="709" y="0"/>
      <point x="684" y="0"/>
    </contour>
    <contour>
      <point x="114" y="0" type="curve"/>
      <point x="218" y="241"/>
      <point x="321" y="481"/>
      <point x="425" y="722" type="curve"/>
      <point x="403" y="722"/>
      <point x="425" y="722"/>
      <point x="403" y="722" type="curve"/>
      <point x="298" y="481"/>
      <point x="193" y="241"/>
      <point x="88" y="0" type="curve"/>
      <point x="114" y="0"/>
      <point x="88" y="0"/>
    </contour>
    <contour>
      <point x="700" y="14" type="curve"/>
      <point x="639" y="-11"/>
      <point x="588" y="-35"/>
      <point x="588" y="-100" type="curve"/>
      <point x="588" y="-157"/>
      <point x="624" y="-195"/>
      <point x="682" y="-195" type="curve"/>
      <point x="715" y="-195"/>
      <point x="736" y="-182"/>
      <point x="764" y="-165" type="curve"/>
      <point x="756" y="-154"/>
      <point x="760" y="-161"/>
      <point x="752" y="-150" type="curve"/>
      <point x="729" y="-164"/>
      <point x="710" y="-173"/>
      <point x="684" y="-173" type="curve"/>
      <point x="638" y="-173"/>
      <point x="610" y="-144"/>
      <point x="610" y="-100" type="curve"/>
      <point x="610" y="-43"/>
      <point x="657" y="-25"/>
      <point x="709" y="0" type="curve"/>
      <point x="703" y="10"/>
      <point x="706" y="5"/>
    </contour>
  </outline>
</glyph>
<glyph name="Emacron" format="1">
  <advance width="680"/>
  <unicode hex="0112"/>
  <outline>
    <contour>
      <point x="630" y="11" type="curve"/>
      <point x="630" y="131"/>
      <point x="630" y="6"/>
      <point x="630" y="126" type="curve"/>
      <point x="609" y="126"/>
      <point x="630" y="126"/>
      <point x="609" y="126" type="curve"/>
      <point x="609" y="6"/>
      <point x="609" y="131"/>
      <point x="609" y="11" type="curve"/>
      <point x="630" y="11"/>
      <point x="609" y="11"/>
    </contour>
    <contour>
      <point x="573" y="711" type="curve"/>
      <point x="573" y="591"/>
      <point x="573" y="716"/>
      <point x="573" y="596" type="curve"/>
      <point x="595" y="596"/>
      <point x="573" y="596"/>
      <point x="595" y="596" type="curve"/>
      <point x="595" y="716"/>
      <point x="595" y="591"/>
      <point x="595" y="711" type="curve"/>
      <point x="573" y="711"/>
      <point x="595" y="711"/>
    </contour>
    <contour>
      <point x="183" y="22" type="curve"/>
      <point x="32" y="22"/>
      <point x="193" y="22"/>
      <point x="41" y="22" type="curve"/>
      <point x="41" y="0"/>
      <point x="41" y="22"/>
      <point x="41" y="0" type="curve"/>
      <point x="91" y="0"/>
      <point x="132" y="0"/>
      <point x="183" y="0" type="curve"/>
      <point x="183" y="22"/>
      <point x="183" y="0"/>
    </contour>
    <contour>
      <point x="183" y="722" type="curve"/>
      <point x="132" y="722"/>
      <point x="91" y="722"/>
      <point x="41" y="722" type="curve"/>
      <point x="41" y="700"/>
      <point x="41" y="722"/>
      <point x="41" y="700" type="curve"/>
      <point x="193" y="700"/>
      <point x="32" y="700"/>
      <point x="183" y="700" type="curve"/>
      <point x="183" y="722"/>
      <point x="183" y="700"/>
    </contour>
    <contour>
      <point x="186" y="363" type="curve"/>
      <point x="300" y="363"/>
      <point x="415" y="363"/>
      <point x="529" y="363" type="curve"/>
      <point x="529" y="385"/>
      <point x="529" y="363"/>
      <point x="529" y="385" type="curve"/>
      <point x="415" y="385"/>
      <point x="300" y="385"/>
      <point x="186" y="385" type="curve"/>
      <point x="186" y="363"/>
      <point x="186" y="385"/>
    </contour>
    <contour>
      <point x="171" y="700" type="curve"/>
      <point x="312" y="700"/>
      <point x="453" y="700"/>
      <point x="595" y="700" type="curve"/>
      <point x="595" y="722"/>
      <point x="595" y="700"/>
      <point x="595" y="722" type="curve"/>
      <point x="453" y="722"/>
      <point x="312" y="722"/>
      <point x="171" y="722" type="curve"/>
      <point x="171" y="700"/>
      <point x="171" y="722"/>
    </contour>
    <contour>
      <point x="194" y="0" type="curve"/>
      <point x="194" y="722" type="line"/>
      <point x="170" y="722"/>
      <point x="194" y="722"/>
      <point x="170" y="722" type="curve"/>
      <point x="170" y="481"/>
      <point x="170" y="241"/>
      <point x="170" y="0" type="curve"/>
      <point x="194" y="0"/>
      <point x="170" y="0"/>
    </contour>
    <contour>
      <point x="171" y="0" type="curve"/>
      <point x="324" y="0"/>
      <point x="477" y="0"/>
      <point x="630" y="0" type="curve"/>
      <point x="630" y="22"/>
      <point x="630" y="0"/>
      <point x="630" y="22" type="curve"/>
      <point x="477" y="22"/>
      <point x="324" y="22"/>
      <point x="171" y="22" type="curve"/>
      <point x="171" y="0"/>
      <point x="171" y="22"/>
    </contour>
    <contour>
      <point x="467" y="846" type="curve"/>
      <point x="388" y="846"/>
      <point x="310" y="846"/>
      <point x="232" y="846" type="curve"/>
      <point x="232" y="825"/>
      <point x="232" y="846"/>
      <point x="232" y="825" type="curve"/>
      <point x="310" y="825"/>
      <point x="388" y="825"/>
      <point x="467" y="825" type="curve"/>
      <point x="467" y="846"/>
      <point x="467" y="825"/>
    </contour>
  </outline>
</glyph>
<glyph name="Gcommaaccent" format="1">
  <advance width="788"/>
  <unicode hex="0122"/>
  <outline>
    <contour>
      <point x="677" y="642" type="curve"/>
      <point x="677" y="522"/>
      <point x="677" y="647"/>
      <point x="677" y="527" type="curve"/>
      <point x="698" y="527"/>
      <point x="677" y="527"/>
      <point x="698" y="527" type="curve"/>
      <point x="698" y="647"/>
      <point x="698" y="522"/>
      <point x="698" y="642" type="curve"/>
      <point x="677" y="642"/>
      <point x="698" y="642"/>
    </contour>
    <contour>
      <point x="707" y="319" type="curve"/>
      <point x="631" y="319"/>
      <point x="554" y="319"/>
      <point x="478" y="319" type="curve"/>
      <point x="478" y="297"/>
      <point x="478" y="319"/>
      <point x="478" y="297" type="curve"/>
      <point x="554" y="297"/>
      <point x="631" y="297"/>
      <point x="707" y="297" type="curve"/>
      <point x="707" y="319"/>
      <point x="707" y="297"/>
    </contour>
    <contour>
      <point x="716" y="77" type="curve"/>
      <point x="716" y="158"/>
      <point x="716" y="238"/>
      <point x="716" y="319" type="curve"/>
      <point x="694" y="319"/>
      <point x="716" y="319"/>
      <point x="694" y="319" type="curve"/>
      <point x="694" y="238"/>
      <point x="694" y="158"/>
      <point x="694" y="77" type="curve"/>
      <point x="716" y="77"/>
      <point x="694" y="77"/>
    </contour>
    <contour>
      <point x="698" y="642" type="curve"/>
      <point x="605" y="700"/>
      <point x="520" y="727"/>
      <point x="409" y="727" type="curve"/>
      <point x="187" y="727"/>
      <point x="66" y="592"/>
      <point x="66" y="365" type="curve"/>
      <point x="66" y="132"/>
      <point x="192" y="-5"/>
      <point x="421" y="-5" type="curve"/>
      <point x="539" y="-5"/>
      <point x="614" y="21"/>
      <point x="716" y="77" type="curve"/>
      <point x="702" y="95"/>
      <point x="716" y="77"/>
      <point x="702" y="95" type="curve"/>
      <point x="613" y="46"/>
      <point x="532" y="20"/>
      <point x="422" y="20" type="curve"/>
      <point x="207" y="20"/>
      <point x="91" y="149"/>
      <point x="91" y="367" type="curve"/>
      <point x="91" y="576"/>
      <point x="204" y="704"/>
      <point x="410" y="704" type="curve"/>
      <point x="515" y="704"/>
      <point x="597" y="678"/>
      <point x="686" y="624" type="curve"/>
      <point x="698" y="642"/>
      <point x="686" y="624"/>
    </contour>
    <contour>
      <point x="362" y="-227" type="line"/>
      <point x="390" y="-202"/>
      <point x="414" y="-171"/>
      <point x="414" y="-119" type="curve"/>
      <point x="414" y="-99"/>
      <point x="411" y="-81"/>
      <point x="392" y="-81" type="curve"/>
      <point x="379" y="-81"/>
      <point x="372" y="-87"/>
      <point x="372" y="-99" type="curve"/>
      <point x="372" y="-109"/>
      <point x="376" y="-115"/>
      <point x="387" y="-120" type="curve"/>
      <point x="387" y="-144"/>
      <point x="376" y="-183"/>
      <point x="346" y="-209" type="curve"/>
    </contour>
  </outline>
</glyph>
<glyph name="Iogonek" format="1">
  <advance width="366"/>
  <unicode hex="012E"/>
  <outline>
    <contour>
      <point x="183" y="722" type="curve"/>
      <point x="132" y="722"/>
      <point x="91" y="722"/>
      <point x="41" y="722" type="curve"/>
      <point x="41" y="700"/>
      <point x="41" y="722"/>
      <point x="41" y="700" type="curve"/>
      <point x="193" y="700"/>
      <point x="32" y="700"/>
      <point x="183" y="700" type="curve"/>
      <point x="183" y="722"/>
      <point x="183" y="700"/>
    </contour>
    <contour>
      <point x="183" y="700" type="curve"/>
      <point x="335" y="700"/>
      <point x="174" y="700"/>
      <point x="326" y="700" type="curve"/>
      <point x="326" y="722"/>
      <point x="326" y="700"/>
      <point x="326" y="722" type="curve"/>
      <point x="275" y="722"/>
      <point x="234" y="722"/>
      <point x="183" y="722" type="curve"/>
      <point x="183" y="700"/>
      <point x="183" y="722"/>
    </contour>
    <contour>
      <point x="183" y="0" type="curve"/>
      <point x="234" y="0"/>
      <point x="275" y="0"/>
      <point x="326" y="0" type="curve"/>
      <point x="326" y="22"/>
      <point x="326" y="0"/>
      <point x="326" y="22" type="curve"/>
      <point x="174" y="22"/>
      <point x="335" y="22"/>
      <point x="183" y="22" type="curve"/>
      <point x="183" y="0"/>
      <point x="183" y="22"/>
    </contour>
    <contour>
      <point x="183" y="22" type="curve"/>
      <point x="32" y="22"/>
      <point x="193" y="22"/>
      <point x="41" y="22" type="curve"/>
      <point x="41" y="0"/>
      <point x="41" y="22"/>
      <point x="41" y="0" type="curve"/>
      <point x="91" y="0"/>
      <point x="132" y="0"/>
      <point x="183" y="0" type="curve"/>
      <point x="183" y="22"/>
      <point x="183" y="0"/>
    </contour>
    <contour>
      <point x="194" y="0" type="curve"/>
      <point x="194" y="241"/>
      <point x="194" y="481"/>
      <point x="194" y="722" type="curve"/>
      <point x="170" y="722"/>
      <point x="194" y="722"/>
      <point x="170" y="722" type="curve"/>
      <point x="170" y="481"/>
      <point x="170" y="241"/>
      <point x="170" y="0" type="curve"/>
      <point x="194" y="0"/>
      <point x="170" y="0"/>
    </contour>
    <contour>
      <point x="185" y="14" type="curve"/>
      <point x="124" y="-11"/>
      <point x="73" y="-35"/>
      <point x="73" y="-100" type="curve"/>
      <point x="73" y="-157"/>
      <point x="109" y="-195"/>
      <point x="167" y="-195" type="curve"/>
      <point x="200" y="-195"/>
      <point x="221" y="-182"/>
      <point x="249" y="-165" type="curve"/>
      <point x="241" y="-154"/>
      <point x="245" y="-161"/>
      <point x="237" y="-150" type="curve"/>
      <point x="214" y="-164"/>
      <point x="195" y="-173"/>
      <point x="169" y="-173" type="curve"/>
      <point x="123" y="-173"/>
      <point x="95" y="-144"/>
      <point x="95" y="-100" type="curve"/>
      <point x="95" y="-43"/>
      <point x="141" y="-25"/>
      <point x="194" y="0" type="curve"/>
      <point x="188" y="10"/>
      <point x="191" y="5"/>
    </contour>
  </outline>
</glyph>
<glyph name="kcommaaccent" format="1">
  <advance width="620"/>
  <unicode hex="0137"/>
  <outline>
    <contour>
      <point x="149" y="22" type="curve"/>
      <point x="3" y="22"/>
      <point x="153" y="22"/>
      <point x="7" y="22" type="curve"/>
      <point x="7" y="0"/>
      <point x="7" y="22"/>
      <point x="7" y="0" type="curve"/>
      <point x="55" y="0"/>
      <point x="100" y="0"/>
      <point x="149" y="0" type="curve"/>
      <point x="149" y="22"/>
      <point x="149" y="0"/>
    </contour>
    <contour>
      <point x="467" y="0" type="curve"/>
      <point x="514" y="0"/>
      <point x="557" y="0"/>
      <point x="604" y="0" type="curve"/>
      <point x="604" y="22"/>
      <point x="604" y="0"/>
      <point x="604" y="22" type="curve"/>
      <point x="464" y="22"/>
      <point x="608" y="22"/>
      <point x="467" y="22" type="curve"/>
      <point x="467" y="0"/>
      <point x="467" y="22"/>
    </contour>
    <contour>
      <point x="440" y="511" type="curve"/>
      <point x="568" y="511"/>
      <point x="437" y="511"/>
      <point x="564" y="511" type="curve"/>
      <point x="564" y="533"/>
      <point x="564" y="511"/>
      <point x="564" y="533" type="curve"/>
      <point x="522" y="533"/>
      <point x="482" y="533"/>
      <point x="440" y="533" type="curve"/>
      <point x="440" y="511"/>
      <point x="440" y="533"/>
    </contour>
    <contour>
      <point x="149" y="0" type="curve"/>
      <point x="192" y="0"/>
      <point x="145" y="0"/>
      <point x="274" y="0" type="curve"/>
      <point x="274" y="22"/>
      <point x="274" y="0"/>
      <point x="274" y="22" type="curve"/>
      <point x="145" y="22"/>
      <point x="278" y="22"/>
      <point x="149" y="22" type="curve"/>
      <point x="149" y="0"/>
      <point x="149" y="22"/>
    </contour>
    <contour>
      <point x="440" y="533" type="curve"/>
      <point x="395" y="533"/>
      <point x="353" y="533"/>
      <point x="308" y="533" type="curve"/>
      <point x="308" y="511"/>
      <point x="308" y="533"/>
      <point x="308" y="511" type="curve"/>
      <point x="445" y="511"/>
      <point x="304" y="511"/>
      <point x="440" y="511" type="curve"/>
      <point x="440" y="533"/>
      <point x="440" y="511"/>
    </contour>
    <contour>
      <point x="151" y="800" type="curve"/>
      <point x="102" y="800"/>
      <point x="58" y="800"/>
      <point x="9" y="800" type="curve"/>
      <point x="9" y="778"/>
      <point x="9" y="800"/>
      <point x="9" y="778" type="curve"/>
      <point x="156" y="778"/>
      <point x="4" y="778"/>
      <point x="151" y="778" type="curve"/>
      <point x="151" y="800"/>
      <point x="151" y="778"/>
    </contour>
    <contour>
      <point x="162" y="0" type="curve"/>
      <point x="162" y="800" type="line"/>
      <point x="138" y="800"/>
      <point x="162" y="800"/>
      <point x="138" y="800" type="curve"/>
      <point x="138" y="533"/>
      <point x="138" y="267"/>
      <point x="138" y="0" type="curve"/>
      <point x="162" y="0"/>
      <point x="138" y="0"/>
    </contour>
    <contour>
      <point x="439" y="533" type="curve"/>
      <point x="149" y="275" type="line"/>
      <point x="189" y="275"/>
      <point x="147" y="275"/>
      <point x="187" y="275" type="curve"/>
      <point x="477" y="533" type="line"/>
      <point x="437" y="533"/>
      <point x="479" y="533"/>
    </contour>
    <contour>
      <point x="505" y="0" type="curve"/>
      <point x="187" y="275" type="line"/>
      <point x="147" y="275"/>
      <point x="189" y="275"/>
      <point x="149" y="275" type="curve"/>
      <point x="464" y="0" type="line"/>
      <point x="506" y="0"/>
      <point x="462" y="0"/>
    </contour>
    <contour>
      <point x="301" y="-228" type="line"/>
      <point x="329" y="-203"/>
      <point x="353" y="-172"/>
      <point x="353" y="-120" type="curve"/>
      <point x="353" y="-100"/>
      <point x="350" y="-82"/>
      <point x="331" y="-82" type="curve"/>
      <point x="318" y="-82"/>
      <point x="311" y="-88"/>
      <point x="311" y="-100" type="curve"/>
      <point x="311" y="-110"/>
      <point x="315" y="-116"/>
      <point x="326" y="-121" type="curve"/>
      <point x="326" y="-145"/>
      <point x="314" y="-184"/>
      <point x="285" y="-210" type="curve"/>
    </contour>
  </outline>
</glyph>
<glyph name="lacute" format="1">
  <advance width="314"/>
  <unicode hex="013A"/>
  <outline>
    <contour>
      <point x="155" y="22" type="curve"/>
      <point x="8" y="22"/>
      <point x="155" y="22"/>
      <point x="8" y="22" type="curve"/>
      <point x="8" y="0"/>
      <point x="8" y="22"/>
      <point x="8" y="0" type="curve"/>
      <point x="57" y="0"/>
      <point x="106" y="0"/>
      <point x="155" y="0" type="curve"/>
      <point x="155" y="22"/>
      <point x="155" y="0"/>
    </contour>
    <contour>
      <point x="157" y="800" type="curve"/>
      <point x="108" y="800"/>
      <point x="59" y="800"/>
      <point x="10" y="800" type="curve"/>
      <point x="10" y="778"/>
      <point x="10" y="800"/>
      <point x="10" y="778" type="curve"/>
      <point x="157" y="778"/>
      <point x="10" y="778"/>
      <point x="157" y="778" type="curve"/>
      <point x="157" y="800"/>
      <point x="157" y="778"/>
    </contour>
    <contour>
      <point x="155" y="0" type="curve"/>
      <point x="204" y="0"/>
      <point x="253" y="0"/>
      <point x="302" y="0" type="curve"/>
      <point x="302" y="22"/>
      <point x="302" y="0"/>
      <point x="302" y="22" type="curve"/>
      <point x="155" y="22"/>
      <point x="302" y="22"/>
      <point x="155" y="22" type="curve"/>
      <point x="155" y="0"/>
      <point x="155" y="22"/>
    </contour>
    <contour>
      <point x="166" y="0" type="curve"/>
      <point x="166" y="267"/>
      <point x="166" y="533"/>
      <point x="166" y="800" type="curve"/>
      <point x="142" y="800"/>
      <point x="166" y="800"/>
      <point x="142" y="800" type="curve"/>
      <point x="142" y="533"/>
      <point x="142" y="267"/>
      <point x="142" y="0" type="curve"/>
      <point x="166" y="0"/>
      <point x="142" y="0"/>
    </contour>
    <contour>
      <point x="168" y="903" type="line"/>
      <point x="307" y="1069" type="line"/>
      <point x="271" y="1069" type="line"/>
      <point x="140" y="903" type="line"/>
    </contour>
  </outline>
</glyph>
<glyph name="Lslash" format="1">
  <advance width="665"/>
  <unicode hex="0141"/>
  <outline>
    <contour>
      <point x="79" y="223" type="curve"/>
      <point x="181" y="308"/>
      <point x="282" y="393"/>
      <point x="383" y="478" type="curve"/>
      <point x="383" y="506"/>
      <point x="383" y="478"/>
      <point x="383" y="506" type="curve"/>
      <point x="282" y="421"/>
      <point x="181" y="335"/>
      <point x="79" y="251" type="curve"/>
      <point x="79" y="223"/>
      <point x="79" y="251"/>
    </contour>
    <contour>
      <point x="623" y="11" type="curve"/>
      <point x="623" y="131"/>
      <point x="623" y="6"/>
      <point x="623" y="126" type="curve"/>
      <point x="601" y="126"/>
      <point x="623" y="126"/>
      <point x="601" y="126" type="curve"/>
      <point x="601" y="6"/>
      <point x="601" y="131"/>
      <point x="601" y="11" type="curve"/>
      <point x="623" y="11"/>
      <point x="601" y="11"/>
    </contour>
    <contour>
      <point x="182" y="22" type="curve"/>
      <point x="31" y="22"/>
      <point x="192" y="22"/>
      <point x="40" y="22" type="curve"/>
      <point x="40" y="0"/>
      <point x="40" y="22"/>
      <point x="40" y="0" type="curve"/>
      <point x="90" y="0"/>
      <point x="132" y="0"/>
      <point x="182" y="0" type="curve"/>
      <point x="182" y="22"/>
      <point x="182" y="0"/>
    </contour>
    <contour>
      <point x="182" y="722" type="curve"/>
      <point x="132" y="722"/>
      <point x="90" y="722"/>
      <point x="40" y="722" type="curve"/>
      <point x="40" y="700"/>
      <point x="40" y="722"/>
      <point x="40" y="700" type="curve"/>
      <point x="192" y="700"/>
      <point x="31" y="700"/>
      <point x="182" y="700" type="curve"/>
      <point x="182" y="722"/>
      <point x="182" y="700"/>
    </contour>
    <contour>
      <point x="182" y="700" type="curve"/>
      <point x="334" y="700"/>
      <point x="173" y="700"/>
      <point x="324" y="700" type="curve"/>
      <point x="324" y="722"/>
      <point x="324" y="700"/>
      <point x="324" y="722" type="curve"/>
      <point x="274" y="722"/>
      <point x="233" y="722"/>
      <point x="182" y="722" type="curve"/>
      <point x="182" y="700"/>
      <point x="182" y="722"/>
    </contour>
    <contour>
      <point x="196" y="0" type="curve"/>
      <point x="196" y="241"/>
      <point x="196" y="481"/>
      <point x="196" y="722" type="curve"/>
      <point x="171" y="722"/>
      <point x="196" y="722"/>
      <point x="171" y="722" type="curve"/>
      <point x="171" y="481"/>
      <point x="171" y="241"/>
      <point x="171" y="0" type="curve"/>
      <point x="196" y="0"/>
      <point x="171" y="0"/>
    </contour>
    <contour>
      <point x="182" y="0" type="curve"/>
      <point x="330" y="0"/>
      <point x="476" y="0"/>
      <point x="623" y="0" type="curve"/>
      <point x="623" y="22"/>
      <point x="623" y="0"/>
      <point x="623" y="22" type="curve"/>
      <point x="476" y="22"/>
      <point x="330" y="22"/>
      <point x="182" y="22" type="curve"/>
      <point x="182" y="0"/>
      <point x="182" y="22"/>
    </contour>
  </outline>
</glyph>
<glyph name="ohungarumlaut" format="1">
  <advance width="606"/>
  <unicode hex="0151"/>
  <outline>
    <contour>
      <point x="90" y="268" type="curve"/>
      <point x="90" y="419"/>
      <point x="160" y="517"/>
      <point x="299" y="517" type="curve"/>
      <point x="444" y="517"/>
      <point x="515" y="417"/>
      <point x="515" y="266" type="curve"/>
      <point x="515" y="116"/>
      <point x="444" y="17"/>
      <point x="303" y="17" type="curve"/>
      <point x="157" y="17"/>
      <point x="90" y="118"/>
      <point x="90" y="268" type="curve"/>
      <point x="66" y="268"/>
      <point x="90" y="268"/>
      <point x="66" y="268" type="curve"/>
      <point x="66" y="104"/>
      <point x="144" y="-5"/>
      <point x="302" y="-5" type="curve"/>
      <point x="461" y="-5"/>
      <point x="540" y="102"/>
      <point x="540" y="266" type="curve"/>
      <point x="540" y="430"/>
      <point x="460" y="538"/>
      <point x="300" y="538" type="curve"/>
      <point x="144" y="538"/>
      <point x="66" y="430"/>
      <point x="66" y="268" type="curve"/>
      <point x="90" y="268"/>
      <point x="66" y="268"/>
    </contour>
    <contour>
      <point x="211" y="697" type="line"/>
      <point x="350" y="863" type="line"/>
      <point x="314" y="863" type="line"/>
      <point x="184" y="697" type="line"/>
    </contour>
    <contour>
      <point x="353" y="697" type="line"/>
      <point x="492" y="863" type="line"/>
      <point x="456" y="863" type="line"/>
      <point x="325" y="697" type="line"/>
    </contour>
  </outline>
</glyph>
<glyph name="OE" format="1">
  <advance width="1044"/>
  <unicode hex="0152"/>
  <outline>
    <contour>
      <point x="553" y="693" type="curve"/>
      <point x="503" y="720"/>
      <point x="462" y="723"/>
      <point x="404" y="723" type="curve"/>
      <point x="181" y="723"/>
      <point x="68" y="574"/>
      <point x="68" y="344" type="curve"/>
      <point x="68" y="133"/>
      <point x="176" y="-2"/>
      <point x="382" y="-2" type="curve"/>
      <point x="448" y="-2"/>
      <point x="494" y="3"/>
      <point x="553" y="30" type="curve"/>
      <point x="547" y="37"/>
      <point x="545" y="42"/>
      <point x="539" y="48" type="curve"/>
      <point x="485" y="24"/>
      <point x="443" y="23"/>
      <point x="383" y="23" type="curve"/>
      <point x="198" y="23"/>
      <point x="92" y="149"/>
      <point x="92" y="345" type="curve"/>
      <point x="92" y="560"/>
      <point x="201" y="699"/>
      <point x="403" y="699" type="curve"/>
      <point x="457" y="699"/>
      <point x="495" y="699"/>
      <point x="542" y="674" type="curve"/>
      <point x="547" y="680"/>
      <point x="548" y="686"/>
    </contour>
    <contour>
      <point x="993" y="11" type="curve"/>
      <point x="993" y="131"/>
      <point x="993" y="6"/>
      <point x="993" y="126" type="curve"/>
      <point x="972" y="126"/>
      <point x="993" y="126"/>
      <point x="972" y="126" type="curve"/>
      <point x="972" y="6"/>
      <point x="972" y="131"/>
      <point x="972" y="11" type="curve"/>
      <point x="993" y="11"/>
      <point x="972" y="11"/>
    </contour>
    <contour>
      <point x="936" y="711" type="curve"/>
      <point x="936" y="591"/>
      <point x="936" y="716"/>
      <point x="936" y="596" type="curve"/>
      <point x="958" y="596"/>
      <point x="936" y="596"/>
      <point x="958" y="596" type="curve"/>
      <point x="958" y="716"/>
      <point x="958" y="591"/>
      <point x="958" y="711" type="curve"/>
      <point x="936" y="711"/>
      <point x="958" y="711"/>
    </contour>
    <contour>
      <point x="547" y="22" type="curve"/>
      <point x="395" y="22"/>
      <point x="556" y="22"/>
      <point x="404" y="22" type="curve"/>
      <point x="404" y="0"/>
      <point x="404" y="22"/>
      <point x="404" y="0" type="curve"/>
      <point x="455" y="0"/>
      <point x="496" y="0"/>
      <point x="547" y="0" type="curve"/>
      <point x="547" y="22"/>
      <point x="547" y="0"/>
    </contour>
    <contour>
      <point x="547" y="722" type="curve"/>
      <point x="496" y="722"/>
      <point x="455" y="722"/>
      <point x="404" y="722" type="curve"/>
      <point x="404" y="700"/>
      <point x="404" y="722"/>
      <point x="404" y="700" type="curve"/>
      <point x="556" y="700"/>
      <point x="395" y="700"/>
      <point x="547" y="700" type="curve"/>
      <point x="547" y="722"/>
      <point x="547" y="700"/>
    </contour>
    <contour>
      <point x="550" y="363" type="curve"/>
      <point x="664" y="363"/>
      <point x="778" y="363"/>
      <point x="893" y="363" type="curve"/>
      <point x="893" y="385"/>
      <point x="893" y="363"/>
      <point x="893" y="385" type="curve"/>
      <point x="778" y="385"/>
      <point x="664" y="385"/>
      <point x="550" y="385" type="curve"/>
      <point x="550" y="363"/>
      <point x="550" y="385"/>
    </contour>
    <contour>
      <point x="534" y="700" type="curve"/>
      <point x="675" y="700"/>
      <point x="817" y="700"/>
      <point x="958" y="700" type="curve"/>
      <point x="958" y="722"/>
      <point x="958" y="700"/>
      <point x="958" y="722" type="curve"/>
      <point x="817" y="722"/>
      <point x="675" y="722"/>
      <point x="534" y="722" type="curve"/>
      <point x="534" y="700"/>
      <point x="534" y="722"/>
    </contour>
    <contour>
      <point x="558" y="0" type="curve"/>
      <point x="558" y="722" type="line"/>
      <point x="534" y="722"/>
      <point x="558" y="722"/>
      <point x="534" y="722" type="curve"/>
      <point x="534" y="481"/>
      <point x="534" y="241"/>
      <point x="534" y="0" type="curve"/>
      <point x="558" y="0"/>
      <point x="534" y="0"/>
    </contour>
    <contour>
      <point x="534" y="0" type="curve"/>
      <point x="687" y="0"/>
      <point x="840" y="0"/>
      <point x="993" y="0" type="curve"/>
      <point x="993" y="22"/>
      <point x="993" y="0"/>
      <point x="993" y="22" type="curve"/>
      <point x="840" y="22"/>
      <point x="687" y="22"/>
      <point x="534" y="22" type="curve"/>
      <point x="534" y="0"/>
      <point x="534" y="22"/>
    </contour>
  </outline>
</glyph>
<glyph name="oe" format="1">
  <advance width="1009"/>
  <unicode hex="0153"/>
  <outline>
    <contour>
      <point x="90" y="268" type="curve"/>
      <point x="90" y="419"/>
      <point x="160" y="517"/>
      <point x="299" y="517" type="curve"/>
      <point x="444" y="517"/>
      <point x="515" y="417"/>
      <point x="515" y="266" type="curve"/>
      <point x="515" y="116"/>
      <point x="444" y="17"/>
      <point x="303" y="17" type="curve"/>
      <point x="157" y="17"/>
      <point x="90" y="118"/>
      <point x="90" y="268" type="curve"/>
      <point x="66" y="268"/>
      <point x="90" y="268"/>
      <point x="66" y="268" type="curve"/>
      <point x="66" y="104"/>
      <point x="144" y="-5"/>
      <point x="302" y="-5" type="curve"/>
      <point x="461" y="-5"/>
      <point x="540" y="102"/>
      <point x="540" y="266" type="curve"/>
      <point x="540" y="430"/>
      <point x="460" y="538"/>
      <point x="300" y="538" type="curve"/>
      <point x="144" y="538"/>
      <point x="66" y="430"/>
      <point x="66" y="268" type="curve"/>
      <point x="90" y="268"/>
      <point x="66" y="268"/>
    </contour>
    <contour>
      <point x="531" y="273" type="curve"/>
      <point x="667" y="273"/>
      <point x="803" y="273"/>
      <point x="939" y="273" type="curve"/>
      <point x="941" y="273"/>
      <point x="939" y="273"/>
      <point x="941" y="273" type="curve"/>
      <point x="941" y="276"/>
      <point x="941" y="273"/>
      <point x="941" y="276" type="curve"/>
      <point x="941" y="285"/>
      <point x="941" y="294"/>
      <point x="941" y="303" type="curve"/>
      <point x="941" y="449"/>
      <point x="874" y="538"/>
      <point x="736" y="538" type="curve"/>
      <point x="587" y="538"/>
      <point x="518" y="439"/>
      <point x="518" y="281" type="curve"/>
      <point x="518" y="106"/>
      <point x="595" y="-5"/>
      <point x="759" y="-5" type="curve"/>
      <point x="835" y="-5"/>
      <point x="884" y="21"/>
      <point x="940" y="75" type="curve"/>
      <point x="924" y="90"/>
      <point x="940" y="75"/>
      <point x="924" y="90" type="curve"/>
      <point x="873" y="43"/>
      <point x="827" y="17"/>
      <point x="759" y="17" type="curve"/>
      <point x="612" y="17"/>
      <point x="542" y="121"/>
      <point x="542" y="281" type="curve"/>
      <point x="542" y="424"/>
      <point x="603" y="516"/>
      <point x="734" y="516" type="curve"/>
      <point x="858" y="516"/>
      <point x="918" y="436"/>
      <point x="918" y="305" type="curve"/>
      <point x="918" y="295"/>
      <point x="918" y="286"/>
      <point x="918" y="276" type="curve"/>
      <point x="922" y="279"/>
      <point x="926" y="282"/>
      <point x="929" y="285" type="curve"/>
      <point x="933" y="288"/>
      <point x="936" y="292"/>
      <point x="939" y="295" type="curve"/>
      <point x="803" y="295"/>
      <point x="667" y="295"/>
      <point x="531" y="295" type="curve"/>
      <point x="531" y="273"/>
      <point x="531" y="295"/>
    </contour>
  </outline>
</glyph>
<glyph name="racute" format="1">
  <advance width="469"/>
  <unicode hex="0155"/>
  <outline>
    <contour>
      <point x="178" y="0" type="curve"/>
      <point x="223" y="0"/>
      <point x="265" y="0"/>
      <point x="310" y="0" type="curve"/>
      <point x="310" y="22"/>
      <point x="310" y="0"/>
      <point x="310" y="22" type="curve"/>
      <point x="174" y="22"/>
      <point x="314" y="22"/>
      <point x="178" y="22" type="curve"/>
      <point x="178" y="0"/>
      <point x="178" y="22"/>
    </contour>
    <contour>
      <point x="178" y="22" type="curve"/>
      <point x="31" y="22"/>
      <point x="182" y="22"/>
      <point x="36" y="22" type="curve"/>
      <point x="36" y="0"/>
      <point x="36" y="22"/>
      <point x="36" y="0" type="curve"/>
      <point x="84" y="0"/>
      <point x="129" y="0"/>
      <point x="178" y="0" type="curve"/>
      <point x="178" y="22"/>
      <point x="178" y="0"/>
    </contour>
    <contour>
      <point x="177" y="533" type="curve"/>
      <point x="128" y="533"/>
      <point x="84" y="533"/>
      <point x="35" y="533" type="curve"/>
      <point x="35" y="511"/>
      <point x="35" y="533"/>
      <point x="35" y="511" type="curve"/>
      <point x="182" y="511"/>
      <point x="31" y="511"/>
      <point x="177" y="511" type="curve"/>
      <point x="177" y="533"/>
      <point x="177" y="511"/>
    </contour>
    <contour>
      <point x="190" y="0" type="curve"/>
      <point x="190" y="178"/>
      <point x="190" y="355"/>
      <point x="190" y="533" type="curve"/>
      <point x="166" y="533"/>
      <point x="190" y="533"/>
      <point x="166" y="533" type="curve"/>
      <point x="166" y="355"/>
      <point x="166" y="178"/>
      <point x="166" y="0" type="curve"/>
      <point x="190" y="0"/>
      <point x="166" y="0"/>
    </contour>
    <contour>
      <point x="184" y="361" type="curve"/>
      <point x="229" y="469"/>
      <point x="331" y="516"/>
      <point x="438" y="516" type="curve"/>
      <point x="438" y="540"/>
      <point x="438" y="514"/>
      <point x="438" y="538" type="curve"/>
      <point x="324" y="538"/>
      <point x="213" y="487"/>
      <point x="174" y="383" type="curve"/>
      <point x="187" y="368"/>
      <point x="173" y="375"/>
    </contour>
    <contour>
      <point x="195" y="671" type="line"/>
      <point x="334" y="837" type="line"/>
      <point x="298" y="837" type="line"/>
      <point x="167" y="671" type="line"/>
    </contour>
  </outline>
</glyph>
<glyph name="Rcaron" format="1">
  <advance width="788"/>
  <unicode hex="0158"/>
  <outline>
    <contour>
      <point x="627" y="0" type="curve"/>
      <point x="676" y="0"/>
      <point x="717" y="0"/>
      <point x="768" y="0" type="curve"/>
      <point x="768" y="22"/>
      <point x="768" y="0"/>
      <point x="768" y="22" type="curve"/>
      <point x="617" y="22"/>
      <point x="778" y="22"/>
      <point x="627" y="22" type="curve"/>
      <point x="627" y="0"/>
      <point x="627" y="22"/>
    </contour>
    <contour>
      <point x="182" y="722" type="curve"/>
      <point x="132" y="722"/>
      <point x="90" y="722"/>
      <point x="40" y="722" type="curve"/>
      <point x="40" y="700"/>
      <point x="40" y="722"/>
      <point x="40" y="700" type="curve"/>
      <point x="192" y="700"/>
      <point x="31" y="700"/>
      <point x="182" y="700" type="curve"/>
      <point x="182" y="722"/>
      <point x="182" y="700"/>
    </contour>
    <contour>
      <point x="182" y="22" type="curve"/>
      <point x="31" y="22"/>
      <point x="192" y="22"/>
      <point x="40" y="22" type="curve"/>
      <point x="40" y="0"/>
      <point x="40" y="22"/>
      <point x="40" y="0" type="curve"/>
      <point x="90" y="0"/>
      <point x="132" y="0"/>
      <point x="182" y="0" type="curve"/>
      <point x="182" y="22"/>
      <point x="182" y="0"/>
    </contour>
    <contour>
      <point x="182" y="0" type="curve"/>
      <point x="233" y="0"/>
      <point x="173" y="0"/>
      <point x="325" y="0" type="curve"/>
      <point x="325" y="22"/>
      <point x="325" y="0"/>
      <point x="325" y="22" type="curve"/>
      <point x="173" y="22"/>
      <point x="334" y="22"/>
      <point x="182" y="22" type="curve"/>
      <point x="182" y="0"/>
      <point x="182" y="22"/>
    </contour>
    <contour>
      <point x="384" y="354" type="curve"/>
      <point x="412" y="299"/>
      <point x="597" y="55"/>
      <point x="624" y="0" type="curve"/>
      <point x="654" y="0"/>
      <point x="624" y="0"/>
      <point x="654" y="0" type="curve"/>
      <point x="626" y="55"/>
      <point x="441" y="299"/>
      <point x="413" y="354" type="curve"/>
      <point x="384" y="354"/>
      <point x="413" y="354"/>
    </contour>
    <contour>
      <point x="196" y="0" type="curve"/>
      <point x="196" y="241"/>
      <point x="196" y="481"/>
      <point x="196" y="722" type="curve"/>
      <point x="171" y="722"/>
      <point x="196" y="722"/>
      <point x="171" y="722" type="curve"/>
      <point x="171" y="481"/>
      <point x="171" y="241"/>
      <point x="171" y="0" type="curve"/>
      <point x="196" y="0"/>
      <point x="171" y="0"/>
    </contour>
    <contour>
      <point x="186" y="340" type="curve"/>
      <point x="245" y="340"/>
      <point x="304" y="340"/>
      <point x="363" y="340" type="curve"/>
      <point x="502" y="340"/>
      <point x="592" y="404"/>
      <point x="592" y="537" type="curve"/>
      <point x="592" y="665"/>
      <point x="503" y="722"/>
      <point x="367" y="722" type="curve"/>
      <point x="305" y="722"/>
      <point x="247" y="722"/>
      <point x="186" y="722" type="curve"/>
      <point x="186" y="700"/>
      <point x="186" y="722"/>
      <point x="186" y="700" type="curve"/>
      <point x="246" y="700"/>
      <point x="302" y="700"/>
      <point x="363" y="700" type="curve"/>
      <point x="486" y="700"/>
      <point x="567" y="650"/>
      <point x="567" y="535" type="curve"/>
      <point x="567" y="418"/>
      <point x="488" y="362"/>
      <point x="366" y="362" type="curve"/>
      <point x="307" y="362"/>
      <point x="246" y="362"/>
      <point x="186" y="362" type="curve"/>
      <point x="186" y="340"/>
      <point x="186" y="362"/>
    </contour>
    <contour>
      <point x="454" y="991" type="line"/>
      <point x="315" y="825" type="line"/>
      <point x="351" y="825" type="line"/>
      <point x="482" y="991" type="line"/>
    </contour>
    <contour>
      <point x="176" y="991" type="line"/>
      <point x="306" y="825" type="line"/>
      <point x="342" y="825" type="line"/>
      <point x="203" y="991" type="line"/>
    </contour>
  </outline>
</glyph>
<glyph name="Uring" format="1">
  <advance width="859"/>
  <unicode hex="016E"/>
  <outline>
    <contour>
      <point x="691" y="700" type="curve"/>
      <point x="837" y="700"/>
      <point x="687" y="700"/>
      <point x="833" y="700" type="curve"/>
      <point x="833" y="722"/>
      <point x="833" y="700"/>
      <point x="833" y="722" type="curve"/>
      <point x="785" y="722"/>
      <point x="739" y="722"/>
      <point x="691" y="722" type="curve"/>
      <point x="691" y="700"/>
      <point x="691" y="722"/>
    </contour>
    <contour>
      <point x="691" y="722" type="curve"/>
      <point x="642" y="722"/>
      <point x="597" y="722"/>
      <point x="549" y="722" type="curve"/>
      <point x="549" y="700"/>
      <point x="549" y="722"/>
      <point x="549" y="700" type="curve"/>
      <point x="695" y="700"/>
      <point x="545" y="700"/>
      <point x="691" y="700" type="curve"/>
      <point x="691" y="722"/>
      <point x="691" y="700"/>
    </contour>
    <contour>
      <point x="169" y="722" type="curve"/>
      <point x="120" y="722"/>
      <point x="75" y="722"/>
      <point x="27" y="722" type="curve"/>
      <point x="27" y="700"/>
      <point x="27" y="722"/>
      <point x="27" y="700" type="curve"/>
      <point x="173" y="700"/>
      <point x="22" y="700"/>
      <point x="169" y="700" type="curve"/>
      <point x="169" y="722"/>
      <point x="169" y="700"/>
    </contour>
    <contour>
      <point x="169" y="700" type="curve"/>
      <point x="315" y="700"/>
      <point x="165" y="700"/>
      <point x="311" y="700" type="curve"/>
      <point x="311" y="722"/>
      <point x="311" y="700"/>
      <point x="311" y="722" type="curve"/>
      <point x="262" y="722"/>
      <point x="217" y="722"/>
      <point x="169" y="722" type="curve"/>
      <point x="169" y="700"/>
      <point x="169" y="722"/>
    </contour>
    <contour>
      <point x="154" y="721" type="curve"/>
      <point x="154" y="555"/>
      <point x="154" y="437"/>
      <point x="154" y="271" type="curve"/>
      <point x="154" y="86"/>
      <point x="245" y="-5"/>
      <point x="431" y="-5" type="curve"/>
      <point x="613" y="-5"/>
      <point x="703" y="83"/>
      <point x="703" y="263" type="curve"/>
      <point x="703" y="432"/>
      <point x="703" y="552"/>
      <point x="703" y="721" type="curve"/>
      <point x="688" y="721"/>
      <point x="695" y="721"/>
      <point x="680" y="721" type="curve"/>
      <point x="680" y="550"/>
      <point x="680" y="430"/>
      <point x="680" y="259" type="curve"/>
      <point x="680" y="100"/>
      <point x="596" y="19"/>
      <point x="433" y="19" type="curve"/>
      <point x="260" y="19"/>
      <point x="177" y="103"/>
      <point x="177" y="275" type="curve"/>
      <point x="177" y="440"/>
      <point x="177" y="557"/>
      <point x="177" y="721" type="curve"/>
      <point x="162" y="721"/>
      <point x="169" y="721"/>
    </contour>
    <contour>
      <point x="316" y="940" type="curve"/>
      <point x="316" y="868"/>
      <point x="361" y="824"/>
      <point x="434" y="824" type="curve"/>
      <point x="509" y="824"/>
      <point x="555" y="867"/>
      <point x="555" y="940" type="curve"/>
      <point x="555" y="1014"/>
      <point x="508" y="1057"/>
      <point x="432" y="1057" type="curve"/>
      <point x="360" y="1057"/>
      <point x="316" y="1013"/>
      <point x="316" y="940" type="curve"/>
      <point x="339" y="940"/>
      <point x="316" y="940"/>
      <point x="339" y="940" type="curve"/>
      <point x="339" y="999"/>
      <point x="373" y="1036"/>
      <point x="432" y="1036" type="curve"/>
      <point x="494" y="1036"/>
      <point x="532" y="1001"/>
      <point x="532" y="940" type="curve"/>
      <point x="532" y="881"/>
      <point x="495" y="845"/>
      <point x="434" y="845" type="curve"/>
      <point x="374" y="845"/>
      <point x="339" y="881"/>
      <point x="339" y="940" type="curve"/>
      <point x="316" y="940"/>
      <point x="339" y="940"/>
    </contour>
  </outline>
</glyph>
<glyph name="florin" format="1">
  <advance width="450"/>
  <unicode hex="0192"/>
  <outline>
    <contour>
      <point x="405" y="546" type="curve"/>
      <point x="315" y="546"/>
      <point x="224" y="546"/>
      <point x="134" y="546" type="curve"/>
      <point x="134" y="526"/>
      <point x="134" y="546"/>
      <point x="134" y="526" type="curve"/>
      <point x="224" y="526"/>
      <point x="315" y="526"/>
      <point x="405" y="526" type="curve"/>
      <point x="405" y="546"/>
      <point x="405" y="526"/>
    </contour>
    <contour>
      <point x="444" y="828" type="curve"/>
      <point x="361" y="844"/>
      <point x="305" y="796"/>
      <point x="286" y="709" type="curve"/>
      <point x="242" y="493"/>
      <point x="199" y="277"/>
      <point x="155" y="61" type="curve"/>
      <point x="139" y="-14"/>
      <point x="94" y="-58"/>
      <point x="22" y="-44" type="curve"/>
      <point x="17" y="-65"/>
      <point x="22" y="-44"/>
      <point x="17" y="-65" type="curve"/>
      <point x="102" y="-81"/>
      <point x="160" y="-32"/>
      <point x="179" y="58" type="curve"/>
      <point x="223" y="275"/>
      <point x="266" y="491"/>
      <point x="311" y="708" type="curve"/>
      <point x="326" y="782"/>
      <point x="370" y="819"/>
      <point x="440" y="807" type="curve"/>
      <point x="444" y="828"/>
      <point x="440" y="807"/>
    </contour>
  </outline>
</glyph>
<glyph name="circumflex" format="1">
  <advance width="543"/>
  <unicode hex="02C6"/>
  <outline>
    <contour>
      <point x="158" y="591" type="move" name="_top"/>
    </contour>
    <contour>
      <point x="31" y="591" type="line"/>
      <point x="170" y="757" type="line"/>
      <point x="135" y="757" type="line"/>
      <point x="4" y="591" type="line"/>
    </contour>
    <contour>
      <point x="311" y="591" type="line"/>
      <point x="180" y="757" type="line"/>
      <point x="145" y="757" type="line"/>
      <point x="284" y="591" type="line"/>
    </contour>
  </outline>
</glyph>
<glyph name="dvAA" format="1">
  <advance width="1080"/>
  <unicode hex="0906"/>
  <outline>
    <contour>
      <point x="654" y="469" type="line"/>
      <point x="616" y="404"/>
      <point x="570" y="386"/>
      <point x="507" y="384" type="curve" smooth="yes"/>
      <point x="436" y="383"/>
      <point x="363" y="406"/>
      <point x="289" y="422" type="curve"/>
      <point x="283" y="405" type="line"/>
      <point x="359" y="387"/>
      <point x="429" y="362"/>
      <point x="507" y="364" type="curve" smooth="yes"/>
      <point x="574" y="365"/>
      <point x="631" y="382"/>
      <point x="671" y="458" type="curve"/>
    </contour>
    <contour>
      <point x="662" y="0" type="curve"/>
      <point x="696" y="0"/>
      <point x="724" y="0"/>
      <point x="759" y="0" type="curve"/>
      <point x="759" y="21"/>
      <point x="759" y="0"/>
      <point x="759" y="21" type="curve"/>
      <point x="656" y="21"/>
      <point x="765" y="21"/>
      <point x="662" y="21" type="curve"/>
      <point x="662" y="0"/>
      <point x="662" y="21"/>
    </contour>
    <contour>
      <point x="662" y="21" type="curve"/>
      <point x="505" y="21"/>
      <point x="672" y="21"/>
      <point x="514" y="21" type="curve"/>
      <point x="514" y="0"/>
      <point x="514" y="21"/>
      <point x="514" y="0" type="curve"/>
      <point x="566" y="0"/>
      <point x="610" y="0"/>
      <point x="662" y="0" type="curve"/>
      <point x="662" y="21"/>
      <point x="662" y="0"/>
    </contour>
    <contour>
      <point x="673" y="0" type="curve"/>
      <point x="673" y="240"/>
      <point x="673" y="481"/>
      <point x="673" y="722" type="curve"/>
      <point x="650" y="722"/>
      <point x="673" y="722"/>
      <point x="650" y="722" type="curve"/>
      <point x="650" y="481"/>
      <point x="650" y="240"/>
      <point x="650" y="0" type="curve"/>
      <point x="673" y="0"/>
      <point x="650" y="0"/>
    </contour>
    <contour>
      <point x="652" y="699" type="curve"/>
      <point x="753" y="699"/>
      <point x="846" y="699"/>
      <point x="948" y="699" type="curve"/>
      <point x="948" y="722"/>
      <point x="948" y="699"/>
      <point x="948" y="722" type="curve"/>
      <point x="846" y="722"/>
      <point x="753" y="722"/>
      <point x="652" y="722" type="curve"/>
      <point x="652" y="699"/>
      <point x="652" y="722"/>
    </contour>
    <contour>
      <point x="103" y="641" type="curve"/>
      <point x="151" y="677"/>
      <point x="203" y="705"/>
      <point x="270" y="705" type="curve"/>
      <point x="369" y="705"/>
      <point x="437" y="656"/>
      <point x="436" y="566" type="curve"/>
      <point x="435" y="462"/>
      <point x="343" y="423"/>
      <point x="229" y="423" type="curve"/>
      <point x="229" y="409"/>
      <point x="229" y="416"/>
      <point x="229" y="403" type="curve"/>
      <point x="358" y="403"/>
      <point x="460" y="451"/>
      <point x="460" y="569" type="curve"/>
      <point x="459" y="670"/>
      <point x="384" y="726"/>
      <point x="273" y="726" type="curve"/>
      <point x="200" y="726"/>
      <point x="142" y="698"/>
      <point x="89" y="658" type="curve"/>
      <point x="99" y="647"/>
      <point x="94" y="653"/>
    </contour>
    <contour>
      <point x="74" y="158" type="curve"/>
      <point x="129" y="99"/>
      <point x="195" y="68"/>
      <point x="278" y="68" type="curve"/>
      <point x="395" y="63"/>
      <point x="477" y="134"/>
      <point x="475" y="249" type="curve"/>
      <point x="473" y="371"/>
      <point x="362" y="418"/>
      <point x="229" y="418" type="curve"/>
      <point x="229" y="406"/>
      <point x="229" y="412"/>
      <point x="229" y="400" type="curve"/>
      <point x="350" y="400"/>
      <point x="449" y="358"/>
      <point x="451" y="247" type="curve"/>
      <point x="453" y="147"/>
      <point x="382" y="86"/>
      <point x="280" y="89" type="curve"/>
      <point x="203" y="89"/>
      <point x="143" y="118"/>
      <point x="91" y="172" type="curve"/>
      <point x="80" y="163"/>
      <point x="86" y="168"/>
    </contour>
    <contour>
      <point x="922" y="0" type="curve"/>
      <point x="971" y="0"/>
      <point x="1011" y="0"/>
      <point x="1060" y="0" type="curve"/>
      <point x="1060" y="21"/>
      <point x="1060" y="0"/>
      <point x="1060" y="21" type="curve"/>
      <point x="913" y="21"/>
      <point x="1069" y="21"/>
      <point x="922" y="21" type="curve"/>
      <point x="922" y="0"/>
      <point x="922" y="21"/>
    </contour>
    <contour>
      <point x="922" y="21" type="curve"/>
      <point x="808" y="21"/>
      <point x="929" y="21"/>
      <point x="815" y="21" type="curve"/>
      <point x="815" y="0"/>
      <point x="815" y="21"/>
      <point x="815" y="0" type="curve"/>
      <point x="853" y="0"/>
      <point x="885" y="0"/>
      <point x="922" y="0" type="curve"/>
      <point x="922" y="21"/>
      <point x="922" y="0"/>
    </contour>
    <contour>
      <point x="933" y="0" type="curve"/>
      <point x="933" y="240"/>
      <point x="933" y="481"/>
      <point x="933" y="722" type="curve"/>
      <point x="910" y="722"/>
      <point x="933" y="722"/>
      <point x="910" y="722" type="curve"/>
      <point x="910" y="481"/>
      <point x="910" y="240"/>
      <point x="910" y="0" type="curve"/>
      <point x="933" y="0"/>
      <point x="910" y="0"/>
    </contour>
    <contour>
      <point x="912" y="699" type="curve"/>
      <point x="976" y="699"/>
      <point x="1035" y="699"/>
      <point x="1100" y="699" type="curve"/>
      <point x="1100" y="722"/>
      <point x="1100" y="699"/>
      <point x="1100" y="722" type="curve"/>
      <point x="1035" y="722"/>
      <point x="976" y="722"/>
      <point x="912" y="722" type="curve"/>
      <point x="912" y="699"/>
      <point x="912" y="722"/>
    </contour>
  </outline>
</glyph>
<glyph name="dvU" format="1">
  <advance width="590"/>
  <unicode hex="0909"/>
  <outline>
    <contour>
      <point x="83" y="158" type="curve"/>
      <point x="138" y="99"/>
      <point x="204" y="68"/>
      <point x="287" y="68" type="curve"/>
      <point x="404" y="63"/>
      <point x="486" y="134"/>
      <point x="483" y="249" type="curve"/>
      <point x="481" y="371"/>
      <point x="371" y="418"/>
      <point x="238" y="418" type="curve"/>
      <point x="238" y="406"/>
      <point x="238" y="412"/>
      <point x="238" y="400" type="curve"/>
      <point x="359" y="400"/>
      <point x="458" y="358"/>
      <point x="460" y="247" type="curve"/>
      <point x="462" y="147"/>
      <point x="391" y="86"/>
      <point x="289" y="89" type="curve"/>
      <point x="212" y="89"/>
      <point x="152" y="118"/>
      <point x="99" y="172" type="curve"/>
      <point x="88" y="163"/>
      <point x="94" y="168"/>
    </contour>
    <contour>
      <point x="279" y="702" type="line"/>
      <point x="377" y="702"/>
      <point x="445" y="656"/>
      <point x="444" y="566" type="curve"/>
      <point x="443" y="462"/>
      <point x="352" y="423"/>
      <point x="238" y="423" type="curve"/>
      <point x="238" y="409"/>
      <point x="238" y="416"/>
      <point x="238" y="403" type="curve"/>
      <point x="366" y="403"/>
      <point x="468" y="451"/>
      <point x="468" y="569" type="curve"/>
      <point x="468" y="670"/>
      <point x="392" y="721"/>
      <point x="282" y="721" type="curve"/>
    </contour>
    <component base="dvTopbar" xScale="0.929002434773" xOffset="-9"/>
  </outline>
</glyph>
<glyph name="dvNGA" format="1">
  <advance width="595"/>
  <unicode hex="0919"/>
  <outline>
    <contour>
      <point x="386" y="-55" type="move" name="blwm.virama"/>
    </contour>
    <contour>
      <point x="415" y="719" type="move" name="abvm.e"/>
    </contour>
    <contour>
      <point x="401" y="-140" type="move" name="blwm.u"/>
    </contour>
    <component base="dvDDA"/>
    <component base="dvAnusvara" xOffset="664" yOffset="-504"/>
    <component base="dvTopbar" xScale="0.709697559853" xOffset="-3"/>
  </outline>
</glyph>
<glyph name="dvCHA" format="1">
  <advance width="788"/>
  <unicode hex="091B"/>
  <outline>
    <contour>
      <point x="464" y="-32" type="move" name="blwm.virama"/>
    </contour>
    <contour>
      <point x="586" y="720" type="move" name="abvm.e"/>
    </contour>
    <contour>
      <point x="464" y="-111" type="move" name="blwm.u"/>
    </contour>
    <component base="dvCH"/>
    <component base="dvStem_short" yScale="0.753252803375" xOffset="268" yOffset="175"/>
  </outline>
</glyph>
<glyph name="dvTTHA" format="1">
  <advance width="672"/>
  <unicode hex="0920"/>
  <outline>
    <contour>
      <point x="448" y="2" type="move" name="blwm.virama"/>
    </contour>
    <contour>
      <point x="356" y="721" type="move" name="abvm.e"/>
    </contour>
    <contour>
      <point x="468" y="-83" type="move" name="blwm.u"/>
    </contour>
    <contour>
      <point x="556" y="303" type="curve"/>
      <point x="556" y="176"/>
      <point x="476" y="88"/>
      <point x="351" y="88" type="curve"/>
      <point x="224" y="88"/>
      <point x="142" y="176"/>
      <point x="142" y="304" type="curve"/>
      <point x="142" y="431"/>
      <point x="220" y="521"/>
      <point x="344" y="521" type="curve"/>
      <point x="472" y="521"/>
      <point x="556" y="432"/>
      <point x="556" y="303" type="curve"/>
      <point x="564" y="303"/>
      <point x="571" y="303"/>
      <point x="579" y="303" type="curve"/>
      <point x="579" y="444"/>
      <point x="486" y="542"/>
      <point x="345" y="542" type="curve"/>
      <point x="208" y="542"/>
      <point x="118" y="444"/>
      <point x="118" y="304" type="curve"/>
      <point x="118" y="163"/>
      <point x="209" y="66"/>
      <point x="348" y="66" type="curve"/>
      <point x="488" y="66"/>
      <point x="579" y="163"/>
      <point x="579" y="303" type="curve"/>
      <point x="571" y="303"/>
      <point x="564" y="303"/>
    </contour>
    <component base="dvTopbar" xScale="1.04976801799" xOffset="-7"/>
    <component base="dvStem_short" yScale="0.834123723779" xOffset="43" yOffset="117"/>
  </outline>
</glyph>
<glyph name="dvTHA" format="1">
  <advance width="741"/>
  <unicode hex="0925"/>
  <outline>
    <contour>
      <point x="123" y="409" type="curve"/>
      <point x="123" y="242"/>
      <point x="189" y="105"/>
      <point x="346" y="105" type="curve"/>
      <point x="469" y="105"/>
      <point x="548" y="185"/>
      <point x="594" y="307" type="curve"/>
      <point x="583" y="312"/>
      <point x="588" y="309"/>
      <point x="577" y="314" type="curve"/>
      <point x="530" y="204"/>
      <point x="459" y="126"/>
      <point x="348" y="126" type="curve"/>
      <point x="211" y="126"/>
      <point x="147" y="245"/>
      <point x="147" y="388" type="curve"/>
      <point x="130" y="403"/>
      <point x="140" y="395"/>
    </contour>
    <contour>
      <point x="151" y="569" type="line"/>
      <point x="155" y="648"/>
      <point x="203" y="706"/>
      <point x="279" y="706" type="curve"/>
      <point x="358" y="706"/>
      <point x="410" y="651"/>
      <point x="411" y="569" type="curve"/>
      <point x="411" y="429"/>
      <point x="272" y="409"/>
      <point x="123" y="409" type="curve"/>
      <point x="140" y="395"/>
      <point x="130" y="403"/>
      <point x="147" y="388" type="curve"/>
      <point x="297" y="388"/>
      <point x="434" y="420"/>
      <point x="434" y="569" type="curve"/>
      <point x="434" y="664"/>
      <point x="372" y="727"/>
      <point x="280" y="727" type="curve"/>
      <point x="192" y="727"/>
      <point x="133" y="665"/>
      <point x="129" y="573" type="curve"/>
    </contour>
    <component base="dvStemright" xOffset="494"/>
  </outline>
</glyph>
<glyph name="dvSA" format="1">
  <advance width="805"/>
  <unicode hex="0938"/>
  <outline>
    <contour>
      <point x="142" y="379" type="curve"/>
      <point x="265" y="384"/>
      <point x="356" y="439"/>
      <point x="356" y="550" type="curve"/>
      <point x="356" y="618"/>
      <point x="335" y="666"/>
      <point x="288" y="715" type="curve"/>
      <point x="285" y="713"/>
      <point x="275" y="704"/>
      <point x="272" y="701" type="curve"/>
      <point x="316" y="656"/>
      <point x="333" y="611"/>
      <point x="333" y="547" type="curve"/>
      <point x="333" y="443"/>
      <point x="235" y="400"/>
      <point x="118" y="399" type="curve"/>
      <point x="127" y="392"/>
      <point x="133" y="386"/>
    </contour>
    <contour>
      <point x="118" y="399" type="curve"/>
      <point x="118" y="203"/>
      <point x="143" y="13"/>
      <point x="301" y="13" type="curve"/>
      <point x="388" y="13"/>
      <point x="439" y="73"/>
      <point x="465" y="161" type="curve"/>
      <point x="462" y="163"/>
      <point x="451" y="168"/>
      <point x="447" y="171" type="curve"/>
      <point x="421" y="92"/>
      <point x="379" y="34"/>
      <point x="301" y="34" type="curve"/>
      <point x="168" y="34"/>
      <point x="142" y="201"/>
      <point x="142" y="379" type="curve"/>
      <point x="133" y="386"/>
      <point x="127" y="392"/>
    </contour>
    <component base="dvConnector" xScale="1.03902613857" xOffset="27" yOffset="79"/>
    <component base="dvTopbar" xScale="0.973552934724" xOffset="-8"/>
    <component base="dvStemright" xOffset="558"/>
  </outline>
</glyph>
<glyph name="dvmE" format="1">
  <advance width="0"/>
  <unicode hex="0947"/>
  <outline>
    <contour>
      <point x="-126" y="726" type="move" name="_abvm.e"/>
    </contour>
    <contour>
      <point x="-508" y="945" type="line"/>
      <point x="-475" y="967"/>
      <point x="-436" y="983"/>
      <point x="-393" y="983" type="curve"/>
      <point x="-248" y="983"/>
      <point x="-185" y="859"/>
      <point x="-152" y="715" type="curve"/>
      <point x="-130" y="720" type="line"/>
      <point x="-165" y="875"/>
      <point x="-236" y="1005"/>
      <point x="-390" y="1005" type="curve"/>
      <point x="-440" y="1005"/>
      <point x="-483" y="990"/>
      <point x="-521" y="964" type="curve"/>
    </contour>
  </outline>
</glyph>
<glyph name="dvmAI" format="1">
  <advance width="0"/>
  <unicode hex="0948"/>
  <outline>
    <contour>
      <point x="-113" y="722" type="move" name="_abvm.e"/>
    </contour>
    <contour>
      <point x="-441" y="803" type="line"/>
      <point x="-414" y="820"/>
      <point x="-385" y="828"/>
      <point x="-351" y="828" type="curve"/>
      <point x="-249" y="828"/>
      <point x="-184" y="777"/>
      <point x="-136" y="709" type="curve"/>
      <point x="-116" y="714" type="line"/>
      <point x="-169" y="798"/>
      <point x="-237" y="852"/>
      <point x="-349" y="852" type="curve"/>
      <point x="-389" y="852"/>
      <point x="-426" y="844"/>
      <point x="-455" y="823" type="curve"/>
    </contour>
    <contour>
      <point x="-449" y="949" type="line"/>
      <point x="-422" y="968"/>
      <point x="-390" y="980"/>
      <point x="-352" y="980" type="curve"/>
      <point x="-211" y="980"/>
      <point x="-166" y="799"/>
      <point x="-136" y="709" type="curve"/>
      <point x="-116" y="714" type="line"/>
      <point x="-147" y="828"/>
      <point x="-194" y="1002"/>
      <point x="-351" y="1002" type="curve"/>
      <point x="-394" y="1002"/>
      <point x="-435" y="990"/>
      <point x="-462" y="968" type="curve"/>
    </contour>
  </outline>
</glyph>
<glyph name="dvDDxA" format="1">
  <advance width="565"/>
  <unicode hex="095C"/>
  <outline>
    <contour>
      <point x="409" y="-209" type="move" name="blwm.virama"/>
    </contour>
    <contour>
      <point x="416" y="719" type="move" name="abvm.e"/>
    </contour>
    <contour>
      <point x="394" y="-292" type="move" name="blwm.u"/>
    </contour>
    <component base="dvDDA" xOffset="1"/>
    <component base="dvAnusvara" xOffset="436" yOffset="-1003"/>
  </outline>
</glyph>
<glyph name="dvPHxA" format="1">
  <advance width="945"/>
  <unicode hex="095E"/>
  <outline>
    <contour>
      <point x="490" y="-38" type="move" name="blwm.virama"/>
    </contour>
    <contour>
      <point x="490" y="721" type="move" name="abvm.e"/>
    </contour>
    <contour>
      <point x="549" y="-107" type="move" name="blwm.u"/>
    </contour>
    <component base="dvPHA"/>
    <component base="dvAnusvara" xOffset="377" yOffset="-838"/>
  </outline>
</glyph>
<glyph name="dvmvLL" format="1">
  <advance width="0"/>
  <unicode hex="0963"/>
  <outline>
    <contour>
      <point x="539" y="0" type="move" name="_blwm.u"/>
    </contour>
    <contour>
      <point x="342" y="-254" type="line"/>
      <point x="262" y="-254"/>
      <point x="214" y="-196"/>
      <point x="214" y="-114" type="curve"/>
      <point x="214" y="-53"/>
      <point x="248" y="-10"/>
      <point x="306" y="-10" type="curve"/>
      <point x="377" y="-10"/>
      <point x="393" y="-81"/>
      <point x="393" y="-161" type="curve"/>
      <point x="416" y="-161" type="line"/>
      <point x="416" y="-68"/>
      <point x="389" y="11"/>
      <point x="306" y="11" type="curve"/>
      <point x="235" y="11"/>
      <point x="189" y="-40"/>
      <point x="189" y="-113" type="curve"/>
      <point x="189" y="-209"/>
      <point x="247" y="-276"/>
      <point x="341" y="-276" type="curve"/>
    </contour>
    <contour>
      <point x="619" y="-140" type="line"/>
      <point x="619" y="-57"/>
      <point x="586" y="11"/>
      <point x="510" y="11" type="curve"/>
      <point x="428" y="11"/>
      <point x="400" y="-68"/>
      <point x="400" y="-161" type="curve"/>
      <point x="423" y="-161" type="line"/>
      <point x="423" y="-81"/>
      <point x="440" y="-10"/>
      <point x="510" y="-10" type="curve"/>
      <point x="574" y="-10"/>
      <point x="594" y="-70"/>
      <point x="594" y="-140" type="curve"/>
    </contour>
    <contour>
      <point x="613" y="-219" type="line"/>
      <point x="570" y="-219"/>
      <point x="526" y="-226"/>
      <point x="526" y="-188" type="curve"/>
      <point x="526" y="-149"/>
      <point x="570" y="-148"/>
      <point x="616" y="-148" type="curve"/>
      <point x="615" y="-126" type="line"/>
      <point x="556" y="-126"/>
      <point x="502" y="-136"/>
      <point x="502" y="-187" type="curve"/>
      <point x="502" y="-236"/>
      <point x="556" y="-240"/>
      <point x="613" y="-240" type="curve"/>
    </contour>
    <contour>
      <point x="613" y="-247" type="curve"/>
      <point x="613" y="-226" type="line"/>
      <point x="556" y="-226"/>
      <point x="503" y="-235"/>
      <point x="503" y="-284" type="curve"/>
      <point x="503" y="-326"/>
      <point x="537" y="-347"/>
      <point x="581" y="-347" type="curve"/>
      <point x="606" y="-347"/>
      <point x="627" y="-344"/>
      <point x="644" y="-325" type="curve"/>
      <point x="630" y="-310" type="line"/>
      <point x="617" y="-325"/>
      <point x="600" y="-326"/>
      <point x="581" y="-326" type="curve"/>
      <point x="550" y="-326"/>
      <point x="527" y="-314"/>
      <point x="527" y="-286" type="curve"/>
      <point x="527" y="-248"/>
      <point x="569" y="-247"/>
    </contour>
  </outline>
</glyph>
<glyph name="dvFour" format="1">
  <advance width="646"/>
  <unicode hex="096A"/>
  <outline>
    <contour>
      <point x="387" y="22" type="line"/>
      <point x="244" y="22" type="line"/>
      <point x="244" y="0" type="line"/>
      <point x="387" y="0" type="line"/>
    </contour>
    <contour>
      <point x="387" y="0" type="line"/>
      <point x="525" y="0" type="line"/>
      <point x="525" y="22" type="line"/>
      <point x="387" y="22" type="line"/>
    </contour>
    <contour>
      <point x="50" y="271" type="line"/>
      <point x="396" y="713" type="line"/>
      <point x="376" y="722" type="line"/>
      <point x="33" y="288" type="line"/>
    </contour>
    <contour>
      <point x="593" y="288" type="line"/>
      <point x="33" y="288" type="line"/>
      <point x="33" y="264" type="line"/>
      <point x="593" y="264" type="line"/>
    </contour>
    <contour>
      <point x="400" y="1" type="line"/>
      <point x="400" y="722" type="line"/>
      <point x="376" y="722" type="line"/>
      <point x="376" y="1" type="line"/>
    </contour>
  </outline>
</glyph>
<glyph name="dvSeven" format="1">
  <advance width="569"/>
  <unicode hex="096D"/>
  <outline>
    <contour>
      <point x="74" y="590" type="line"/>
      <point x="74" y="710" type="line"/>
      <point x="53" y="710" type="line"/>
      <point x="53" y="590" type="line"/>
    </contour>
    <contour>
      <point x="53" y="700" type="line"/>
      <point x="549" y="700" type="line"/>
      <point x="549" y="722" type="line"/>
      <point x="53" y="722" type="line"/>
    </contour>
    <contour>
      <point x="535" y="722" type="line"/>
      <point x="97" y="0" type="line"/>
      <point x="126" y="0" type="line"/>
      <point x="549" y="700" type="line"/>
    </contour>
  </outline>
</glyph>
<glyph name="dvAbbreviationsign" format="1">
  <advance width="469"/>
  <unicode hex="0970"/>
  <outline>
    <contour>
      <point x="99" y="257" type="curve"/>
      <point x="99" y="366"/>
      <point x="147" y="443"/>
      <point x="250" y="443" type="curve"/>
      <point x="354" y="444"/>
      <point x="402" y="367"/>
      <point x="402" y="258" type="curve"/>
      <point x="402" y="148"/>
      <point x="356" y="70"/>
      <point x="252" y="70" type="curve"/>
      <point x="147" y="70"/>
      <point x="99" y="146"/>
      <point x="99" y="257" type="curve"/>
      <point x="90" y="257"/>
      <point x="85" y="257"/>
      <point x="76" y="257" type="curve"/>
      <point x="76" y="134"/>
      <point x="133" y="49"/>
      <point x="251" y="49" type="curve"/>
      <point x="369" y="49"/>
      <point x="426" y="135"/>
      <point x="426" y="259" type="curve"/>
      <point x="426" y="381"/>
      <point x="369" y="465"/>
      <point x="251" y="465" type="curve"/>
      <point x="133" y="465"/>
      <point x="76" y="380"/>
      <point x="76" y="257" type="curve"/>
      <point x="85" y="257"/>
      <point x="90" y="257"/>
    </contour>
  </outline>
</glyph>
<glyph name="quoteright" format="1">
  <advance width="213"/>
  <unicode hex="2019"/>
  <outline>
    <contour>
      <point x="102" y="579" type="line"/>
      <point x="130" y="604"/>
      <point x="154" y="635"/>
      <point x="154" y="686" type="curve"/>
      <point x="154" y="707"/>
      <point x="151" y="724"/>
      <point x="132" y="724" type="curve"/>
      <point x="119" y="724"/>
      <point x="112" y="718"/>
      <point x="112" y="706" type="curve"/>
      <point x="112" y="696"/>
      <point x="116" y="690"/>
      <point x="127" y="685" type="curve"/>
      <point x="127" y="662"/>
      <point x="115" y="623"/>
      <point x="86" y="597" type="curve"/>
    </contour>
  </outline>
</glyph>
<glyph name="daggerdbl" format="1">
  <advance width="700"/>
  <unicode hex="2021"/>
  <outline>
    <contour>
      <point x="71" y="472" type="curve"/>
      <point x="628" y="472" type="line"/>
      <point x="628" y="496"/>
      <point x="628" y="472"/>
      <point x="628" y="496" type="curve"/>
      <point x="71" y="496" type="line"/>
      <point x="71" y="472"/>
      <point x="71" y="496"/>
    </contour>
    <contour>
      <point x="359" y="-298" type="curve"/>
      <point x="359" y="763" type="line"/>
      <point x="335" y="763"/>
      <point x="359" y="763"/>
      <point x="335" y="763" type="curve"/>
      <point x="335" y="-298" type="line"/>
      <point x="359" y="-298"/>
      <point x="335" y="-298"/>
    </contour>
    <contour>
      <point x="71" y="-24" type="curve"/>
      <point x="628" y="-24" type="line"/>
      <point x="628" y="0"/>
      <point x="628" y="-23"/>
      <point x="628" y="1" type="curve"/>
      <point x="71" y="1" type="line"/>
      <point x="71" y="-23"/>
      <point x="71" y="0"/>
    </contour>
  </outline>
</glyph>
<glyph name="ellipsis" format="1">
  <advance width="597"/>
  <unicode hex="2026"/>
  <outline>
    <contour>
      <point x="123" y="12" type="curve"/>
      <point x="123" y="23"/>
      <point x="115" y="30"/>
      <point x="104" y="30" type="curve"/>
      <point x="93" y="30"/>
      <point x="86" y="23"/>
      <point x="86" y="12" type="curve"/>
      <point x="110" y="12"/>
      <point x="99" y="12"/>
      <point x="123" y="12" type="curve"/>
      <point x="123" y="1"/>
      <point x="115" y="-6"/>
      <point x="104" y="-6" type="curve"/>
      <point x="93" y="-6"/>
      <point x="86" y="1"/>
      <point x="86" y="12" type="curve"/>
      <point x="110" y="12"/>
      <point x="99" y="12"/>
    </contour>
    <contour>
      <point x="511" y="12" type="curve"/>
      <point x="511" y="23"/>
      <point x="504" y="30"/>
      <point x="492" y="30" type="curve"/>
      <point x="481" y="30"/>
      <point x="475" y="23"/>
      <point x="475" y="12" type="curve"/>
      <point x="498" y="12"/>
      <point x="487" y="12"/>
      <point x="511" y="12" type="curve"/>
      <point x="511" y="1"/>
      <point x="504" y="-6"/>
      <point x="492" y="-6" type="curve"/>
      <point x="481" y="-6"/>
      <point x="475" y="1"/>
      <point x="475" y="12" type="curve"/>
      <point x="498" y="12"/>
      <point x="487" y="12"/>
    </contour>
    <contour>
      <point x="317" y="12" type="curve"/>
      <point x="317" y="23"/>
      <point x="309" y="30"/>
      <point x="298" y="30" type="curve"/>
      <point x="287" y="30"/>
      <point x="280" y="23"/>
      <point x="280" y="12" type="curve"/>
      <point x="304" y="12"/>
      <point x="293" y="12"/>
      <point x="317" y="12" type="curve"/>
      <point x="317" y="1"/>
      <point x="309" y="-6"/>
      <point x="298" y="-6" type="curve"/>
      <point x="287" y="-6"/>
      <point x="280" y="1"/>
      <point x="280" y="12" type="curve"/>
      <point x="304" y="12"/>
      <point x="293" y="12"/>
    </contour>
  </outline>
</glyph>
<glyph name="guilsinglleft" format="1">
  <advance width="445"/>
  <unicode hex="2039"/>
  <outline>
    <contour>
      <point x="347" y="398" type="curve"/>
      <point x="77" y="288" type="line"/>
      <point x="77" y="265"/>
      <point x="77" y="288"/>
      <point x="77" y="265" type="curve"/>
      <point x="347" y="375" type="line"/>
      <point x="347" y="398"/>
      <point x="347" y="375"/>
    </contour>
    <contour>
      <point x="347" y="178" type="curve"/>
      <point x="77" y="288" type="line"/>
      <point x="77" y="265"/>
      <point x="77" y="288"/>
      <point x="77" y="265" type="curve"/>
      <point x="347" y="155" type="line"/>
      <point x="347" y="178"/>
      <point x="347" y="155"/>
    </contour>
  </outline>
</glyph>
<glyph name="trademark" format="1">
  <advance width="1004"/>
  <unicode hex="2122"/>
  <outline>
    <contour>
      <point x="79" y="681" type="curve"/>
      <point x="79" y="650"/>
      <point x="79" y="621"/>
      <point x="79" y="590" type="curve"/>
      <point x="101" y="590"/>
      <point x="79" y="590"/>
      <point x="101" y="590" type="curve"/>
      <point x="101" y="614"/>
      <point x="101" y="637"/>
      <point x="101" y="661" type="curve"/>
      <point x="79" y="681"/>
      <point x="101" y="661"/>
    </contour>
    <contour>
      <point x="402" y="661" type="curve"/>
      <point x="402" y="637"/>
      <point x="402" y="614"/>
      <point x="402" y="590" type="curve"/>
      <point x="424" y="590"/>
      <point x="402" y="590"/>
      <point x="424" y="590" type="curve"/>
      <point x="424" y="620"/>
      <point x="424" y="650"/>
      <point x="424" y="681" type="curve"/>
      <point x="402" y="661"/>
      <point x="424" y="681"/>
    </contour>
    <contour>
      <point x="245" y="277" type="curve"/>
      <point x="275" y="277"/>
      <point x="303" y="277"/>
      <point x="333" y="277" type="curve"/>
      <point x="333" y="298"/>
      <point x="333" y="277"/>
      <point x="333" y="298" type="curve"/>
      <point x="311" y="298"/>
      <point x="290" y="298"/>
      <point x="269" y="298" type="curve"/>
      <point x="245" y="277"/>
      <point x="269" y="298"/>
    </contour>
    <contour>
      <point x="269" y="298" type="curve"/>
      <point x="238" y="298"/>
      <point x="209" y="298"/>
      <point x="179" y="298" type="curve"/>
      <point x="179" y="277"/>
      <point x="179" y="298"/>
      <point x="179" y="277" type="curve"/>
      <point x="201" y="277"/>
      <point x="223" y="277"/>
      <point x="245" y="277" type="curve"/>
      <point x="269" y="298"/>
      <point x="245" y="277"/>
    </contour>
    <contour>
      <point x="269" y="298" type="curve"/>
      <point x="269" y="426"/>
      <point x="269" y="554"/>
      <point x="269" y="682" type="curve"/>
      <point x="245" y="661"/>
      <point x="269" y="682"/>
      <point x="245" y="661" type="curve"/>
      <point x="245" y="533"/>
      <point x="245" y="405"/>
      <point x="245" y="277" type="curve"/>
      <point x="269" y="298"/>
      <point x="245" y="277"/>
    </contour>
    <contour>
      <point x="101" y="661" type="curve"/>
      <point x="201" y="661"/>
      <point x="302" y="661"/>
      <point x="402" y="661" type="curve"/>
      <point x="424" y="681"/>
      <point x="402" y="661"/>
      <point x="424" y="681" type="curve"/>
      <point x="309" y="681"/>
      <point x="194" y="681"/>
      <point x="79" y="681" type="curve"/>
      <point x="101" y="661"/>
      <point x="79" y="681"/>
    </contour>
    <contour>
      <point x="829" y="277" type="curve"/>
      <point x="858" y="277"/>
      <point x="888" y="277"/>
      <point x="918" y="277" type="curve"/>
      <point x="918" y="298"/>
      <point x="918" y="277"/>
      <point x="918" y="298" type="curve"/>
      <point x="895" y="298"/>
      <point x="872" y="298"/>
      <point x="849" y="298" type="curve"/>
      <point x="829" y="277"/>
      <point x="849" y="298"/>
    </contour>
    <contour>
      <point x="850" y="298" type="curve"/>
      <point x="821" y="298"/>
      <point x="793" y="298"/>
      <point x="765" y="298" type="curve"/>
      <point x="765" y="277"/>
      <point x="765" y="298"/>
      <point x="765" y="277" type="curve"/>
      <point x="787" y="277"/>
      <point x="807" y="277"/>
      <point x="829" y="277" type="curve"/>
      <point x="850" y="298"/>
      <point x="829" y="277"/>
    </contour>
    <contour>
      <point x="504" y="298" type="curve"/>
      <point x="481" y="298"/>
      <point x="460" y="298"/>
      <point x="437" y="298" type="curve"/>
      <point x="437" y="277"/>
      <point x="437" y="298"/>
      <point x="437" y="277" type="curve"/>
      <point x="466" y="277"/>
      <point x="495" y="277"/>
      <point x="524" y="277" type="curve"/>
      <point x="504" y="298"/>
      <point x="524" y="277"/>
    </contour>
    <contour>
      <point x="586" y="681" type="curve"/>
      <point x="553" y="681"/>
      <point x="521" y="681"/>
      <point x="488" y="681" type="curve"/>
      <point x="488" y="660"/>
      <point x="488" y="681"/>
      <point x="488" y="660" type="curve"/>
      <point x="515" y="660"/>
      <point x="542" y="660"/>
      <point x="569" y="660" type="curve"/>
      <point x="586" y="681"/>
      <point x="569" y="660"/>
    </contour>
    <contour>
      <point x="780" y="661" type="curve"/>
      <point x="809" y="661"/>
      <point x="838" y="661"/>
      <point x="867" y="661" type="curve"/>
      <point x="867" y="681"/>
      <point x="867" y="661"/>
      <point x="867" y="681" type="curve"/>
      <point x="832" y="681"/>
      <point x="799" y="681"/>
      <point x="764" y="681" type="curve"/>
      <point x="780" y="661"/>
      <point x="764" y="681"/>
    </contour>
    <contour>
      <point x="524" y="277" type="curve"/>
      <point x="546" y="277"/>
      <point x="567" y="277"/>
      <point x="590" y="277" type="curve"/>
      <point x="590" y="298"/>
      <point x="590" y="277"/>
      <point x="590" y="298" type="curve"/>
      <point x="560" y="298"/>
      <point x="532" y="298"/>
      <point x="504" y="298" type="curve"/>
      <point x="524" y="277"/>
      <point x="504" y="298"/>
    </contour>
    <contour>
      <point x="850" y="298" type="curve"/>
      <point x="791" y="670" type="line"/>
      <point x="769" y="670"/>
      <point x="791" y="670"/>
      <point x="769" y="670" type="curve"/>
      <point x="789" y="539"/>
      <point x="809" y="408"/>
      <point x="829" y="277" type="curve"/>
      <point x="850" y="298"/>
      <point x="829" y="277"/>
    </contour>
    <contour>
      <point x="525" y="277" type="curve"/>
      <point x="543" y="408"/>
      <point x="562" y="538"/>
      <point x="581" y="669" type="curve"/>
      <point x="560" y="669"/>
      <point x="581" y="669"/>
      <point x="560" y="669" type="curve"/>
      <point x="541" y="545"/>
      <point x="523" y="421"/>
      <point x="504" y="297" type="curve"/>
      <point x="525" y="277"/>
      <point x="504" y="298"/>
    </contour>
    <contour>
      <point x="683" y="277" type="curve"/>
      <point x="651" y="412"/>
      <point x="619" y="547"/>
      <point x="586" y="681" type="curve"/>
      <point x="569" y="660"/>
      <point x="586" y="681"/>
      <point x="569" y="660" type="curve"/>
      <point x="599" y="533"/>
      <point x="629" y="405"/>
      <point x="660" y="277" type="curve"/>
      <point x="683" y="277"/>
      <point x="660" y="277"/>
    </contour>
    <contour>
      <point x="693" y="277" type="curve"/>
      <point x="722" y="405"/>
      <point x="751" y="533"/>
      <point x="780" y="661" type="curve"/>
      <point x="764" y="681"/>
      <point x="780" y="661"/>
      <point x="764" y="681" type="curve"/>
      <point x="732" y="547"/>
      <point x="700" y="411"/>
      <point x="668" y="277" type="curve"/>
      <point x="693" y="277"/>
      <point x="668" y="277"/>
    </contour>
  </outline>
</glyph>
<glyph name="summation" format="1">
  <advance width="532"/>
  <unicode hex="2211"/>
  <outline>
    <contour>
      <point x="438" y="701" type="line"/>
      <point x="438" y="608" type="line"/>
      <point x="460" y="608" type="line"/>
      <point x="460" y="722" type="line"/>
    </contour>
    <contour>
      <point x="460" y="0" type="line"/>
      <point x="460" y="116" type="line"/>
      <point x="438" y="116" type="line"/>
      <point x="438" y="21" type="line"/>
    </contour>
    <contour>
      <point x="460" y="722" type="line"/>
      <point x="49" y="722" type="line"/>
      <point x="49" y="701" type="line"/>
      <point x="438" y="701" type="line"/>
    </contour>
    <contour>
      <point x="48" y="0" type="line"/>
      <point x="460" y="0" type="line"/>
      <point x="438" y="21" type="line"/>
      <point x="48" y="21" type="line"/>
    </contour>
    <contour>
      <point x="380" y="385" type="line"/>
      <point x="48" y="21" type="line"/>
      <point x="56" y="0" type="line"/>
      <point x="412" y="386" type="line"/>
    </contour>
    <contour>
      <point x="412" y="386" type="line"/>
      <point x="58" y="720" type="line"/>
      <point x="49" y="701" type="line"/>
      <point x="380" y="385" type="line"/>
    </contour>
  </outline>
</glyph>
<glyph name="divisionslash" format="1">
  <advance width="475"/>
  <unicode hex="2215"/>
  <outline>
    <contour>
      <point x="29" y="-93" type="line"/>
      <point x="474" y="757" type="line"/>
      <point x="447" y="757" type="line"/>
      <point x="2" y="-93" type="line"/>
    </contour>
  </outline>
</glyph>
<glyph name="bulletoperator" format="1">
  <advance width="252"/>
  <unicode hex="2219"/>
  <outline>
    <contour>
      <point x="162" y="440" type="curve"/>
      <point x="162" y="462"/>
      <point x="147" y="475"/>
      <point x="124" y="475" type="curve"/>
      <point x="102" y="475"/>
      <point x="89" y="461"/>
      <point x="89" y="440" type="curve"/>
      <point x="137" y="440"/>
      <point x="115" y="440"/>
      <point x="162" y="440" type="curve"/>
      <point x="162" y="418"/>
      <point x="147" y="405"/>
      <point x="124" y="405" type="curve"/>
      <point x="102" y="405"/>
      <point x="89" y="418"/>
      <point x="89" y="440" type="curve"/>
      <point x="137" y="440"/>
      <point x="115" y="440"/>
    </contour>
  </outline>
</glyph>
<glyph name="radical" format="1">
  <advance width="684"/>
  <unicode hex="221A"/>
  <outline>
    <contour>
      <point x="216" y="311" type="curve"/>
      <point x="159" y="311"/>
      <point x="104" y="311"/>
      <point x="48" y="311" type="curve"/>
      <point x="48" y="289"/>
      <point x="48" y="311"/>
      <point x="48" y="289" type="curve"/>
      <point x="216" y="289"/>
      <point x="48" y="289"/>
      <point x="216" y="289" type="curve"/>
      <point x="216" y="311"/>
      <point x="216" y="289"/>
    </contour>
    <contour>
      <point x="356" y="0" type="curve"/>
      <point x="259" y="241"/>
      <point x="327" y="70"/>
      <point x="228" y="311" type="curve"/>
      <point x="206" y="311"/>
      <point x="227" y="311"/>
      <point x="205" y="311" type="curve"/>
      <point x="302" y="70"/>
      <point x="234" y="241"/>
      <point x="331" y="0" type="curve"/>
      <point x="355" y="0"/>
      <point x="332" y="0"/>
    </contour>
    <contour>
      <point x="365" y="0" type="curve"/>
      <point x="461" y="241"/>
      <point x="556" y="481"/>
      <point x="652" y="722" type="curve"/>
      <point x="630" y="722"/>
      <point x="651" y="722"/>
      <point x="629" y="722" type="curve"/>
      <point x="531" y="481"/>
      <point x="436" y="241"/>
      <point x="339" y="0" type="curve"/>
      <point x="364" y="0"/>
      <point x="340" y="0"/>
    </contour>
  </outline>
</glyph>
<glyph name="integral" format="1">
  <advance width="450"/>
  <unicode hex="222B"/>
  <outline>
    <contour>
      <point x="439" y="828" type="curve"/>
      <point x="356" y="844"/>
      <point x="299" y="796"/>
      <point x="280" y="709" type="curve"/>
      <point x="237" y="493"/>
      <point x="193" y="277"/>
      <point x="150" y="61" type="curve"/>
      <point x="134" y="-14"/>
      <point x="87" y="-57"/>
      <point x="16" y="-44" type="curve"/>
      <point x="12" y="-65"/>
      <point x="16" y="-44"/>
      <point x="12" y="-65" type="curve"/>
      <point x="97" y="-81"/>
      <point x="154" y="-32"/>
      <point x="173" y="58" type="curve"/>
      <point x="218" y="275"/>
      <point x="261" y="491"/>
      <point x="305" y="708" type="curve"/>
      <point x="320" y="782"/>
      <point x="368" y="819"/>
      <point x="434" y="807" type="curve"/>
      <point x="439" y="828"/>
      <point x="434" y="807"/>
    </contour>
  </outline>
</glyph>
<glyph name="lessequal" format="1">
  <advance width="803"/>
  <unicode hex="2264"/>
  <outline>
    <contour>
      <point x="720" y="677" type="curve"/>
      <point x="505" y="589"/>
      <point x="289" y="502"/>
      <point x="74" y="414" type="curve"/>
      <point x="74" y="391"/>
      <point x="74" y="413"/>
      <point x="74" y="390" type="curve"/>
      <point x="289" y="478"/>
      <point x="505" y="566"/>
      <point x="720" y="653" type="curve"/>
      <point x="720" y="676"/>
      <point x="720" y="654"/>
    </contour>
    <contour>
      <point x="720" y="149" type="curve"/>
      <point x="505" y="237"/>
      <point x="289" y="325"/>
      <point x="74" y="413" type="curve"/>
      <point x="74" y="390"/>
      <point x="74" y="412"/>
      <point x="74" y="388" type="curve"/>
      <point x="289" y="300"/>
      <point x="505" y="212"/>
      <point x="720" y="125" type="curve"/>
      <point x="720" y="148"/>
      <point x="720" y="126"/>
    </contour>
    <contour>
      <point x="74" y="0" type="curve"/>
      <point x="289" y="0"/>
      <point x="505" y="0"/>
      <point x="720" y="0" type="curve"/>
      <point x="720" y="22"/>
      <point x="720" y="0"/>
      <point x="720" y="22" type="curve"/>
      <point x="505" y="22"/>
      <point x="289" y="22"/>
      <point x="74" y="22" type="curve"/>
      <point x="74" y="0"/>
      <point x="74" y="22"/>
    </contour>
  </outline>
</glyph>
<glyph name="Tcedilla" format="1">
  <advance width="746"/>
  <outline>
    <contour>
      <point x="50" y="710" type="curve"/>
      <point x="50" y="590"/>
      <point x="50" y="715"/>
      <point x="50" y="595" type="curve"/>
      <point x="72" y="595"/>
      <point x="50" y="595"/>
      <point x="72" y="595" type="curve"/>
      <point x="72" y="715"/>
      <point x="72" y="590"/>
      <point x="72" y="710" type="curve"/>
      <point x="50" y="710"/>
      <point x="72" y="710"/>
    </contour>
    <contour>
      <point x="675" y="710" type="curve"/>
      <point x="675" y="590"/>
      <point x="675" y="715"/>
      <point x="675" y="595" type="curve"/>
      <point x="697" y="595"/>
      <point x="675" y="595"/>
      <point x="697" y="595" type="curve"/>
      <point x="697" y="715"/>
      <point x="697" y="590"/>
      <point x="697" y="710" type="curve"/>
      <point x="675" y="710"/>
      <point x="697" y="710"/>
    </contour>
    <contour>
      <point x="373" y="0" type="curve"/>
      <point x="422" y="0"/>
      <point x="466" y="0"/>
      <point x="515" y="0" type="curve"/>
      <point x="515" y="22"/>
      <point x="515" y="0"/>
      <point x="515" y="22" type="curve"/>
      <point x="368" y="22"/>
      <point x="519" y="22"/>
      <point x="373" y="22" type="curve"/>
      <point x="373" y="0"/>
      <point x="373" y="22"/>
    </contour>
    <contour>
      <point x="373" y="22" type="curve"/>
      <point x="226" y="22"/>
      <point x="377" y="22"/>
      <point x="230" y="22" type="curve"/>
      <point x="230" y="0"/>
      <point x="230" y="22"/>
      <point x="230" y="0" type="curve"/>
      <point x="279" y="0"/>
      <point x="324" y="0"/>
      <point x="373" y="0" type="curve"/>
      <point x="373" y="22"/>
      <point x="373" y="0"/>
    </contour>
    <contour>
      <point x="386" y="0" type="curve"/>
      <point x="386" y="237"/>
      <point x="386" y="473"/>
      <point x="386" y="710" type="curve"/>
      <point x="362" y="710"/>
      <point x="386" y="710"/>
      <point x="362" y="710" type="curve"/>
      <point x="362" y="473"/>
      <point x="362" y="237"/>
      <point x="362" y="0" type="curve"/>
      <point x="386" y="0"/>
      <point x="362" y="0"/>
    </contour>
    <contour>
      <point x="50" y="698" type="curve"/>
      <point x="266" y="698"/>
      <point x="482" y="698"/>
      <point x="697" y="698" type="curve"/>
      <point x="697" y="722"/>
      <point x="697" y="698"/>
      <point x="697" y="722" type="curve"/>
      <point x="482" y="722"/>
      <point x="266" y="722"/>
      <point x="50" y="722" type="curve"/>
      <point x="50" y="698"/>
      <point x="50" y="722"/>
    </contour>
    <contour>
      <point x="370" y="12" type="curve"/>
      <point x="354" y="-15"/>
      <point x="339" y="-42"/>
      <point x="323" y="-68" type="curve"/>
      <point x="340" y="-86"/>
      <point x="323" y="-68"/>
      <point x="340" y="-86" type="curve"/>
      <point x="355" y="-58"/>
      <point x="372" y="-30"/>
      <point x="387" y="-3" type="curve"/>
      <point x="370" y="12"/>
      <point x="387" y="-3"/>
    </contour>
    <contour>
      <point x="340" y="-86" type="curve"/>
      <point x="356" y="-76"/>
      <point x="369" y="-73"/>
      <point x="388" y="-73" type="curve"/>
      <point x="423" y="-73"/>
      <point x="443" y="-94"/>
      <point x="443" y="-130" type="curve"/>
      <point x="443" y="-169"/>
      <point x="415" y="-185"/>
      <point x="374" y="-185" type="curve"/>
      <point x="346" y="-185"/>
      <point x="325" y="-182"/>
      <point x="301" y="-168" type="curve"/>
      <point x="292" y="-185"/>
      <point x="301" y="-168"/>
      <point x="292" y="-185" type="curve"/>
      <point x="319" y="-200"/>
      <point x="342" y="-207"/>
      <point x="373" y="-207" type="curve"/>
      <point x="428" y="-207"/>
      <point x="467" y="-182"/>
      <point x="467" y="-130" type="curve"/>
      <point x="467" y="-82"/>
      <point x="437" y="-52"/>
      <point x="390" y="-52" type="curve"/>
      <point x="365" y="-52"/>
      <point x="347" y="-58"/>
      <point x="324" y="-69" type="curve"/>
      <point x="340" y="-86"/>
      <point x="324" y="-69"/>
    </contour>
  </outline>
</glyph>
<glyph name="deltamath" format="1">
  <advance width="834"/>
  <outline>
    <contour>
      <point x="33" y="0" type="line"/>
      <point x="801" y="0" type="line"/>
      <point x="801" y="24" type="line"/>
      <point x="33" y="24" type="line"/>
    </contour>
    <contour>
      <point x="60" y="24" type="line"/>
      <point x="435" y="810" type="line"/>
      <point x="408" y="810" type="line"/>
      <point x="33" y="24" type="line"/>
    </contour>
    <contour>
      <point x="801" y="24" type="line"/>
      <point x="438" y="810" type="line"/>
      <point x="411" y="810" type="line"/>
      <point x="774" y="24" type="line"/>
    </contour>
  </outline>
</glyph>
<glyph name="dvA_base" format="1">
  <advance width="500"/>
  <outline>
    <contour>
      <point x="103" y="641" type="curve"/>
      <point x="151" y="677"/>
      <point x="203" y="705"/>
      <point x="270" y="705" type="curve"/>
      <point x="369" y="705"/>
      <point x="437" y="656"/>
      <point x="436" y="566" type="curve"/>
      <point x="435" y="462"/>
      <point x="343" y="423"/>
      <point x="229" y="423" type="curve"/>
      <point x="229" y="409"/>
      <point x="229" y="416"/>
      <point x="229" y="403" type="curve"/>
      <point x="358" y="403"/>
      <point x="460" y="451"/>
      <point x="460" y="569" type="curve"/>
      <point x="459" y="670"/>
      <point x="384" y="726"/>
      <point x="273" y="726" type="curve"/>
      <point x="200" y="726"/>
      <point x="142" y="698"/>
      <point x="89" y="658" type="curve"/>
      <point x="99" y="647"/>
      <point x="94" y="653"/>
    </contour>
    <contour>
      <point x="74" y="158" type="curve"/>
      <point x="129" y="99"/>
      <point x="195" y="68"/>
      <point x="278" y="68" type="curve"/>
      <point x="395" y="63"/>
      <point x="477" y="134"/>
      <point x="475" y="249" type="curve"/>
      <point x="473" y="371"/>
      <point x="362" y="418"/>
      <point x="229" y="418" type="curve"/>
      <point x="229" y="406"/>
      <point x="229" y="412"/>
      <point x="229" y="400" type="curve"/>
      <point x="350" y="400"/>
      <point x="449" y="358"/>
      <point x="451" y="247" type="curve"/>
      <point x="453" y="147"/>
      <point x="382" y="86"/>
      <point x="280" y="89" type="curve"/>
      <point x="203" y="89"/>
      <point x="143" y="118"/>
      <point x="91" y="172" type="curve"/>
      <point x="80" y="163"/>
      <point x="86" y="168"/>
    </contour>
  </outline>
</glyph>
<glyph name="dvBH_LA" format="1">
  <advance width="1346"/>
  <outline>
    <contour>
      <point x="1134" y="-36" type="move" name="blwm.virama"/>
    </contour>
    <contour>
      <point x="1108" y="721" type="move" name="abvm.e"/>
    </contour>
    <contour>
      <point x="1127" y="-114" type="move" name="blwm.u"/>
    </contour>
    <component base="dvBH" xOffset="6"/>
    <component base="dvLA_base" xOffset="531"/>
    <component base="dvTopbar" xScale="1.14970111957" xOffset="596"/>
    <component base="dvStem_short" yScale="0.977898080651" xOffset="796" yOffset="16"/>
  </outline>
</glyph>
<glyph name="dvB_DA" format="1">
  <advance width="1021"/>
  <outline>
    <contour>
      <point x="921" y="-89" type="move" name="blwm.virama"/>
    </contour>
    <contour>
      <point x="879" y="719" type="move" name="abvm.e"/>
    </contour>
    <contour>
      <point x="920" y="-148" type="move" name="blwm.u"/>
    </contour>
    <component base="dvDA_base" xOffset="448" yOffset="2"/>
    <component base="dvTopbar" xScale="1.10394205986" xOffset="309"/>
    <component base="dvStroke_down" yScale="1.01194914924" xOffset="445" yOffset="-2"/>
    <component base="dvB" xOffset="-3"/>
  </outline>
</glyph>
<glyph name="dvB_open" format="1">
  <advance width="500"/>
  <outline>
    <contour>
      <point x="486" y="193" type="line"/>
      <point x="168" y="508" type="line"/>
      <point x="150" y="494" type="line"/>
      <point x="468" y="179" type="line"/>
    </contour>
    <contour>
      <point x="324" y="568" type="line"/>
      <point x="176" y="568"/>
      <point x="78" y="486"/>
      <point x="78" y="342" type="curve"/>
      <point x="78" y="200"/>
      <point x="171" y="113"/>
      <point x="313" y="113" type="curve"/>
      <point x="451" y="113"/>
      <point x="522" y="183"/>
      <point x="540" y="314" type="curve"/>
      <point x="527" y="314"/>
      <point x="535" y="314"/>
      <point x="522" y="314" type="curve"/>
      <point x="503" y="198"/>
      <point x="442" y="135"/>
      <point x="316" y="135" type="curve"/>
      <point x="187" y="135"/>
      <point x="102" y="213"/>
      <point x="102" y="342" type="curve"/>
      <point x="102" y="473"/>
      <point x="189" y="547"/>
      <point x="324" y="547" type="curve"/>
    </contour>
  </outline>
</glyph>
<glyph name="dvC_CH_VA" format="1">
  <advance width="1240"/>
  <outline>
    <contour>
      <point x="1008" y="-379" type="move" name="blwm.virama"/>
    </contour>
    <contour>
      <point x="1029" y="720" type="move" name="abvm.e"/>
    </contour>
    <contour>
      <point x="1005" y="-378" type="move" name="blwm.u"/>
    </contour>
    <component base="dvStroke_down" yScale="1.56117666506" xOffset="529" yOffset="-384"/>
    <component base="dvC_CHA"/>
    <component base="dvVA_open" xOffset="446" yOffset="-468"/>
  </outline>
</glyph>
<glyph name="dvConnector" format="1">
  <advance width="500"/>
  <outline>
    <contour>
      <point x="583" y="440" type="line"/>
      <point x="549" y="393"/>
      <point x="507" y="365"/>
      <point x="448" y="364" type="curve" smooth="yes"/>
      <point x="390" y="363"/>
      <point x="347" y="379"/>
      <point x="295" y="406" type="curve"/>
      <point x="287" y="388" type="line"/>
      <point x="341" y="359"/>
      <point x="386" y="342"/>
      <point x="448" y="343" type="curve" smooth="yes"/>
      <point x="515" y="346"/>
      <point x="564" y="372"/>
      <point x="599" y="429" type="curve"/>
    </contour>
  </outline>
</glyph>
<glyph name="dvConnector_short" format="1">
  <advance width="500"/>
  <outline>
    <contour>
      <point x="673" y="405" type="line"/>
      <point x="652" y="369"/>
      <point x="621" y="340"/>
      <point x="574" y="339" type="curve" smooth="yes"/>
      <point x="533" y="338"/>
      <point x="503" y="353"/>
      <point x="467" y="372" type="curve"/>
      <point x="459" y="355" type="line"/>
      <point x="497" y="333"/>
      <point x="530" y="318"/>
      <point x="574" y="318" type="curve" smooth="yes"/>
      <point x="629" y="320"/>
      <point x="669" y="351"/>
      <point x="690" y="395" type="curve"/>
    </contour>
  </outline>
</glyph>
<glyph name="dvConnector_straight" format="1">
  <advance width="500"/>
  <outline>
    <contour>
      <point x="254" y="437" type="line"/>
      <point x="624" y="437" type="line"/>
      <point x="624" y="458" type="line"/>
      <point x="254" y="458" type="line"/>
    </contour>
  </outline>
</glyph>
<glyph name="dvDA_base" format="1">
  <advance width="500"/>
  <outline>
    <contour>
      <point x="432" y="533" type="curve"/>
      <point x="432" y="592"/>
      <point x="432" y="651"/>
      <point x="432" y="710" type="curve"/>
      <point x="408" y="710"/>
      <point x="432" y="710"/>
      <point x="408" y="710" type="curve"/>
      <point x="408" y="658"/>
      <point x="408" y="606"/>
      <point x="408" y="554" type="curve"/>
      <point x="432" y="533"/>
      <point x="408" y="554"/>
    </contour>
    <contour>
      <point x="454" y="295" type="line"/>
      <point x="454" y="198"/>
      <point x="382" y="138"/>
      <point x="289" y="138" type="curve"/>
      <point x="172" y="138"/>
      <point x="98" y="215"/>
      <point x="98" y="334" type="curve"/>
      <point x="98" y="470"/>
      <point x="213" y="533"/>
      <point x="360" y="533" type="curve"/>
      <point x="386" y="533"/>
      <point x="405" y="533"/>
      <point x="432" y="533" type="curve"/>
      <point x="423" y="541"/>
      <point x="417" y="546"/>
      <point x="408" y="554" type="curve"/>
      <point x="391" y="554"/>
      <point x="377" y="554"/>
      <point x="360" y="554" type="curve"/>
      <point x="199" y="554"/>
      <point x="74" y="482"/>
      <point x="74" y="332" type="curve"/>
      <point x="74" y="201"/>
      <point x="158" y="117"/>
      <point x="287" y="117" type="curve"/>
      <point x="400" y="117"/>
      <point x="477" y="183"/>
      <point x="477" y="291" type="curve"/>
    </contour>
  </outline>
</glyph>
<glyph name="dvDDHA_base" format="1">
  <advance width="500"/>
  <outline>
    <contour>
      <point x="423" y="539" type="line"/>
      <point x="401" y="539"/>
      <point x="382" y="539"/>
      <point x="360" y="539" type="curve"/>
      <point x="199" y="539"/>
      <point x="78" y="447"/>
      <point x="78" y="293" type="curve"/>
      <point x="78" y="133"/>
      <point x="186" y="22"/>
      <point x="345" y="22" type="curve"/>
      <point x="468" y="22"/>
      <point x="562" y="87"/>
      <point x="562" y="203" type="curve"/>
      <point x="562" y="292"/>
      <point x="501" y="352"/>
      <point x="412" y="352" type="curve"/>
      <point x="322" y="352"/>
      <point x="261" y="289"/>
      <point x="261" y="199" type="curve"/>
      <point x="261" y="111"/>
      <point x="317" y="53"/>
      <point x="402" y="27" type="curve"/>
      <point x="405" y="32"/>
      <point x="407" y="36"/>
      <point x="410" y="41" type="curve"/>
      <point x="336" y="70"/>
      <point x="284" y="120"/>
      <point x="284" y="199" type="curve"/>
      <point x="284" y="276"/>
      <point x="334" y="330"/>
      <point x="411" y="330" type="curve"/>
      <point x="487" y="330"/>
      <point x="538" y="280"/>
      <point x="538" y="203" type="curve"/>
      <point x="538" y="101"/>
      <point x="455" y="44"/>
      <point x="346" y="44" type="curve"/>
      <point x="200" y="44"/>
      <point x="102" y="146"/>
      <point x="102" y="295" type="curve"/>
      <point x="102" y="435"/>
      <point x="213" y="519"/>
      <point x="360" y="519" type="curve"/>
      <point x="391" y="519"/>
      <point x="415" y="519"/>
      <point x="445" y="519" type="curve"/>
    </contour>
    <contour>
      <point x="445" y="519" type="line"/>
      <point x="445" y="587"/>
      <point x="445" y="642"/>
      <point x="445" y="710" type="curve"/>
      <point x="436" y="710"/>
      <point x="432" y="710"/>
      <point x="423" y="710" type="curve"/>
      <point x="423" y="649"/>
      <point x="423" y="600"/>
      <point x="423" y="539" type="curve"/>
    </contour>
  </outline>
</glyph>
<glyph name="dvDDH_DDHA" format="1">
  <advance width="615"/>
  <outline>
    <contour>
      <point x="317" y="-369" type="move" name="blwm.virama"/>
    </contour>
    <contour>
      <point x="373" y="721" type="move" name="abvm.e"/>
    </contour>
    <contour>
      <point x="380" y="-441" type="move" name="blwm.u"/>
    </contour>
    <component base="dvDDHA_short" xOffset="-3" yOffset="-452"/>
    <component base="dvTopbar" xScale="0.968334940096" xOffset="-10"/>
    <component base="dvDDHA_open" xOffset="-3"/>
    <component base="dvStem_short" yScale="0.654665403621" xOffset="58" yOffset="241"/>
  </outline>
</glyph>
<glyph name="dvDDH_RA" format="1">
  <advance width="611"/>
  <outline>
    <contour>
      <point x="387" y="-176" type="move" name="blwm.virama"/>
    </contour>
    <contour>
      <point x="439" y="722" type="move" name="abvm.e"/>
    </contour>
    <contour>
      <point x="433" y="-241" type="move" name="blwm.u"/>
    </contour>
    <component base="dvDDHA"/>
    <component base="dvDoublevirama" xOffset="-37" yOffset="36"/>
  </outline>
</glyph>
<glyph name="dvDD_DDA" format="1">
  <advance width="565"/>
  <outline>
    <contour>
      <point x="369" y="-361" type="move" name="blwm.virama"/>
    </contour>
    <contour>
      <point x="413" y="717" type="move" name="abvm.e"/>
    </contour>
    <contour>
      <point x="395" y="-442" type="move" name="blwm.u"/>
    </contour>
    <component base="dvDD_low" xOffset="-21" yOffset="-34"/>
    <component base="dvTopbar" xScale="0.873059515083" xOffset="-3"/>
    <component base="dvDD_short" yOffset="6"/>
    <component base="dvStem_short" yScale="0.715902123643" xOffset="99" yOffset="213"/>
  </outline>
</glyph>
<glyph name="dvDH_open" format="1">
  <advance width="500"/>
  <outline>
    <contour>
      <point x="484" y="311" type="curve"/>
      <point x="454" y="208"/>
      <point x="397" y="137"/>
      <point x="303" y="137" type="curve"/>
      <point x="206" y="137"/>
      <point x="131" y="182"/>
      <point x="131" y="275" type="curve"/>
      <point x="131" y="371"/>
      <point x="207" y="420"/>
      <point x="304" y="420" type="curve"/>
      <point x="304" y="426"/>
      <point x="304" y="431"/>
      <point x="304" y="438" type="curve"/>
      <point x="194" y="438"/>
      <point x="107" y="382"/>
      <point x="107" y="274" type="curve"/>
      <point x="107" y="169"/>
      <point x="191" y="116"/>
      <point x="301" y="116" type="curve"/>
      <point x="406" y="116"/>
      <point x="469" y="191"/>
      <point x="501" y="302" type="curve"/>
      <point x="495" y="305"/>
      <point x="491" y="308"/>
    </contour>
    <contour>
      <point x="278" y="729" type="line"/>
      <point x="173" y="729"/>
      <point x="103" y="673"/>
      <point x="103" y="580" type="curve"/>
      <point x="103" y="472"/>
      <point x="193" y="422"/>
      <point x="304" y="422" type="curve"/>
      <point x="304" y="429"/>
      <point x="304" y="434"/>
      <point x="304" y="440" type="curve"/>
      <point x="206" y="440"/>
      <point x="126" y="485"/>
      <point x="127" y="582" type="curve"/>
      <point x="128" y="660"/>
      <point x="186" y="707"/>
      <point x="278" y="707" type="curve"/>
    </contour>
  </outline>
</glyph>
<glyph name="dvD_BA" format="1">
  <advance width="567"/>
  <outline>
    <contour>
      <point x="446" y="-202" type="move" name="blwm.virama"/>
    </contour>
    <contour>
      <point x="405" y="721" type="move" name="abvm.e"/>
    </contour>
    <contour>
      <point x="446" y="-207" type="move" name="blwm.u"/>
    </contour>
    <component base="dvDiagonal" xOffset="-18" yOffset="-338"/>
    <component base="dvTopbar" xScale="0.877373157554" xOffset="3"/>
    <component base="dvStroke_down" yScale="2.01279761032" xOffset="-30" yOffset="-221"/>
    <component base="dvVA_open" xOffset="-113" yOffset="-301"/>
    <component base="dvDA_short" xOffset="-26" yOffset="36"/>
  </outline>
</glyph>
<glyph name="dvD_DA" format="1">
  <advance width="562"/>
  <outline>
    <contour>
      <point x="499" y="-81" type="move" name="blwm.virama"/>
    </contour>
    <contour>
      <point x="365" y="720" type="move" name="abvm.e"/>
    </contour>
    <contour>
      <point x="499" y="-78" type="move" name="blwm.u"/>
    </contour>
    <component base="dvTopbar" xScale="0.877502947304" xOffset="-3"/>
    <component base="dvStroke_down" yScale="0.794932220442" xOffset="22" yOffset="-79"/>
    <component base="dvD_DA_base" xOffset="-4" yOffset="13"/>
  </outline>
</glyph>
<glyph name="dvD_GA" format="1">
  <advance width="602"/>
  <outline>
    <contour>
      <point x="461" y="-136" type="move" name="blwm.virama"/>
    </contour>
    <contour>
      <point x="417" y="718" type="move" name="abvm.e"/>
    </contour>
    <contour>
      <point x="461" y="-96" type="move" name="blwm.u"/>
    </contour>
    <component base="dvGA_low" xOffset="-59" yOffset="-68"/>
    <component base="dvDA_short" xOffset="-14" yOffset="39"/>
    <component base="dvStroke_down" yScale="1.65857824744" xOffset="-16" yOffset="-114"/>
    <component base="dvTopbar" xScale="0.937587091961" xOffset="-2"/>
  </outline>
</glyph>
